<svg id="Layer_2" data-name="Layer 2" xmlns="http://www.w3.org/2000/svg" viewBox="0 0 800 800"><defs><style>.cls-1{fill:#1a1a1a;}.cls-2{fill:#b3b3b3;}.cls-3{fill:gray;}.cls-4{fill:#ccc;}.cls-5{fill:#999;}.cls-6{fill:#fff;}.cls-7{fill:#666;}.cls-8{font-size:134.95px;fill:#f2f2f2;font-family:SFProDisplay-Regular, SF Pro Display;letter-spacing:-0.1em;}</style></defs><title>Logo</title><rect class="cls-1" width="800" height="800"/><polygon class="cls-2" points="312.08 305.04 313.5 354.5 399.5 304.5 399.5 204.5 357.54 227.73 358.5 280.5 312.08 305.04"/><polygon class="cls-3" points="488.5 403.5 529.5 377.5 530.5 426.5 488.5 403.5"/><polyline class="cls-4" points="356.29 378.86 313.5 354.5 399.5 304.5 484.5 354.5 445.5 378.5"/><polygon class="cls-4" points="232 204 232 253 275 228 275 180 232 204"/><polygon class="cls-5" points="532 182 532 230 573 253 573 204 532 182"/><polygon class="cls-4" points="363 475 404 451 445 475 403 500 363 475"/><polygon class="cls-6" points="302 161 302 247 227 291 227.5 353.5 358.5 280.5 357.5 129.5 302 161"/><polygon class="cls-3" points="269.5 377.5 269.5 330.1 227.5 353.5 269.5 377.5"/><polygon class="cls-3" points="357.5 129.5 399.5 153.5 357.82 177.35 357.5 129.5"/><polygon class="cls-3" points="401.5 153.5 442.5 129.5 444.5 178.5 401.5 153.5"/><polygon class="cls-6" points="445.5 278.5 572.5 353.5 572.5 292.5 498.5 248.5 498.5 158.5 442.5 129.5 445.5 278.5"/><polygon class="cls-6" points="269.5 427.5 400.5 353.5 488.29 402.8 530.5 426.5 475.5 460.5 400.5 416.5 326.5 460.5 269.5 427.5"/><polygon class="cls-3" points="530.07 328.06 530.5 375.5 572.5 353.5 530.07 328.06"/><polygon class="cls-3" points="269.5 427.5 270.5 379.5 312.2 403.38 269.5 427.5"/><polygon class="cls-7" points="399.5 204.5 444.53 230.39 445.5 278.5 484.61 301.6 484.5 354.5 399.5 304.5 399.5 204.5"/><text class="cls-8" transform="translate(256.11 629.68)">bDSC</text></svg>