<svg id="Layer_2" data-name="Layer 2" xmlns="http://www.w3.org/2000/svg" viewBox="0 0 800 800"><defs><style>.cls-1{fill:#fff;}.cls-2{font-size:134.95px;font-family:SFProDisplay-Regular, SF Pro Display;letter-spacing:-0.1em;}.cls-2,.cls-3{fill:#4b207a;}.cls-4{fill:#2b0d4f;}.cls-5{fill:#8855c4;}.cls-6{fill:#683b9b;}.cls-7{fill:#6f389f;}</style></defs><title>Logo</title><g id="Layer_1" data-name="Layer 1"><rect class="cls-1" width="800" height="800"/><text class="cls-2" transform="translate(253.11 629.68)">bDSC</text></g><polygon class="cls-3" points="312.08 305.04 313.5 354.5 399.5 304.5 399.5 204.5 357.54 227.73 358.5 280.5 312.08 305.04"/><polygon class="cls-4" points="488.5 403.5 529.5 377.5 530.5 426.5 488.5 403.5"/><polyline class="cls-5" points="356.29 378.86 313.5 354.5 399.5 304.5 484.5 354.5 445.5 378.5"/><polygon class="cls-3" points="228 208 228 257 271 232 271 184 228 208"/><polygon class="cls-4" points="532 182 532 230 573 253 573 204 532 182"/><polygon class="cls-3" points="359 479 400 455 441 479 399 504 359 479"/><polygon class="cls-6" points="302 161 302 247 227 291 227.5 353.5 358.5 280.5 357.5 129.5 302 161"/><polygon class="cls-4" points="269.5 377.5 269.5 330.1 227.5 353.5 269.5 377.5"/><polygon class="cls-4" points="357.5 129.5 399.5 153.5 357.82 177.35 357.5 129.5"/><polygon class="cls-4" points="401.5 153.5 442.5 129.5 444.5 178.5 401.5 153.5"/><polygon class="cls-7" points="445.5 278.5 572.5 353.5 572.5 292.5 498.5 248.5 498.5 158.5 442.5 129.5 445.5 278.5"/><polygon class="cls-7" points="269.5 427.5 400.5 353.5 488.29 402.8 530.5 426.5 475.5 460.5 400.5 416.5 326.5 460.5 269.5 427.5"/><polygon class="cls-4" points="530.07 328.06 530.5 375.5 572.5 353.5 530.07 328.06"/><polygon class="cls-4" points="269.5 427.5 270.5 379.5 312.2 403.38 269.5 427.5"/><polygon class="cls-4" points="399.5 204.5 444.53 230.39 445.5 278.5 484.61 301.6 484.5 354.5 399.5 304.5 399.5 204.5"/></svg>