<svg id="Слой_1" data-name="Слой 1" xmlns="http://www.w3.org/2000/svg" viewBox="0 0 664.44 500"><defs><style>.cls-1{fill:#f7f7f7;}.cls-2{fill:#a1d4ff;}.cls-3{fill:#78c2ff;}</style></defs><title>elements</title><rect class="cls-1" width="664.44" height="500"/><path class="cls-2" d="M312.74,214.56h-24v-24h24Zm-23.09-.95h22.14V191.47H289.65Z" transform="translate(0)"/><rect class="cls-2" x="300.24" y="197.07" width="0.95" height="11.21"/><rect class="cls-2" x="295.12" y="202.2" width="11.21" height="0.95"/><path class="cls-2" d="M372.73,268.21l-.35-.94a5,5,0,0,1-.95-.21l-.72.68-2.12-1.51.41-.91a5,5,0,0,1-.52-.82l-1,0-.43-2.56.94-.36a5.1,5.1,0,0,1,.21-.94l-.68-.73,1.5-2.12.92.41a4.9,4.9,0,0,1,.82-.51l0-1,2.56-.43.36.93a5.13,5.13,0,0,1,.94.22l.73-.69,2.12,1.51-.41.91a5.34,5.34,0,0,1,.51.82l1,0,.43,2.57-.93.35a5.84,5.84,0,0,1-.22.94l.69.73-1.51,2.12-.91-.41a5.4,5.4,0,0,1-.82.52l0,1Zm-1.46-2,.21.08a4,4,0,0,0,1.18.27l.23,0,.3.8,1.41-.23,0-.86.2-.09a4.08,4.08,0,0,0,1-.65l.17-.14.79.35.82-1.16-.58-.63.08-.21a4.81,4.81,0,0,0,.27-1.18l0-.23.8-.3-.24-1.41-.85,0-.1-.2a4.23,4.23,0,0,0-.64-1l-.15-.17.35-.79-1.16-.82-.62.58-.21-.08a4.78,4.78,0,0,0-1.19-.27l-.22,0-.31-.8-1.41.24,0,.85-.21.1a4.23,4.23,0,0,0-1,.64l-.17.14-.78-.34-.83,1.16.59.62-.08.21a4.39,4.39,0,0,0-.28,1.19l0,.22-.8.31.24,1.4.86,0,.09.21a4.26,4.26,0,0,0,.65,1l.14.17-.35.78,1.16.83ZM373,265a2.82,2.82,0,0,1-2.3-4.46,2.82,2.82,0,0,1,3.94-.66,2.77,2.77,0,0,1,1.15,1.83,2.84,2.84,0,0,1-.49,2.11,2.76,2.76,0,0,1-1.83,1.14A2.56,2.56,0,0,1,373,265Zm0-4.93a2.1,2.1,0,0,0-2.09,2.46,2.11,2.11,0,0,0,.86,1.37h0a2.11,2.11,0,0,0,2.94-.5,2.05,2.05,0,0,0,.36-1.57,2.09,2.09,0,0,0-2.07-1.76Z" transform="translate(0)"/><path class="cls-2" d="M352.88,271.2l-.8-2.09a11.87,11.87,0,0,1-2.51-.57L348,270.06l-4.42-3.14.91-2a11,11,0,0,1-1.37-2.18l-2.23-.07-.9-5.35,2.09-.8a10.79,10.79,0,0,1,.57-2.5l-1.53-1.63,3.15-4.42,2,.91a10.91,10.91,0,0,1,2.18-1.36l.07-2.24,5.35-.9.79,2.09a11.28,11.28,0,0,1,2.51.57l1.63-1.53,4.42,3.15-.91,2a11.38,11.38,0,0,1,1.36,2.18l2.23.07.91,5.35-2.09.8a11.35,11.35,0,0,1-.58,2.5l1.53,1.63-3.14,4.42-2-.91a11.38,11.38,0,0,1-2.18,1.36l-.07,2.24Zm-3.53-3.76.28.1a10.21,10.21,0,0,0,2.83.65l.3,0,.73,1.91,3.81-.65.06-2,.28-.12a10.6,10.6,0,0,0,2.46-1.54l.23-.19,1.86.83,2.24-3.15-1.4-1.49.11-.28a10.06,10.06,0,0,0,.65-2.82l0-.3,1.91-.73-.64-3.81-2-.07-.12-.27a10.6,10.6,0,0,0-1.54-2.46l-.2-.23.84-1.87-3.15-2.24-1.49,1.4-.28-.1a10.13,10.13,0,0,0-2.83-.65l-.3,0-.73-1.91-3.81.64-.06,2-.27.12a10.6,10.6,0,0,0-2.46,1.54l-.23.19-1.87-.83-2.24,3.15,1.4,1.49-.11.28a10.41,10.41,0,0,0-.64,2.82l0,.3-1.91.73.64,3.81,2.05.07.12.27a10.28,10.28,0,0,0,1.54,2.46l.19.23-.83,1.86,3.14,2.24Zm4-3.5a6.17,6.17,0,1,1,5-2.59A6.13,6.13,0,0,1,353.36,263.94Zm0-11.39a5.22,5.22,0,1,0,4.25,8.24,5.22,5.22,0,0,0-4.25-8.24Z" transform="translate(0)"/><path class="cls-3" d="M228.08,276.21a17.81,17.81,0,0,1-17.79-17.79h1a16.84,16.84,0,1,0,16.84-16.84v-1a17.79,17.79,0,1,1,0,35.58Zm0-2.47a15.32,15.32,0,1,1,15.32-15.32h-1a14.37,14.37,0,1,0-14.37,14.37Z" transform="translate(0)"/><polygon class="cls-3" points="225.9 264.31 219.48 257.9 220.16 257.22 225.9 262.97 236.01 252.86 236.68 253.54 225.9 264.31"/><polygon class="cls-3" points="409.18 212.86 435.46 212.86 435.46 231.91 435.46 235.92 431.45 231.91 409.18 231.91 409.18 212.86"/></svg>