<svg xmlns="http://www.w3.org/2000/svg" xmlns:xlink="http://www.w3.org/1999/xlink" id="Слой_1" data-name="Слой 1" viewBox="0 0 664.44 500"><defs><style>.cls-1{fill:#f7f7f7}.cls-2{fill:url(#linear-gradient)}.cls-3{fill:url(#linear-gradient-2)}.cls-4{fill:#6aafe8}.cls-5{fill:#78c2ff}.cls-6{fill:url(#linear-gradient-3)}.cls-7{fill:#fff}.cls-8{fill:url(#linear-gradient-4)}.cls-9{fill:#4d78eb}.cls-10{fill:#e0e0e0}.cls-11{fill:#1487e3}.cls-12{fill:#ff8761}.cls-13{opacity:.76}.cls-14{fill:#4aafff}.cls-15{fill:#1a598c}.cls-16{fill:#2273b5}.cls-17{fill:#3788cc}</style><linearGradient id="linear-gradient" x1="176.02" x2="476.44" y1="264.58" y2="264.58" gradientTransform="translate(638.77 529.16) rotate(-180)" gradientUnits="userSpaceOnUse"><stop offset="0" stop-color="#40d5e6"/><stop offset="1" stop-color="#57f"/></linearGradient><linearGradient id="linear-gradient-2" x1="193.73" x2="444.56" y1="251.28" y2="251.28" gradientTransform="translate(638.3 502.56) rotate(-180)" gradientUnits="userSpaceOnUse"><stop offset="0" stop-color="#404b61"/><stop offset=".49" stop-color="#3c4860"/><stop offset="1" stop-color="#2f3e5c"/></linearGradient><linearGradient id="linear-gradient-3" x1="319.43" x2="319.43" y1="325.12" y2="491.7" gradientTransform="matrix(1, 0, 0, 1, 0, 0)" xlink:href="#linear-gradient"/><linearGradient id="linear-gradient-4" x1="1.97" x2="331.46" y1="450.68" y2="450.68" gradientTransform="matrix(1, 0, 0, 1, 0, 0)" xlink:href="#linear-gradient"/></defs><title>final_laptop_landing</title><rect width="664.44" height="500" class="cls-1"/><path d="M184.17,164.42H454.6a0,0,0,0,1,0,0V355.26a9.47,9.47,0,0,1-9.47,9.47H193.65a9.47,9.47,0,0,1-9.47-9.47V164.42A0,0,0,0,1,184.17,164.42Z" class="cls-2" transform="translate(638.77 529.16) rotate(180)"/><rect width="250.83" height="154.09" x="193.73" y="174.23" class="cls-3" transform="translate(638.29 502.56) rotate(180)"/><path d="M401.7,96.41l-.21-.11c-22.65-11.56-19.61-33.95-19.57-34.17l.06-.41h.41c14.39,0,18.92-4.64,19-4.68l.35-.38.35.38c.05,0,4.57,4.68,19,4.68h.42l.06.41c0,.22,3.07,22.61-19.57,34.17ZM382.82,62.67c-.29,3-1.24,22.25,18.88,32.67,20.13-10.42,19.17-29.63,18.89-32.67C408.09,62.6,403,59.11,401.7,58,400.4,59.11,395.31,62.6,382.82,62.67Z" class="cls-4" transform="translate(0)"/><polygon points="350.85 188.17 349.89 188.17 349.89 134.98 401.22 134.98 401.22 90.25 402.18 90.25 402.18 135.93 350.85 135.93 350.85 188.17" class="cls-5"/><polygon points="433.26 108.22 425.08 108.22 425.08 107.27 432.31 107.27 432.31 100.04 433.26 100.04 433.26 108.22" class="cls-4"/><polygon points="378.23 108.22 370.05 108.22 370.05 100.04 371 100.04 371 107.27 378.23 107.27 378.23 108.22" class="cls-4"/><polygon points="371.01 53.2 370.05 53.2 370.05 45.01 378.23 45.01 378.23 45.97 371.01 45.97 371.01 53.2" class="cls-4"/><polygon points="433.26 53.19 432.31 53.19 432.31 45.97 425.08 45.97 425.08 45.02 433.26 45.02 433.26 53.19" class="cls-4"/><rect width=".95" height="22.41" x="432.31" y="65.41" class="cls-4"/><rect width=".96" height="22.41" x="370.05" y="65.41" class="cls-4"/><path d="M401.7,90.72a3.5,3.5,0,1,1,3.5-3.5A3.5,3.5,0,0,1,401.7,90.72Zm0-6a2.55,2.55,0,1,0,2.55,2.55A2.55,2.55,0,0,0,401.7,84.67Z" class="cls-5" transform="translate(0)"/><polygon points="454.59 335.81 319.43 335.81 184.27 335.81 154.69 446.38 320.31 446.38 484.17 446.38 454.59 335.81" class="cls-6"/><path d="M194.49,355.21H211.1a1,1,0,0,1,1.09,1.12l-1.61,7.23a1.07,1.07,0,0,1-1.09.76H192.6a1,1,0,0,1-1.08-1.15l1.89-7.22A1.09,1.09,0,0,1,194.49,355.21Z" class="cls-7" transform="translate(0)"/><polygon points="218.72 355.21 231.27 355.21 229.6 364.32 216.81 364.32 218.72 355.21" class="cls-7"/><polygon points="237.55 355.21 250.11 355.21 248.79 364.32 236 364.34 237.55 355.21" class="cls-7"/><polygon points="256.38 355.21 268.94 355.21 267.99 364.32 255.19 364.32 256.38 355.21" class="cls-7"/><polygon points="275.22 355.21 287.77 355.21 287.18 364.32 274.38 364.32 275.22 355.21" class="cls-7"/><polygon points="294.05 355.21 306.61 355.21 306.37 364.32 293.57 364.34 294.05 355.21" class="cls-7"/><polygon points="444.76 355.21 425.93 355.21 427.96 364.32 447.15 364.32 444.76 355.21" class="cls-7"/><polygon points="419.65 355.21 407.1 355.21 408.77 364.32 421.56 364.32 419.65 355.21" class="cls-7"/><polygon points="400.82 355.21 388.26 355.21 389.58 364.32 402.37 364.34 400.82 355.21" class="cls-7"/><polygon points="381.99 355.21 369.43 355.21 370.38 364.32 383.18 364.32 381.99 355.21" class="cls-7"/><polygon points="363.15 355.21 350.6 355.21 351.19 364.32 363.99 364.32 363.15 355.21" class="cls-7"/><polygon points="344.32 355.21 331.76 355.21 332 364.32 344.8 364.34 344.32 355.21" class="cls-7"/><polygon points="312.89 355.21 325.44 355.21 325.65 364.32 312.89 364.32 312.89 355.21" class="cls-7"/><polygon points="188.97 371.12 215.21 371.12 213.71 380.52 186.98 380.52 188.97 371.12" class="cls-7"/><polygon points="448.86 371.12 416.43 371.12 418.28 380.52 451.32 380.52 448.86 371.12" class="cls-7"/><polygon points="409.94 371.12 396.97 371.12 398.45 380.52 411.67 380.52 409.94 371.12" class="cls-7"/><polygon points="390.49 371.12 377.51 371.12 378.62 380.52 391.84 380.52 390.49 371.12" class="cls-7"/><polygon points="371.03 371.12 358.05 371.12 358.79 380.52 372.01 380.52 371.03 371.12" class="cls-7"/><polygon points="351.57 371.12 338.6 371.12 338.96 380.52 352.18 380.52 351.57 371.12" class="cls-7"/><polygon points="185.05 387.88 211.87 387.88 209.92 397.21 182.6 397.21 185.05 387.88" class="cls-7"/><polygon points="218.58 387.88 231.99 387.88 230.4 397.21 216.74 397.21 218.58 387.88" class="cls-7"/><polygon points="238.7 387.88 252.11 387.88 339.27 387.88 339.65 397.21 237.23 397.21 238.7 387.88" class="cls-7"/><polygon points="345.99 387.88 359.4 387.88 360.13 397.21 346.48 397.21 345.99 387.88" class="cls-7"/><polygon points="366.11 387.88 379.52 387.88 380.62 397.21 366.96 397.21 366.11 387.88" class="cls-7"/><polygon points="386.22 387.88 399.63 387.88 401.1 397.21 387.44 397.21 386.22 387.88" class="cls-7"/><polygon points="406.34 387.88 419.75 387.88 421.58 397.21 407.93 397.21 406.34 387.88" class="cls-7"/><polygon points="426.46 387.88 453.28 387.88 455.73 397.21 428.41 397.21 426.46 387.88" class="cls-7"/><polygon points="332.14 371.12 319.27 371.12 319.27 380.52 332.38 380.52 332.14 371.12" class="cls-7"/><polygon points="312.68 371.12 299.71 371.12 299.33 380.52 312.55 380.52 312.68 371.12" class="cls-7"/><polygon points="293.22 371.12 280.25 371.12 279.51 380.52 292.73 380.52 293.22 371.12" class="cls-7"/><polygon points="273.76 371.12 260.79 371.12 259.68 380.52 272.9 380.52 273.76 371.12" class="cls-7"/><polygon points="254.3 371.12 241.33 371.12 239.85 380.52 253.07 380.52 254.3 371.12" class="cls-7"/><polygon points="234.84 371.12 221.87 371.12 220.02 380.52 233.24 380.52 234.84 371.12" class="cls-7"/><polygon points="195.11 349.48 197.24 341.35 203.33 341.35 201.34 349.48 195.11 349.48" class="cls-7"/><polygon points="209.43 341.35 221.62 341.35 219.92 349.48 207.51 349.48 209.43 341.35" class="cls-7"/><polygon points="227.72 341.35 239.91 341.35 238.53 349.48 226.12 349.48 227.72 341.35" class="cls-7"/><polygon points="246.01 341.35 258.2 341.35 257.13 349.48 244.73 349.48 246.01 341.35" class="cls-7"/><polygon points="264.3 341.35 276.49 341.35 275.74 349.48 263.34 349.48 264.3 341.35" class="cls-7"/><polygon points="282.59 341.35 294.78 341.35 294.35 349.48 281.95 349.48 282.59 341.35" class="cls-7"/><polygon points="300.88 341.35 313.07 341.35 312.96 349.48 300.56 349.48 300.88 341.35" class="cls-7"/><polygon points="319.16 341.35 331.36 341.35 331.57 349.48 319.16 349.48 319.16 341.35" class="cls-7"/><polygon points="337.45 341.35 349.65 341.35 350.18 349.48 337.77 349.48 337.45 341.35" class="cls-7"/><polygon points="355.74 341.35 367.94 341.35 368.79 349.48 356.38 349.48 355.74 341.35" class="cls-7"/><polygon points="374.03 341.35 386.22 341.35 387.4 349.48 374.99 349.48 374.03 341.35" class="cls-7"/><polygon points="392.32 341.35 404.51 341.35 406 349.48 393.6 349.48 392.32 341.35" class="cls-7"/><polygon points="410.61 341.35 422.8 341.35 424.61 349.48 412.21 349.48 410.61 341.35" class="cls-7"/><polygon points="428.9 341.35 441.09 341.35 443.22 349.48 430.82 349.48 428.9 341.35" class="cls-7"/><path d="M475.56,455H163.29a8.61,8.61,0,0,1-8.6-8.61H484.17A8.61,8.61,0,0,1,475.56,455Z" class="cls-8" transform="translate(0)"/><path d="M357.73,410.65a4,4,0,0,0-4-3.37H285.1a4,4,0,0,0-4,3.37l-4.29,26a4,4,0,0,0,4,4.69H358a4,4,0,0,0,4-4.69Z" class="cls-9" transform="translate(0)"/><rect width="27.94" height="2.86" x="210.67" y="187.31" class="cls-10"/><rect width="20.17" height="2.86" x="246.43" y="208.85" class="cls-10"/><rect width="13.39" height="2.86" x="269.75" y="208.85" class="cls-11"/><rect width="13.39" height="2.86" x="210.98" y="263.03" class="cls-11"/><rect width="32.32" height="2.86" x="285.78" y="208.85" class="cls-10"/><rect width="20.77" height="2.86" x="210.98" y="252.18" class="cls-10"/><rect width="12.68" height="2.86" x="239.94" y="273.8" class="cls-10"/><rect width="25.12" height="2.86" x="210.98" y="273.8" class="cls-11"/><rect width="13.86" height="2.86" x="210.98" y="284.57" class="cls-10"/><rect width="19.84" height="2.86" x="244.05" y="187.31" class="cls-5"/><rect width="19.84" height="2.86" x="244.05" y="219.62" class="cls-11"/><rect width="8.48" height="2.86" x="234.13" y="230.4" class="cls-10"/><rect width="19.04" height="2.86" x="225.65" y="241.33" class="cls-5"/><rect width="26.28" height="2.86" x="247.57" y="241.33" class="cls-11"/><rect width="19.84" height="2.86" x="210.98" y="230.48" class="cls-11"/><rect width="11.77" height="2.86" x="210.98" y="241.33" class="cls-11"/><rect width="11.1" height="2.86" x="246.6" y="230.48" class="cls-12"/><rect width="11.1" height="2.86" x="211.32" y="295.35" class="cls-12"/><rect width="19.84" height="2.86" x="210.91" y="208.85" class="cls-5"/><rect width="19.84" height="2.86" x="228.45" y="263.03" class="cls-5"/><rect width="19.84" height="2.86" x="228.69" y="284.57" class="cls-5"/><rect width="19.84" height="2.86" x="263.93" y="284.57" class="cls-5"/><rect width="28.28" height="2.86" x="210.91" y="219.62" class="cls-5"/><rect width="19.84" height="2.86" x="343.41" y="187.31" class="cls-5"/><rect width="19.84" height="2.86" x="272.75" y="295.35" class="cls-5"/><rect width="13.28" height="2.86" x="369.42" y="187.31" class="cls-5"/><rect width="13.28" height="2.86" x="414.35" y="198.08" class="cls-5"/><rect width="25.27" height="2.86" x="269.22" y="187.31" class="cls-11"/><rect width="25.27" height="2.86" x="367.69" y="198.08" class="cls-11"/><rect width="25.27" height="2.86" x="336.7" y="208.85" class="cls-11"/><rect width="25.27" height="2.86" x="303.8" y="219.62" class="cls-11"/><rect width="17.97" height="2.86" x="365.15" y="208.85" class="cls-5"/><rect width="25.27" height="2.86" x="313.19" y="187.31" class="cls-12"/><rect width="14.82" height="2.86" x="284.35" y="219.62" class="cls-12"/><rect width="14.82" height="2.86" x="272.75" y="263.19" class="cls-12"/><rect width="9.25" height="2.86" x="299.17" y="187.31" class="cls-10"/><rect width="9.25" height="2.86" x="269.22" y="219.62" class="cls-10"/><rect width="9.25" height="2.86" x="399.06" y="198.08" class="cls-10"/><rect width="14.47" height="2.86" x="210.67" y="198.08" class="cls-11"/><rect width="11.43" height="2.86" x="249.28" y="252.26" class="cls-11"/><rect width="4.67" height="2.86" x="228.69" y="198.08" class="cls-11"/><rect width="38.62" height="2.86" x="324.63" y="198.08" class="cls-10"/><rect width="38.63" height="2.86" x="287.57" y="284.57" class="cls-10"/><rect width="4.77" height="2.86" x="236.8" y="198.08" class="cls-12"/><rect width="12.64" height="2.86" x="308.42" y="198.08" class="cls-11"/><rect width="12.64" height="2.86" x="321.06" y="208.85" class="cls-12"/><rect width="12.64" height="2.86" x="256.08" y="295.35" class="cls-12"/><rect width="26.89" height="2.86" x="278.19" y="198.08" class="cls-11"/><rect width="15.71" height="2.86" x="253.16" y="263.19" class="cls-11"/><rect width="7.86" height="2.86" x="252.15" y="284.57" class="cls-11"/><rect width="9.25" height="2.86" x="265.12" y="198.08" class="cls-5"/><rect width="9.25" height="2.86" x="233.99" y="208.85" class="cls-12"/><rect width="9.25" height="2.86" x="235.83" y="252.26" class="cls-12"/><rect width="16.12" height="2.86" x="245.48" y="198.08" class="cls-11"/><g class="cls-13"><rect width="124.91" height="89.06" x="360.58" y="223.2" class="cls-7" rx="4.01"/></g><rect width="23.21" height="6.19" x="450.34" y="269.04" class="cls-14" rx="1.54"/><rect width="23.21" height="6.19" x="450.34" y="280.62" class="cls-14" rx="1.54"/><rect width="23.21" height="6.19" x="450.34" y="292.21" class="cls-14" rx="1.54"/><path d="M439.12,255.23a34.48,34.48,0,1,0-64.93,23.23c.26.73.54,1.44.85,2.14a34.48,34.48,0,0,0,64.08-25.37Zm-23.76,36A25.85,25.85,0,0,1,387,283.6a26.15,26.15,0,0,1-4-6.44c-.23-.53-.44-1.06-.64-1.61a25.85,25.85,0,1,1,33.05,15.63Z" class="cls-14" transform="translate(0)"/><path d="M382,259.14l-8.24-2.57a34.53,34.53,0,0,1,31.88-24.2l.26,8.63A25.86,25.86,0,0,0,382,259.14Z" class="cls-15" transform="translate(0)"/><path d="M383,277.16,375,280.6c-.31-.7-.59-1.41-.85-2.14a34.38,34.38,0,0,1-.45-21.89l8.24,2.57a25.8,25.8,0,0,0,.33,16.41C382.51,276.1,382.72,276.63,383,277.16Z" class="cls-16" transform="translate(0)"/><path d="M380.38,289.19A34.38,34.38,0,0,1,375,280.6l7.91-3.44a26.15,26.15,0,0,0,4,6.44Z" class="cls-17" transform="translate(0)"/></svg>