<svg xmlns="http://www.w3.org/2000/svg" viewBox="0 0 1411.05 1102.55"><defs><style>.cls-1{isolation:isolate;}.cls-14,.cls-2{fill:#d1e7f5;}.cls-16,.cls-3{fill:#fff;}.cls-4{fill:#145566;}.cls-5{fill:#c8d6a1;}.cls-6{fill:#3ababa;}.cls-7{fill:#b5d6ca;}.cls-8{fill:#2e4661;opacity:0.07;}.cls-9{fill:#eac5b0;}.cls-10{fill:#ffd559;}.cls-11{fill:#9ea6ad;}.cls-12{fill:#272525;opacity:0.03;}.cls-13{fill:#bbbcbf;opacity:0.2;mix-blend-mode:multiply;}.cls-14{opacity:0.5;}.cls-15{opacity:0.22;}.cls-16{opacity:0.31;}.cls-17{fill:#edd0b3;}.cls-18{fill:#efefef;}.cls-19{fill:#59595b;}</style></defs><title>59914 [Converted]</title><g class="cls-1"><g id="background"><circle class="cls-2" cx="674.43" cy="532.55" r="532.55"/></g><g id="object"><path class="cls-3" d="M1092.39,1033.05H593.12V314.67h554.12V986.26C1147.24,1012.1,1122.68,1033.05,1092.39,1033.05Z" transform="translate(-182.07 -37.45)"/><rect class="cls-4" x="410.92" y="277.22" width="553.2" height="33.35"/><path class="cls-2" d="M1007.51,709.75c7.46,0,7.46-8.44,0-8.44H729.84c-7.46,0-7.46,8.44,0,8.44h277.67Z" transform="translate(-182.07 -37.45)"/><path class="cls-5" d="M857.53,371.15A146.91,146.91,0,0,0,746.22,422l111.31,96.45L968.84,422A146.89,146.89,0,0,0,857.53,371.15Z" transform="translate(-182.07 -37.45)"/><path class="cls-4" d="M1013.92,496.86l-145.78,21V665.11a147.22,147.22,0,0,0,145.78-168.25Z" transform="translate(-182.07 -37.45)"/><path class="cls-2" d="M746.38,422.48a147.28,147.28,0,0,0,34.68,219.9l77.94-125Z" transform="translate(-182.07 -37.45)"/><path class="cls-6" d="M858.79,664.9a146.59,146.59,0,0,1-79.62-23.4l79.64-123.89Z" transform="translate(-182.07 -37.45)"/><path class="cls-7" d="M1021.41,488.75a146.53,146.53,0,0,0-34.47-75.49L875.63,509.71Z" transform="translate(-182.07 -37.45)"/><rect class="cls-6" x="476.2" y="833" width="54.11" height="130.33"/><rect class="cls-7" x="476.2" y="782.54" width="54.11" height="61.24"/><rect class="cls-6" x="832.4" y="838.88" width="54.11" height="130.33"/><rect class="cls-7" x="832.4" y="728.89" width="54.46" height="120.77"/><rect class="cls-6" x="713.67" y="828.59" width="54.11" height="137.68"/><rect class="cls-7" x="713.67" y="816.34" width="54.11" height="91.38"/><rect class="cls-6" x="594.93" y="780.64" width="54.11" height="184.89"/><rect class="cls-7" x="594.93" y="709.04" width="54.11" height="147.89"/><path class="cls-3" d="M614.13,340.78a7.12,7.12,0,1,1,7.11-7.12A7.12,7.12,0,0,1,614.13,340.78Zm0-13a5.93,5.93,0,1,0,5.93,5.93A5.94,5.94,0,0,0,614.13,327.73Z" transform="translate(-182.07 -37.45)"/><path class="cls-3" d="M636.07,340.78a7.12,7.12,0,1,1,7.11-7.12A7.12,7.12,0,0,1,636.07,340.78Zm0-13a5.93,5.93,0,1,0,5.92,5.93A5.94,5.94,0,0,0,636.07,327.73Z" transform="translate(-182.07 -37.45)"/><path class="cls-3" d="M658,340.78a7.12,7.12,0,1,1,7.12-7.12A7.12,7.12,0,0,1,658,340.78Zm0-13a5.93,5.93,0,1,0,5.93,5.93A5.93,5.93,0,0,0,658,327.73Z" transform="translate(-182.07 -37.45)"/><path class="cls-8" d="M608,1054H254.83V508.47h386v512.7A32.81,32.81,0,0,1,608,1054Z" transform="translate(-182.07 -37.45)"/><path class="cls-5" d="M579.11,1038.71H211V467.2H626.9V990.92A47.79,47.79,0,0,1,579.11,1038.71Z" transform="translate(-182.07 -37.45)"/><rect class="cls-3" x="73.05" y="475.39" width="336.7" height="212.92"/><path class="cls-2" d="M468.41,586.67c1.4,2.82,3.81,5.23,8.39,6.94,8.53,3.18,20,.88,24.9-6.26,8.22-11.93,5.91-29,14.75-41.41A29,29,0,0,1,532,535a26.53,26.53,0,0,1,19.59,1.86c9.35,5.15,12.58,15.79,12.67,25.45.18,18.55-2.42,37.72-5.76,56-1.61,8.86-4.1,18-10.52,25-8.71,9.49-23,13.44-36.75,15.55-34.69,5.35-70.26,2.08-105.28-1.2l-84.51-7.92c-7.94-.75-31.32.45-36.07-5.05s-1-23.58,1.72-29.2c6-12.51,22.58-19.57,38.1-18.78,35,1.79,21.17-34.77,32.37-52.13,6-9.22,19.07-15.85,30.36-12,10.77,3.66,15.26,14.47,20.57,23.44,2.75,4.66,6.67,9.49,12.56,10.49,10,1.72,18.36-8.46,28.56-8.07,6,.23,11.17,4.3,13.77,9.07C466.89,574,465.65,581.11,468.41,586.67Z" transform="translate(-182.07 -37.45)"/><path class="cls-7" d="M569.81,714.19s.06-15.32.06-16.16q.12-34.31.11-68.61c0-21.85,1.83-43.69,1.47-65.49-.15-10.08-4.51-15.35-15.13-12.65a49.1,49.1,0,0,0-26.6,17.43c-4.45,5.8-8.16,13.06-15.09,15.4-12.39,4.17-22.52-9.78-33.65-16.64-12-7.4-28.65-6.15-39.4,2.94-13,11-16,30-27,43-12.1,14.29-34.07,19.13-51.05,11.24-7-3.24-13-8.29-19.85-11.74-27.27-13.67-65.18,6-69.7,36.17v62.41S570.36,714.74,569.81,714.19Z" transform="translate(-182.07 -37.45)"/><rect class="cls-9" x="78.55" y="720.76" width="25.31" height="25.31"/><rect class="cls-10" x="78.55" y="758.17" width="25.31" height="25.31"/><rect class="cls-3" x="124.76" y="728.46" width="73.72" height="7.7"/><rect class="cls-3" x="123.66" y="769.18" width="73.72" height="7.7"/><rect class="cls-3" x="81.85" y="826.63" width="321.3" height="8.32"/><rect class="cls-3" x="81.85" y="850.81" width="143.04" height="114.02"/><rect class="cls-3" x="246.9" y="851.91" width="156.25" height="49.65"/><rect class="cls-3" x="245.25" y="914.63" width="156.25" height="49.65"/><path class="cls-3" d="M446.78,231H183.9a1.92,1.92,0,0,0-1.83,2V372.27c0,34.34,25.54,62.17,57.05,62.17h109L392.69,497a2.12,2.12,0,0,0,3.85-1.2l.92-61.32h49.32a1.92,1.92,0,0,0,1.83-2V233A1.92,1.92,0,0,0,446.78,231Z" transform="translate(-182.07 -37.45)"/><rect class="cls-11" x="34.42" y="226.85" width="163.75" height="6.82"/><rect class="cls-11" x="34.42" y="278.87" width="195.3" height="6.82"/><rect class="cls-11" x="34.42" y="330.89" width="195.3" height="6.82"/><path class="cls-6" d="M617.81,296.31h-195V158.1H605.41l39.1,41.29v68.38C644.51,283.53,632.56,296.31,617.81,296.31Z" transform="translate(-182.07 -37.45)"/><polygon class="cls-10" points="462.29 162.28 423.04 163.26 423.04 120.65 462.29 162.28"/><rect class="cls-3" x="294.23" y="156.52" width="124.39" height="5.92"/><rect class="cls-3" x="274.53" y="185.15" width="144.09" height="5.92"/><rect class="cls-3" x="274.53" y="213.78" width="144.09" height="5.92"/><path class="cls-4" d="M1010.54,573a1.49,1.49,0,0,1-1.48-1.3c-.28-2-.46-4.08-.55-6.12a1.5,1.5,0,0,1,3-.12c.08,1.94.25,3.91.52,5.83a1.51,1.51,0,0,1-1.28,1.7Z" transform="translate(-182.07 -37.45)"/><path class="cls-4" d="M1010.69,555.05l-.23,0a1.5,1.5,0,0,1-1.26-1.71,71,71,0,0,1,2.89-11.85,1.5,1.5,0,0,1,2.85,1,66.92,66.92,0,0,0-2.77,11.34A1.49,1.49,0,0,1,1010.69,555.05Zm7.5-22.59a1.55,1.55,0,0,1-.69-.16,1.5,1.5,0,0,1-.64-2,92.62,92.62,0,0,1,6.27-10.4,1.5,1.5,0,0,1,2.46,1.7,93.13,93.13,0,0,0-6.07,10.07A1.48,1.48,0,0,1,1018.19,532.46Zm13.52-19.65a1.46,1.46,0,0,1-1-.37,1.5,1.5,0,0,1-.15-2.12c2.6-3,5.42-5.9,8.4-8.71a1.5,1.5,0,1,1,2.06,2.18c-2.91,2.74-5.67,5.6-8.2,8.5A1.49,1.49,0,0,1,1031.71,512.81Zm17.37-16.4a1.48,1.48,0,0,1-1.18-.58,1.5,1.5,0,0,1,.25-2.1c3.15-2.47,6.45-4.84,9.82-7.05a1.5,1.5,0,1,1,1.64,2.51c-3.3,2.16-6.53,4.48-9.61,6.9A1.51,1.51,0,0,1,1049.08,496.41Zm20-13.11a1.53,1.53,0,0,1-1.32-.78,1.5,1.5,0,0,1,.6-2c3.48-1.91,7.09-3.76,10.72-5.48a1.5,1.5,0,1,1,1.29,2.71c-3.58,1.7-7.14,3.51-10.57,5.4A1.46,1.46,0,0,1,1069.06,483.3ZM1090.65,473a1.5,1.5,0,0,1-.56-2.89c3.66-1.49,7.46-2.91,11.27-4.22a1.5,1.5,0,1,1,1,2.84c-3.77,1.29-7.51,2.69-11.12,4.16A1.44,1.44,0,0,1,1090.65,473Zm22.6-7.78a1.5,1.5,0,0,1-.41-2.94c3.79-1.09,7.7-2.12,11.63-3a1.5,1.5,0,1,1,.69,2.92c-3.88.91-7.75,1.92-11.5,3A1.4,1.4,0,0,1,1113.25,465.26ZM1304.5,461h-1.21a1.5,1.5,0,1,1,0-3h1.19c3.71,0,7.29-.13,10.63-.39a1.5,1.5,0,1,1,.23,3C1311.94,460.87,1308.29,461,1304.5,461Zm-13.15-.46h-.1c-3.57-.23-7.48-.56-12-1a1.5,1.5,0,1,1,.29-3c4.45.44,8.33.76,11.87,1a1.5,1.5,0,0,1-.1,3Zm-154.84-.8a1.5,1.5,0,0,1-.28-3c3.86-.73,7.85-1.4,11.85-2a1.5,1.5,0,0,1,.44,3c-4,.58-7.91,1.24-11.73,2A1.37,1.37,0,0,1,1136.51,459.75Zm190.58-.7a1.5,1.5,0,0,1-.28-3,83.63,83.63,0,0,0,11.34-3,1.5,1.5,0,1,1,1,2.83,84.93,84.93,0,0,1-11.75,3.13A1.43,1.43,0,0,1,1327.09,459.05Zm-59.55-.76h-.16l-3.56-.39q-4.15-.45-8.32-.85a1.5,1.5,0,0,1,.29-3c2.79.27,5.58.56,8.35.86l3.56.39a1.5,1.5,0,0,1-.16,3Zm-107.38-2a1.5,1.5,0,0,1-.16-3c3.9-.43,7.92-.79,12-1.08a1.5,1.5,0,1,1,.21,3c-4,.29-8,.65-11.85,1.07Zm83.58-.28h-.12c-4-.32-8-.6-11.9-.84a1.5,1.5,0,1,1,.18-3c3.9.23,7.92.52,12,.84a1.5,1.5,0,0,1-.12,3Zm-23.87-1.44h-.06c-4-.16-8-.27-11.92-.32a1.51,1.51,0,0,1-1.48-1.53,1.48,1.48,0,0,1,1.52-1.47c3.91.06,8,.16,12,.32a1.5,1.5,0,0,1-.05,3Zm-35.87,0a1.5,1.5,0,0,1-.06-3c3.92-.16,8-.27,12-.31a1.52,1.52,0,0,1,1.51,1.48,1.5,1.5,0,0,1-1.48,1.52c-4,0-8,.15-11.91.31Zm165.58-3.33a1.5,1.5,0,0,1-.71-2.82,76.25,76.25,0,0,0,9.85-6.35,1.5,1.5,0,0,1,1.81,2.39,78.77,78.77,0,0,1-10.24,6.6A1.5,1.5,0,0,1,1349.58,451.19Zm19-14.33a1.51,1.51,0,0,1-1.06-.44,1.49,1.49,0,0,1,0-2.12,103.28,103.28,0,0,0,7.82-8.8,1.5,1.5,0,1,1,2.35,1.86,106.12,106.12,0,0,1-8,9.06A1.51,1.51,0,0,1,1368.62,436.86Zm14.88-18.66a1.51,1.51,0,0,1-1.26-2.32c2.07-3.21,4.07-6.65,6-10.21a1.5,1.5,0,0,1,2.65,1.41c-1.93,3.63-4,7.14-6.09,10.43A1.52,1.52,0,0,1,1383.5,418.2Z" transform="translate(-182.07 -37.45)"/><path class="cls-4" d="M1394.77,397.05a1.41,1.41,0,0,1-.6-.13,1.5,1.5,0,0,1-.77-2c.79-1.78,1.56-3.62,2.31-5.48a1.5,1.5,0,0,1,2.78,1.12c-.76,1.89-1.55,3.76-2.35,5.58A1.48,1.48,0,0,1,1394.77,397.05Z" transform="translate(-182.07 -37.45)"/><path class="cls-6" d="M1468.9,277.48l-6.27,142.26-47-49.31s53.44-96.94,53.81-95.34l-2-1.71c1.58-.45-57.16,93.37-57.16,93.37l-65.93-17.08L1465.61,275Z" transform="translate(-182.07 -37.45)"/><rect class="cls-8" x="926.52" y="700.75" width="277.22" height="200.41"/><rect class="cls-3" x="936" y="689.12" width="279.11" height="201.01"/><rect class="cls-7" x="936" y="689.12" width="278.73" height="16"/><path class="cls-12" d="M1396.59,777.12v-.62h-34.26V742.88h-.62V776.5h-41.08V742.88H1320V776.5h-41.07V742.88h-.62V776.5h-41.07V742.88h-.62V776.5h-41.07V742.88h-.62V776.5h-41.07V742.88h-.62V776.5H1119v.62h34.21v38H1119v.62h34.21v38H1119v.62h34.21v38H1119v.62h34.21v35.35h.62V892.93h41.07v35.35h.62V892.93h41.07v35.35h.62V892.93h41.07v35.35h.62V892.93H1320v35.35h.62V892.93h41.08v35.35h.62V892.93h34.26v-.62h-34.26v-38h34.26v-.62h-34.26v-38h34.26v-.62h-34.26v-38Zm-76.58,0v38h-41.07v-38Zm-82.76,38.6h41.07v38h-41.07Zm-.62,38h-41.07v-38h41.07Zm42.31-38H1320v38h-41.07Zm-.62-38.6v38h-41.07v-38Zm-41.69,0v38h-41.07v-38Zm-82.76,0h41.07v38h-41.07Zm0,38.6h41.07v38h-41.07Zm0,76.59v-38h41.07v38Zm41.69,0v-38h41.07v38Zm41.69,0v-38h41.07v38Zm41.69,0v-38H1320v38Zm82.77,0h-41.08v-38h41.08Zm0-38.6h-41.08v-38h41.08Zm0-38.61h-41.08v-38h41.08Z" transform="translate(-182.07 -37.45)"/><path class="cls-10" d="M1367.14,768.34a8.51,8.51,0,0,0-6,14.58l-29.62,25.51-2.26,1.94a8.51,8.51,0,1,0-10,13.77q-3.25,7.82-6.49,15.62c-.92,2.22-1.85,4.44-2.77,6.67a8.14,8.14,0,0,0-1.92-.23,8.5,8.5,0,0,0-7.36,4.24l-28.62-18.09L1251,819a8.52,8.52,0,1,0-16.42-3.17,9,9,0,0,0,.18,1.74l-40.13,16.38-3.94,1.61a8.51,8.51,0,1,0-13.65,9.58l-6,6.76-28.45,32.3a8.55,8.55,0,1,0,2.21,2.18l24.29-27.58,10.54-12a8.51,8.51,0,0,0,11.72-7.89c0-.12,0-.23,0-.34l.58-.24,44-18a8.49,8.49,0,0,0,13.41,1.19l19.23,12.16,31.2,19.72a8.94,8.94,0,0,0-.1,1.27,8.52,8.52,0,1,0,13.27-7.06l9.27-22.33a8.18,8.18,0,0,0,1.79.2,8.51,8.51,0,0,0,7.35-12.81l5.24-4.51L1359,788.87l4.84-4.17a8.52,8.52,0,1,0,3.31-16.36Z" transform="translate(-182.07 -37.45)"/><polygon class="cls-3" points="1238.69 600.46 1205.29 653.95 1015.77 534.56 1049.17 481.06 1238.69 600.46"/><path class="cls-4" d="M1486.05,715.41l-.39.61c-10.53,16.88-29.34,24.15-42,16.25L1298.19,643l38.23-64.29,145.79,91.85C1494.86,678.44,1496.58,698.53,1486.05,715.41Z" transform="translate(-182.07 -37.45)"/><polygon class="cls-13" points="1029.03 542.54 1038.21 549.22 1121.25 527.66 1052.06 483.51 1029.03 542.54"/><path class="cls-6" d="M1172.52,292.24c-88.94-55.52-206-28.43-261.56,60.5s-28.44,206,60.49,261.57,206,28.43,261.57-60.5S1261.45,347.77,1172.52,292.24Zm38,247.52a163.31,163.31,0,1,1-52-225A163.31,163.31,0,0,1,1210.52,539.76Z" transform="translate(-182.07 -37.45)"/><circle class="cls-14" cx="1071.99" cy="453.27" r="163.31" transform="translate(-188.61 853.32) rotate(-45)"/><g class="cls-15"><path class="cls-3" d="M954.3,446.69c-.8-52.07,33-99.18,83.27-113.64s104.72,7.7,131.08,52.67c7.44,12.68,27.65,2.09,20.2-10.61A139.52,139.52,0,0,0,1039.67,309c-57.82,12.3-100.48,62-107.43,120.07a126.15,126.15,0,0,0-.75,16.94c.23,14.65,23,15.42,22.81.66Z" transform="translate(-182.07 -37.45)"/></g><circle class="cls-16" cx="1194.79" cy="420.78" r="15.03" transform="matrix(0.99, -0.13, 0.13, 0.99, -226.9, 122.72)"/><path class="cls-6" d="M1300.12,640.85l36.38-61.17a4.76,4.76,0,0,0-1.26-6.26l-.64-.48a4.76,4.76,0,0,0-6.95,1.44L1291.83,636a4.76,4.76,0,0,0,1.8,6.56l.09.05A4.76,4.76,0,0,0,1300.12,640.85Z" transform="translate(-182.07 -37.45)"/><path class="cls-3" d="M1231.29,454.44a161.7,161.7,0,0,1-139.84,160.19c-39.18,5.56-79.62-4.38-112.35-26.33C947.22,566.92,924,533.94,913.76,497a161.71,161.71,0,0,1,93.56-191.75c36.76-15.4,78.5-16.33,116.09-3.31,36.2,12.53,66.94,38.6,86.2,71.57a161.67,161.67,0,0,1,21.68,80.9c0,5.6,8.71,5.61,8.69,0a172.25,172.25,0,0,0-38.44-107.75c-24.12-29.83-58.67-50.69-96.09-58.77A170.36,170.36,0,0,0,906,501.59c10.49,36.92,33.93,69.22,65,91.6,31.9,23,71.75,33.8,110.89,31.1A171.15,171.15,0,0,0,1186,578.81c34.38-31.89,53.8-77.61,54-124.37C1240,448.84,1231.31,448.84,1231.29,454.44Z" transform="translate(-182.07 -37.45)"/><path class="cls-17" d="M1463.55,751.23c6.14-16.11,15-48,20.14-63.42-11.2-37.66-34.25-100.57-36.64-101.26-14-4-26.41-7.75-40.34-11.77-.64-.18-4.72,20.65-5.37,20.46s-.73-4.31-.89-9.07h0l-2.69-27.07a5.11,5.11,0,0,0-3.82-4.78c-8.16-2.12-25.78-6.25-26.54-5-.29.47-1.81,24-3.07,30.68l-2.94-1.53-3.84-43.86s-30.47-7.67-31.07-6.26c-.7,1.66-7.48,38.87-7.48,38.87s-11.79,88.79-13.13,95.11c-2,9.24-8.13,17.52-7.24,26.74,1,10.3,5.5,19.85,9.95,29.22l32.25,67.88c2.35,15.36,4.81,50.54,8.34,65.66,39.76-8,79.7-14.09,123.95-28.18C1474.37,823.27,1460.9,758.18,1463.55,751.23Z" transform="translate(-182.07 -37.45)"/><polygon class="cls-18" points="1156.17 872.21 1146.99 791.5 1305.96 732.64 1333.59 831.04 1156.72 883.85 1156.17 872.21"/><path class="cls-4" d="M1521.77,817.74S1358.27,911.18,1324.46,920l-9.34,220h278Z" transform="translate(-182.07 -37.45)"/><path class="cls-19" d="M1362.85,861.8a9.06,9.06,0,1,1-6.44-11.08A9.07,9.07,0,0,1,1362.85,861.8Z" transform="translate(-182.07 -37.45)"/><path class="cls-17" d="M1289.5,692l-21.2-33.44L1237.6,630s-6-17.23,13.27-17.7,32.18,15.6,40.7,28.36c3.74,5.62,21.84,22,35.88,32,18.38,13.07-.82,70.64-.82,70.64S1291.63,695.23,1289.5,692Z" transform="translate(-182.07 -37.45)"/></g></g></svg>