<svg xmlns="http://www.w3.org/2000/svg" viewBox="0 0 1523.4 835.15"><defs><style>.cls-1{isolation:isolate;}.cls-14,.cls-2{fill:#fff;}.cls-3{fill:#145566;}.cls-12,.cls-4{fill:#d1e7f5;}.cls-5{fill:#c8d6a1;}.cls-6{fill:#3ababa;}.cls-7{fill:#b5d6ca;}.cls-8{fill:#2e4661;opacity:0.07;}.cls-9{fill:#272525;opacity:0.03;}.cls-10{fill:#ffd559;}.cls-11{fill:#bbbcbf;opacity:0.2;mix-blend-mode:multiply;}.cls-12{opacity:0.5;}.cls-13{opacity:0.22;}.cls-14{opacity:0.31;}</style></defs><title>research_final</title><g class="cls-1"><g id="object"><path class="cls-2" d="M607,914.24H107.74V195.86H661.86V867.45C661.86,893.29,637.3,914.24,607,914.24Z" transform="translate(-107.61 -123.09)"/><rect class="cls-3" y="72.77" width="553.2" height="33.35"/><path class="cls-4" d="M522.13,590.94c7.46,0,7.46-8.44,0-8.44H244.46c-7.47,0-7.47,8.44,0,8.44H522.13Z" transform="translate(-107.61 -123.09)"/><path class="cls-5" d="M372.15,252.34a146.91,146.91,0,0,0-111.31,50.84l111.31,96.45,111.31-96.45A146.89,146.89,0,0,0,372.15,252.34Z" transform="translate(-107.61 -123.09)"/><path class="cls-3" d="M528.54,378.05,382.76,399V546.29A147.21,147.21,0,0,0,528.54,378.05Z" transform="translate(-107.61 -123.09)"/><path class="cls-4" d="M261,303.67a147.28,147.28,0,0,0,34.68,219.9l77.94-125Z" transform="translate(-107.61 -123.09)"/><path class="cls-6" d="M373.41,546.08a146.49,146.49,0,0,1-79.62-23.39L373.43,398.8Z" transform="translate(-107.61 -123.09)"/><path class="cls-7" d="M536,369.93a146.61,146.61,0,0,0-34.47-75.48L390.25,390.89Z" transform="translate(-107.61 -123.09)"/><rect class="cls-6" x="65.28" y="628.55" width="54.11" height="130.33"/><rect class="cls-7" x="65.28" y="578.08" width="54.11" height="61.24"/><rect class="cls-6" x="421.48" y="634.43" width="54.11" height="130.33"/><rect class="cls-7" x="421.48" y="524.43" width="54.46" height="120.77"/><rect class="cls-6" x="302.75" y="624.14" width="54.11" height="137.68"/><rect class="cls-7" x="302.75" y="611.89" width="54.11" height="91.38"/><rect class="cls-6" x="184.01" y="576.19" width="54.11" height="184.89"/><rect class="cls-7" x="184.01" y="504.59" width="54.11" height="147.89"/><path class="cls-2" d="M128.75,222a7.12,7.12,0,1,1,7.11-7.12A7.12,7.12,0,0,1,128.75,222Zm0-13.05a5.93,5.93,0,1,0,5.93,5.93A5.94,5.94,0,0,0,128.75,208.92Z" transform="translate(-107.61 -123.09)"/><path class="cls-2" d="M150.68,222a7.12,7.12,0,1,1,7.12-7.12A7.12,7.12,0,0,1,150.68,222Zm0-13.05a5.93,5.93,0,1,0,5.93,5.93A5.93,5.93,0,0,0,150.68,208.92Z" transform="translate(-107.61 -123.09)"/><path class="cls-2" d="M172.62,222a7.12,7.12,0,1,1,7.12-7.12A7.12,7.12,0,0,1,172.62,222Zm0-13.05a5.93,5.93,0,1,0,5.93,5.93A5.94,5.94,0,0,0,172.62,208.92Z" transform="translate(-107.61 -123.09)"/><rect class="cls-8" x="995.31" y="634.73" width="277.22" height="200.41"/><rect class="cls-2" x="1004.78" y="623.1" width="279.11" height="201.01"/><rect class="cls-7" x="1004.78" y="623.1" width="278.73" height="16"/><path class="cls-9" d="M1390.91,796.74v-.62h-34.26V762.5H1356v33.62H1315V762.5h-.62v33.62h-41.08V762.5h-.62v33.62h-41.07V762.5H1231v33.62h-41.07V762.5h-.62v33.62h-41.07V762.5h-.62v33.62h-34.21v.62h34.21v38h-34.21v.63h34.21v38h-34.21V874h34.21v38h-34.21v.62h34.21V947.9h.62V912.56h41.07V947.9h.62V912.56H1231V947.9h.62V912.56h41.07V947.9h.62V912.56h41.08V947.9h.62V912.56H1356V947.9h.62V912.56h34.26v-.62h-34.26V874h34.26v-.62h-34.26v-38h34.26v-.63h-34.26v-38Zm-76.57,0v38h-41.08v-38Zm-82.77,38.61h41.07v38h-41.07Zm-.62,38h-41.07v-38H1231Zm42.31-38h41.08v38h-41.08Zm-.62-38.61v38h-41.07v-38Zm-41.69,0v38h-41.07v-38Zm-82.76,0h41.07v38h-41.07Zm0,38.61h41.07v38h-41.07Zm0,76.59V874h41.07v38Zm41.69,0V874H1231v38Zm41.69,0V874h41.07v38Zm41.69,0V874h41.08v38Zm82.77,0H1315V874H1356Zm0-38.61H1315v-38H1356Zm0-38.61H1315v-38H1356Z" transform="translate(-107.61 -123.09)"/><path class="cls-10" d="M1361.46,788a8.52,8.52,0,0,0-6,14.58l-29.62,25.51-2.25,1.94a8.51,8.51,0,1,0-10,13.77l-6.49,15.63q-1.38,3.33-2.77,6.66a8.7,8.7,0,0,0-1.92-.23,8.51,8.51,0,0,0-7.36,4.24L1266.48,852l-21.21-13.4a8.32,8.32,0,0,0,.62-3.16,8.52,8.52,0,1,0-17,0,9.09,9.09,0,0,0,.17,1.74l-40.13,16.38-3.94,1.61a8.51,8.51,0,1,0-13.65,9.57q-3,3.39-6,6.77l-28.45,32.3a8.5,8.5,0,1,0,2.21,2.17l24.29-27.57,10.55-12a8.51,8.51,0,0,0,11.72-7.89c0-.11,0-.22,0-.34l.58-.23,44-18a8.5,8.5,0,0,0,13.4,1.19l19.24,12.15,31.2,19.73a7.5,7.5,0,0,0-.11,1.27,8.52,8.52,0,1,0,13.27-7.07l9.27-22.32a8.84,8.84,0,0,0,1.79.19,8.51,8.51,0,0,0,8.52-8.52,8.42,8.42,0,0,0-1.17-4.28l5.24-4.52,22.45-19.32,4.84-4.17a8.52,8.52,0,1,0,3.31-16.37Z" transform="translate(-107.61 -123.09)"/><polygon class="cls-2" points="1451.21 374.49 1417.81 427.99 1228.29 308.6 1261.69 255.1 1451.21 374.49"/><path class="cls-3" d="M1624.1,575.08l-.38.62c-10.54,16.87-29.34,24.15-42,16.25l-145.48-89.3,38.23-64.29,145.78,91.86C1632.92,538.12,1634.64,558.2,1624.1,575.08Z" transform="translate(-107.61 -123.09)"/><polygon class="cls-11" points="1241.55 316.57 1250.73 323.25 1333.77 301.7 1264.58 257.55 1241.55 316.57"/><path class="cls-6" d="M1310.58,151.92c-88.94-55.53-206-28.44-261.57,60.5s-28.43,206,60.5,261.56,206,28.44,261.57-60.5S1399.51,207.44,1310.58,151.92Zm38,247.51a163.31,163.31,0,1,1-52-225A163.31,163.31,0,0,1,1348.57,399.43Z" transform="translate(-107.61 -123.09)"/><circle class="cls-12" cx="1210.04" cy="312.95" r="163.31" transform="translate(25.52 824.2) rotate(-45)"/><g class="cls-13"><path class="cls-2" d="M1092.36,306.37c-.81-52.07,33-99.19,83.27-113.64s104.72,7.69,131.08,52.67c7.43,12.67,27.64,2.08,20.2-10.62a139.54,139.54,0,0,0-149.18-66.09c-57.82,12.31-100.48,62-107.43,120.08a126,126,0,0,0-.75,16.93c.23,14.66,23,15.43,22.81.67Z" transform="translate(-107.61 -123.09)"/></g><circle class="cls-14" cx="1332.85" cy="280.46" r="15.03" transform="matrix(0.99, -0.13, 0.13, 0.99, -132.87, 53.95)"/><path class="cls-6" d="M1438.18,500.52l36.37-61.17a4.76,4.76,0,0,0-1.26-6.26l-.63-.47a4.77,4.77,0,0,0-7,1.43l-35.81,61.6a4.77,4.77,0,0,0,1.8,6.56l.08,0A4.76,4.76,0,0,0,1438.18,500.52Z" transform="translate(-107.61 -123.09)"/><path class="cls-2" d="M1369.35,314.12A161.7,161.7,0,0,1,1229.5,474.31c-39.17,5.55-79.61-4.39-112.34-26.34-31.88-21.38-55.15-54.36-65.35-91.27A161.71,161.71,0,0,1,1145.37,165c36.77-15.4,78.5-16.32,116.1-3.31,36.19,12.54,66.94,38.6,86.2,71.57a161.71,161.71,0,0,1,21.68,80.91c0,5.6,8.71,5.6,8.69,0a172.16,172.16,0,0,0-38.45-107.75c-24.11-29.84-58.66-50.7-96.09-58.78a170.35,170.35,0,0,0-199.43,213.67c10.48,36.92,33.93,69.22,65,91.61,31.89,23,71.75,33.79,110.88,31.1a171.19,171.19,0,0,0,104.16-45.49c34.38-31.89,53.8-77.61,54-124.36C1378.06,308.51,1369.37,308.51,1369.35,314.12Z" transform="translate(-107.61 -123.09)"/></g></g></svg>