<svg id="Layer_1" data-name="Layer 1" xmlns="http://www.w3.org/2000/svg" viewBox="0 0 368.28 327.42"><defs><style>.cls-1{fill:#6c108a;}</style></defs><title>110_-_1_-_Megaphone [Converted]</title><path class="cls-1" d="M101.66,192.71c82,8.82,139.44-34.14,206.61-84.39,9.68-7.25,19.57-14.64,29.17-21.64l5-3.65V410.45l-5-3.66c-9.6-7-19.49-14.38-29.17-21.63C241.1,334.91,183.65,292,101.66,300.77v-6.72c83.91-8.87,142.19,34.72,210.3,85.67,7.78,5.81,15.68,11.73,24.11,17.91V95.85C327.64,102,319.74,108,312,113.76c-68.11,51-126.39,94.54-210.3,85.67Z" transform="translate(-62.12 -83.03)"/><path class="cls-1" d="M95.1,196.44H79.18V297.07H95.1V196.44Zm-19.2-6.69h25.76v114h-29v-114Z" transform="translate(-62.12 -83.03)"/><path class="cls-1" d="M144.93,294.12V397.31h-22.6V293.07l22.6,1.05Zm-6.55,5.49h-9.49v91h9.49Z" transform="translate(-62.12 -83.03)"/><path class="cls-1" d="M378.45,243a3.84,3.84,0,1,0,0,7.68h48.11a3.84,3.84,0,0,0,0-7.68Z" transform="translate(-62.12 -83.03)"/><path class="cls-1" d="M369.38,197.74a3.83,3.83,0,1,0,2,7.41l46.47-12.46a3.83,3.83,0,1,0-2-7.41Z" transform="translate(-62.12 -83.03)"/><path class="cls-1" d="M353.82,161.56a3.83,3.83,0,0,0,3.84,6.63l41.67-24.05a3.83,3.83,0,0,0-3.84-6.63Z" transform="translate(-62.12 -83.03)"/><path class="cls-1" d="M371.36,288.47a3.83,3.83,0,1,0-2,7.41l46.47,12.45a3.83,3.83,0,1,0,2-7.4Z" transform="translate(-62.12 -83.03)"/><path class="cls-1" d="M357.66,325.43a3.83,3.83,0,0,0-3.84,6.63l41.67,24.05a3.83,3.83,0,0,0,3.84-6.63Z" transform="translate(-62.12 -83.03)"/><polygon class="cls-1" points="3.73 116.86 10.51 116.86 10.51 124.32 7.46 124.32 7.46 203.13 10.51 203.13 10.51 210.59 3.73 210.59 0 210.59 0 206.86 0 120.59 0 116.86 3.73 116.86"/></svg>