<?xml version="1.0" encoding="utf-8"?>
<svg id="master-artboard" viewBox="0 0 1500 1500" version="1.1" xmlns="http://www.w3.org/2000/svg" x="0px" y="0px" style="enable-background:new 0 0 1500 1500;" width="1500px" height="1500px">


<g id="XMLID_287_" transform="matrix(1, 0, 0, 1, 13.33481724117135, 36.08244665258127)">
	<g id="XMLID_223_">
		<path id="XMLID_398_" class="st1" d="M667.7,584.2c0,0-13.3-38.7-54-36s-63.3,43.3-86,44.7c-22.7,1.3-82.7,20.7-60.7,91.3&#10;&#9;&#9;&#9;c0,0-52,7.3-56.7,64c0,0-32.7,14-40,58.3c-7.3,44.3,18.7,78,18.7,78s-22.7,44.3-5.3,85.7c17.3,41.3,45.3,34,45.3,34&#10;&#9;&#9;&#9;s-28,64,48.7,86.7c0,0,6,78,60,94s130-14,130-74.7C667.7,1049.6,667.7,584.2,667.7,584.2z" style="fill: rgb(122, 200, 157); fill-opacity: 0;"/>
	</g>
	<g id="XMLID_195_">
		<path id="XMLID_359_" class="st2" d="M667.7,584.2c0,0,13.3-38.7,54-36s63.3,43.3,86,44.7c22.7,1.3,82.7,20.7,60.7,91.3&#10;&#9;&#9;&#9;c0,0,52,7.3,56.7,64c0,0,32.7,14,40,58.3c7.3,44.3-18.7,78-18.7,78s22.7,44.3,5.3,85.7s-45.3,34-45.3,34s28,64-48.7,86.7&#10;&#9;&#9;&#9;c0,0-6,78-60,94s-130-14-130-74.7C667.7,1049.6,667.7,584.2,667.7,584.2z" style="fill: rgb(242, 99, 101); fill-opacity: 0;"/>
	</g>
	<g id="XMLID_189_">
		<path id="XMLID_392_" class="st3" d="M568.3,1197.7c-11.3,0-22.5-1.5-33-4.6c-50.5-15-62.8-76.3-65.4-95.7&#10;&#9;&#9;&#9;c-23.9-8.1-40.1-21.2-48.4-38.9c-8-17.1-6.4-34.5-3.9-45.7c-12-1.9-29.5-10.1-41.7-39.2c-15.4-36.8-2.2-75,3.4-88.1&#10;&#9;&#9;&#9;c-7.1-11-23.7-41.8-17.3-80.2c6.4-38.5,30.2-56.4,40.4-62.3c3.9-29.7,20.1-46.2,33.4-55c7.6-5,15.1-8,20.8-9.8&#10;&#9;&#9;&#9;c-5.6-23.8-2.8-44.2,8.6-60.7c16.7-24.1,46.9-32.1,62-33c7-0.4,16.1-7.7,25.7-15.4c15.3-12.3,34.3-27.5,60.2-29.2&#10;&#9;&#9;&#9;c37.3-2.4,57.2,26.2,62.6,41.7c0.3,0.9,0.5,1.8,0.5,2.8v526c0,25-11.9,47.7-33.6,63.9C622.2,1189.4,594.9,1197.7,568.3,1197.7z&#10;&#9;&#9;&#9; M429.3,995.7c2.4,0,4.6,1,6.3,2.9c2.2,2.5,2.6,6,1.3,9.1c-0.1,0.2-9.6,22.9,0.1,43.7c6.7,14.4,21.3,24.9,43.2,31.4&#10;&#9;&#9;&#9;c3.4,1,5.8,4,6.1,7.5c0.1,0.7,6.3,72.4,53.9,86.5c30.2,8.9,67.3,2.4,92.3-16.2c12.2-9.1,26.8-25.3,26.8-50.3V585.8&#10;&#9;&#9;&#9;c-2.5-6-14.8-31.1-44.9-29.1c-20.6,1.3-36.6,14.2-50.7,25.5c-11.8,9.5-23,18.4-35.4,19.2c-11.3,0.7-36.1,6.9-49.1,25.7&#10;&#9;&#9;&#9;c-9.6,13.9-11,32.3-4,54.6c0.7,2.4,0.4,5-0.9,7.1c-1.3,2.1-3.5,3.5-6,3.9c-1.8,0.3-45.3,7.3-49.4,56.3c-0.3,3.1-2.2,5.9-5.1,7.1&#10;&#9;&#9;&#9;c-1.1,0.5-28.5,13.1-35,51.9c-6.6,39.9,16.8,71.1,17,71.4c2,2.6,2.3,6.1,0.8,9c-0.2,0.4-20.6,41.4-5.1,78.5&#10;&#9;&#9;&#9;c13.8,32.8,33.8,29.4,35.4,29C427.7,995.8,428.5,995.7,429.3,995.7z" style="fill: rgb(108, 16, 138); fill-opacity: 1;"/>
	</g>
	<g id="XMLID_190_">
		<path id="XMLID_391_" class="st3" d="M429,1012.7c-1.1,0-2.2-0.2-3.2-0.6c-4.3-1.8-6.4-6.7-4.7-11.1c0.3-0.8,8.6-20.7,31.3-35.3&#10;&#9;&#9;&#9;c3.9-2.5,9.2-1.4,11.8,2.5c2.5,3.9,1.4,9.2-2.5,11.8c-17.9,11.6-24.7,27.2-24.7,27.4C435.6,1010.7,432.4,1012.7,429,1012.7z" style="fill: rgb(108, 16, 138); fill-opacity: 1;"/>
	</g>
	<g id="XMLID_191_">
		<path id="XMLID_390_" class="st3" d="M439.4,921.7c-5.2,0-10.3-0.6-15.3-1.8c-28.3-6.7-41.9-30.2-42.5-31.2&#10;&#9;&#9;&#9;c-2.3-4.1-0.9-9.3,3.2-11.6c4.1-2.3,9.2-0.9,11.6,3.2c0.2,0.3,10.9,18.3,31.8,23.1c16.6,3.8,35.4-1.2,56.1-15&#10;&#9;&#9;&#9;c3.9-2.6,9.2-1.5,11.8,2.4c2.6,3.9,1.5,9.2-2.4,11.8C474.7,915.3,456.5,921.7,439.4,921.7z" style="fill: rgb(108, 16, 138); fill-opacity: 1;"/>
	</g>
	<g id="XMLID_192_">
		<path id="XMLID_389_" class="st3" d="M513.4,954.1c-0.4,0-0.8,0-1.1-0.1c-36.5-4.9-49.4-32.7-51.2-46.7c-0.6-4.7,2.7-8.9,7.4-9.5&#10;&#9;&#9;&#9;c4.6-0.6,8.9,2.7,9.5,7.3c0.2,1.2,4.3,27.7,36.6,32c4.7,0.6,7.9,4.9,7.3,9.6C521.2,951,517.6,954.1,513.4,954.1z" style="fill: rgb(108, 16, 138); fill-opacity: 1;"/>
	</g>
	<g id="XMLID_193_">
		<path id="XMLID_388_" class="st3" d="M489,1100.1c-7.2,0-12-0.7-12.6-0.8c-4.6-0.7-7.9-5-7.2-9.6c0.7-4.6,5-7.9,9.6-7.2l0,0&#10;&#9;&#9;&#9;c0.3,0,30.2,4.1,49.2-10.2c8.5-6.4,13.5-15.4,15.2-27.6c0.7-4.6,5-7.9,9.6-7.2c4.6,0.7,7.9,4.9,7.2,9.6&#10;&#9;&#9;&#9;c-2.3,16.6-9.7,29.7-21.9,38.9C522.3,1097.9,502,1100.1,489,1100.1z" style="fill: rgb(108, 16, 138); fill-opacity: 1;"/>
	</g>
	<g id="XMLID_194_">
		<path id="XMLID_387_" class="st3" d="M557,1134.7c-1.3,0-2.7-0.3-3.9-1c-31.3-16.5-28.2-54.1-28.1-55.7c0.4-4.7,4.6-8.1,9.3-7.7&#10;&#9;&#9;&#9;c4.7,0.4,8.1,4.6,7.7,9.2c-0.1,1.2-2.1,28,19,39.1c4.2,2.2,5.8,7.3,3.6,11.5C563,1133.1,560.1,1134.7,557,1134.7z" style="fill: rgb(108, 16, 138); fill-opacity: 1;"/>
	</g>
	<g id="XMLID_188_">
		<path id="XMLID_386_" class="st3" d="M612.4,981.4c-1.4,0-2.8-0.3-4.1-1.1c-0.5-0.3-12-6.7-20.5-19.9&#10;&#9;&#9;&#9;c-7.9-12.3-14.7-32.9-2.6-61.5c18.5-43.5-9.2-78.3-9.4-78.7c-3-3.6-2.4-9,1.3-12c3.6-3,9-2.4,12,1.3c1.4,1.7,34.3,43.2,11.9,96&#10;&#9;&#9;&#9;c-7.4,17.4-7,32.8,1.3,45.7c6.1,9.5,14.3,14.2,14.4,14.2c4.1,2.3,5.6,7.4,3.4,11.5C618.3,979.8,615.4,981.4,612.4,981.4z" style="fill: rgb(108, 16, 138); fill-opacity: 1;"/>
	</g>
	<g id="XMLID_196_">
		<path id="XMLID_385_" class="st3" d="M598,895.7c-2.8,0-5.6-1.4-7.2-3.9c-0.7-1.1-15.8-23.5-48.3-12.1c-4.4,1.5-9.3-0.8-10.8-5.2&#10;&#9;&#9;&#9;c-1.5-4.4,0.8-9.3,5.2-10.8c36.6-12.8,60.6,6.9,68.3,19.1c2.5,4,1.3,9.2-2.7,11.7C601.1,895.2,599.5,895.7,598,895.7z" style="fill: rgb(108, 16, 138); fill-opacity: 1;"/>
	</g>
	<g id="XMLID_197_">
		<path id="XMLID_384_" class="st3" d="M460.4,810.1c-18.2,0-32.6-5.5-42.8-16.5c-17.2-18.3-15.7-44.8-15.7-45.9&#10;&#9;&#9;&#9;c0.3-4.7,4.3-8.2,9-8c4.7,0.3,8.2,4.3,8,9c0,0.3-1,20.5,11.1,33.3c6.9,7.3,17.1,11,30.4,11c4.7,0,8.5,3.8,8.5,8.5&#10;&#9;&#9;&#9;C468.9,806.3,465.1,810.1,460.4,810.1z" style="fill: rgb(108, 16, 138); fill-opacity: 1;"/>
	</g>
	<g id="XMLID_198_">
		<path id="XMLID_383_" class="st3" d="M528.4,756.7c-0.2,0-0.5,0-0.7,0c-4.7-0.4-8.2-4.5-7.8-9.2c1.4-16.9-2.4-30.1-11.1-39.2&#10;&#9;&#9;&#9;c-15.4-16.2-41.3-15.6-41.5-15.6c-4.7,0.1-8.6-3.5-8.8-8.2c-0.1-4.7,3.5-8.6,8.2-8.8c1.4,0,33.8-0.8,54.3,20.9&#10;&#9;&#9;&#9;c12.2,12.8,17.5,30.4,15.7,52.3C536.5,753.4,532.8,756.7,528.4,756.7z" style="fill: rgb(108, 16, 138); fill-opacity: 1;"/>
	</g>
	<g id="XMLID_199_">
		<path id="XMLID_382_" class="st3" d="M553.8,739.9c-14.3,0-26.7-3.9-27.8-4.3c-4.5-1.5-6.9-6.2-5.5-10.7c1.4-4.5,6.2-6.9,10.7-5.5&#10;&#9;&#9;&#9;l0,0c0.4,0.1,36.7,11.2,47-7.4c2.3-4.1,7.4-5.6,11.6-3.3c4.1,2.3,5.6,7.4,3.3,11.6C584.5,735.9,568.2,739.9,553.8,739.9z" style="fill: rgb(108, 16, 138); fill-opacity: 1;"/>
	</g>
	<g id="XMLID_200_">
		<path id="XMLID_381_" class="st3" d="M604.4,647.4c-3.6,0-6.9-2.3-8.1-5.8c-14.4-43.8-67.4-40.2-67.9-40.2&#10;&#9;&#9;&#9;c-4.7,0.4-8.8-3.1-9.1-7.8c-0.4-4.7,3.1-8.8,7.8-9.1c0.7-0.1,16.8-1.2,35.2,4.3c25.1,7.6,42.5,24,50.2,47.5&#10;&#9;&#9;&#9;c1.5,4.5-1,9.3-5.4,10.7C606.2,647.3,605.3,647.4,604.4,647.4z" style="fill: rgb(108, 16, 138); fill-opacity: 1;"/>
	</g>
	<g id="XMLID_204_">
		<path id="XMLID_380_" class="st3" d="M664.4,789.5c-27,0-39.8-19-42.8-29.6c-1.3-4.5,1.3-9.2,5.8-10.5c4.5-1.3,9.2,1.3,10.5,5.7&#10;&#9;&#9;&#9;c0.6,2,6.5,18.8,29.3,17.3c4.7-0.3,8.7,3.2,9,7.9c0.3,4.7-3.2,8.7-7.9,9C666.9,789.5,665.6,789.5,664.4,789.5z" style="fill: rgb(108, 16, 138); fill-opacity: 1;"/>
	</g>
	<g id="XMLID_203_">
		<path id="XMLID_379_" class="st3" d="M666.7,1130.4c-4.7,0-8.5-3.8-8.5-8.5c0-39.6-20.3-44.6-21.2-44.8l0.2,0l3.1-16.7&#10;&#9;&#9;&#9;c1.4,0.3,35,7.1,35,61.5C675.2,1126.6,671.4,1130.4,666.7,1130.4z" style="fill: rgb(108, 16, 138); fill-opacity: 1;"/>
	</g>
	<g id="XMLID_205_">
		<path id="XMLID_378_" class="st3" d="M667.7,655.4c-4.7,0-8.5-3.8-8.5-8.5c0-25.5-19.1-29.2-21.3-29.6c-4.6-0.7-7.9-4.9-7.2-9.6&#10;&#9;&#9;&#9;c0.7-4.6,5-7.9,9.6-7.2c12.4,1.7,35.8,13.7,35.8,46.4C676.2,651.6,672.4,655.4,667.7,655.4z" style="fill: rgb(108, 16, 138); fill-opacity: 1;"/>
	</g>
	<g id="XMLID_222_">
		<path id="XMLID_375_" class="st3" d="M767.1,1197.7c-26.6,0-53.9-8.3-74.3-23.5c-21.7-16.2-33.6-38.9-33.6-63.9v-526&#10;&#9;&#9;&#9;c0-0.9,0.2-1.9,0.5-2.8c5.3-15.5,25.3-44.2,62.6-41.7c25.9,1.7,44.9,17,60.2,29.2c9.6,7.7,18.7,15,25.7,15.4&#10;&#9;&#9;&#9;c15.2,0.9,45.3,8.8,62,33c11.4,16.5,14.3,36.8,8.6,60.7c5.6,1.8,13.1,4.8,20.8,9.8c13.3,8.7,29.5,25.2,33.4,55&#10;&#9;&#9;&#9;c10.2,6,34,23.8,40.4,62.3c6.4,38.5-10.2,69.2-17.3,80.2c5.6,13.1,18.9,51.3,3.4,88.1c-12.2,29.1-29.7,37.3-41.7,39.2&#10;&#9;&#9;&#9;c2.5,11.1,4,28.5-3.9,45.6c-8.3,17.7-24.5,30.8-48.4,38.9c-2.6,19.4-14.9,80.8-65.4,95.7C789.6,1196.2,778.5,1197.7,767.1,1197.7z&#10;&#9;&#9;&#9; M676.2,585.8v524.4c0,25,14.6,41.2,26.8,50.3c25,18.7,62.1,25.2,92.3,16.2c47.8-14.2,53.9-85.8,53.9-86.5&#10;&#9;&#9;&#9;c0.3-3.5,2.7-6.5,6.1-7.5c22-6.5,36.5-17.1,43.2-31.5c9.8-21,0.2-43.4,0.1-43.6c-1.3-3-0.9-6.6,1.3-9.1c2.2-2.5,5.4-3.5,8.6-2.6&#10;&#9;&#9;&#9;c1.6,0.3,21.6,3.8,35.4-29c15.5-37.1-4.9-78.1-5.1-78.5c-1.5-2.9-1.2-6.5,0.8-9.1c0.2-0.3,23.6-31.5,17-71.4&#10;&#9;&#9;&#9;c-6.5-39.3-34.7-51.8-35-51.9c-2.9-1.2-4.9-4-5.1-7.1c-4-49-47.6-56-49.4-56.3c-2.5-0.4-4.6-1.8-6-3.9c-1.3-2.1-1.7-4.7-0.9-7&#10;&#9;&#9;&#9;c7-22.4,5.6-40.7-4-54.6c-13-18.8-37.8-25-49.1-25.7c-12.4-0.7-23.6-9.7-35.4-19.2c-14.1-11.3-30.1-24.2-50.7-25.5&#10;&#9;&#9;&#9;C691.1,554.7,678.7,580,676.2,585.8z" style="fill: rgb(108, 16, 138); fill-opacity: 1;"/>
	</g>
	<g id="XMLID_221_">
		<path id="XMLID_374_" class="st3" d="M906.4,1012.7c-3.3,0-6.5-2-7.9-5.3c-0.1-0.3-6.9-15.9-24.8-27.4c-3.9-2.5-5.1-7.8-2.5-11.8&#10;&#9;&#9;&#9;c2.5-3.9,7.8-5.1,11.8-2.5c22.7,14.6,30.9,34.4,31.3,35.3c1.8,4.3-0.3,9.3-4.7,11.1C908.5,1012.5,907.4,1012.7,906.4,1012.7z" style="fill: rgb(108, 16, 138); fill-opacity: 1;"/>
	</g>
	<g id="XMLID_220_">
		<path id="XMLID_373_" class="st3" d="M896,921.7c-17.1,0-35.3-6.4-54.4-19.1c-3.9-2.6-5-7.9-2.4-11.8c2.6-3.9,7.9-5,11.8-2.4&#10;&#9;&#9;&#9;c20.8,13.8,39.7,18.9,56.3,14.9c21.1-5,31.5-22.9,31.6-23c2.3-4.1,7.5-5.5,11.6-3.2c4.1,2.3,5.5,7.5,3.2,11.6&#10;&#9;&#9;&#9;c-0.6,1-14.2,24.5-42.5,31.2C906.3,921.1,901.2,921.7,896,921.7z" style="fill: rgb(108, 16, 138); fill-opacity: 1;"/>
	</g>
	<g id="XMLID_219_">
		<path id="XMLID_372_" class="st3" d="M822,954.1c-4.2,0-7.8-3.1-8.4-7.4c-0.6-4.7,2.6-8.9,7.3-9.6c32.8-4.4,36.5-31.7,36.6-32&#10;&#9;&#9;&#9;c0.6-4.7,4.8-8,9.5-7.4c4.7,0.6,8,4.8,7.4,9.5c-1.7,14-14.7,41.8-51.2,46.7C822.8,954,822.4,954.1,822,954.1z" style="fill: rgb(108, 16, 138); fill-opacity: 1;"/>
	</g>
	<g id="XMLID_218_">
		<path id="XMLID_371_" class="st3" d="M846.4,1100.1c-12.9,0-33.3-2.2-49.2-14.1c-12.2-9.1-19.6-22.2-21.9-38.9&#10;&#9;&#9;&#9;c-0.7-4.6,2.6-8.9,7.2-9.6c4.6-0.6,8.9,2.6,9.6,7.2c1.7,12.2,6.7,21.2,15.3,27.6c19.1,14.3,48.8,10.2,49.1,10.1&#10;&#9;&#9;&#9;c4.6-0.7,9,2.5,9.6,7.2c0.7,4.6-2.5,9-7.2,9.6C858.4,1099.4,853.5,1100.1,846.4,1100.1z" style="fill: rgb(108, 16, 138); fill-opacity: 1;"/>
	</g>
	<g id="XMLID_217_">
		<path id="XMLID_370_" class="st3" d="M778.4,1134.7c-3.1,0-6-1.7-7.5-4.6c-2.2-4.2-0.6-9.3,3.6-11.5c21.4-11.2,19.1-38.8,19-39.1&#10;&#9;&#9;&#9;c-0.4-4.7,3-8.8,7.7-9.3c4.7-0.4,8.8,3,9.3,7.7c0.1,1.6,3.3,39.2-28.1,55.7C781.1,1134.4,779.7,1134.7,778.4,1134.7z" style="fill: rgb(108, 16, 138); fill-opacity: 1;"/>
	</g>
	<g id="XMLID_216_">
		<path id="XMLID_369_" class="st3" d="M723.1,981.4c-3,0-5.9-1.6-7.5-4.4c-2.3-4.1-0.8-9.3,3.4-11.5c0,0,8.6-4.9,14.7-14.8&#10;&#9;&#9;&#9;c7.9-12.8,8.2-27.9,0.9-45.1c-22.4-52.8,10.5-94.3,11.9-96c3-3.6,8.3-4.2,12-1.3c3.6,2.9,4.2,8.3,1.3,11.9l0,0&#10;&#9;&#9;&#9;c-1.1,1.4-27.8,35.5-9.5,78.7c12.1,28.6,5.3,49.2-2.6,61.5c-8.5,13.3-20,19.7-20.5,19.9C725.8,981.1,724.4,981.4,723.1,981.4z" style="fill: rgb(108, 16, 138); fill-opacity: 1;"/>
	</g>
	<g id="XMLID_215_">
		<path id="XMLID_368_" class="st3" d="M737.5,895.7c-1.5,0-3.1-0.4-4.5-1.3c-4-2.5-5.2-7.7-2.7-11.7c7.6-12.2,31.7-31.9,68.3-19.1&#10;&#9;&#9;&#9;c4.4,1.5,6.8,6.4,5.2,10.8c-1.5,4.4-6.4,6.8-10.8,5.2c-33-11.5-48.1,11.8-48.2,12.1C743.1,894.2,740.3,895.7,737.5,895.7z" style="fill: rgb(108, 16, 138); fill-opacity: 1;"/>
	</g>
	<g id="XMLID_214_">
		<path id="XMLID_367_" class="st3" d="M875,810.1c-4.7,0-8.5-3.8-8.5-8.5c0-4.7,3.8-8.5,8.5-8.5c13.3,0,23.5-3.7,30.4-11.1&#10;&#9;&#9;&#9;c12-12.8,11.1-33,11.1-33.2c-0.3-4.7,3.3-8.7,8-9c4.7-0.3,8.7,3.3,9,8c0.1,1.1,1.5,27.6-15.7,45.9&#10;&#9;&#9;&#9;C907.6,804.5,893.2,810.1,875,810.1z" style="fill: rgb(108, 16, 138); fill-opacity: 1;"/>
	</g>
	<g id="XMLID_213_">
		<path id="XMLID_366_" class="st3" d="M807,756.7c-4.4,0-8.1-3.4-8.5-7.8c-1.8-21.9,3.5-39.5,15.7-52.3&#10;&#9;&#9;&#9;c20.5-21.6,53-20.9,54.3-20.9c4.7,0.1,8.4,4.1,8.2,8.8c-0.1,4.7-4.1,8.4-8.7,8.2c-0.3,0-26.4-0.4-41.6,15.6&#10;&#9;&#9;&#9;c-8.7,9.2-12.4,22.3-11,39.2c0.4,4.7-3.1,8.8-7.8,9.2C807.5,756.7,807.3,756.7,807,756.7z" style="fill: rgb(108, 16, 138); fill-opacity: 1;"/>
	</g>
	<g id="XMLID_212_">
		<path id="XMLID_365_" class="st3" d="M781.6,739.9c-14.4,0-30.7-4-39.3-19.6c-2.3-4.1-0.8-9.3,3.3-11.6c4.1-2.3,9.3-0.8,11.6,3.3&#10;&#9;&#9;&#9;c10.3,18.6,46.6,7.5,47,7.4c4.5-1.4,9.3,1,10.7,5.5c1.4,4.5-1,9.2-5.5,10.7C808.4,736,795.9,739.9,781.6,739.9z" style="fill: rgb(108, 16, 138); fill-opacity: 1;"/>
	</g>
	<g id="XMLID_211_">
		<path id="XMLID_364_" class="st3" d="M731,647.4c-0.9,0-1.8-0.1-2.7-0.4c-4.5-1.5-6.9-6.3-5.4-10.7c7.7-23.5,25.1-39.9,50.2-47.5&#10;&#9;&#9;&#9;c18.4-5.6,34.5-4.4,35.2-4.3c4.7,0.4,8.2,4.5,7.8,9.1c-0.4,4.7-4.4,8.2-9.1,7.8l0,0c-0.1,0-14.1-1-29.5,3.8&#10;&#9;&#9;&#9;c-19.6,6.1-32.5,18.3-38.5,36.4C737.9,645.1,734.6,647.4,731,647.4z" style="fill: rgb(108, 16, 138); fill-opacity: 1;"/>
	</g>
	<g id="XMLID_209_">
		<path id="XMLID_363_" class="st3" d="M848.7,810.1h-17.5c-4.7,0-8.5-3.8-8.5-8.5c0-4.7,3.8-8.5,8.5-8.5h17.5&#10;&#9;&#9;&#9;c4.7,0,8.5,3.8,8.5,8.5C857.2,806.3,853.4,810.1,848.7,810.1z" style="fill: rgb(108, 16, 138); fill-opacity: 1;"/>
	</g>
	<g id="XMLID_208_">
		<path id="XMLID_362_" class="st3" d="M667.7,835.2c-0.8,0-1.6-0.1-2.4-0.3c-4.5-1.3-7.1-6.1-5.8-10.6c3.2-11,17.1-31.4,46.7-29.5&#10;&#9;&#9;&#9;c4.7,0.3,8.2,4.4,7.9,9c-0.3,4.7-4.4,8.2-9,7.9c-22.8-1.5-28.7,15.4-29.3,17.3C674.8,832.8,671.4,835.2,667.7,835.2z" style="fill: rgb(108, 16, 138); fill-opacity: 1;"/>
	</g>
	<g id="XMLID_206_">
		<path id="XMLID_361_" class="st3" d="M667.7,711.7c-4.2,0-7.8-3.1-8.4-7.3c-0.6-4.6,2.6-8.9,7.2-9.6c2.2-0.4,21.2-4.2,21.2-29.6&#10;&#9;&#9;&#9;c0-4.7,3.8-8.5,8.5-8.5s8.5,3.8,8.5,8.5c0,32.7-23.4,44.7-35.8,46.4C668.5,711.7,668.1,711.7,667.7,711.7z" style="fill: rgb(108, 16, 138); fill-opacity: 1;"/>
	</g>
	<g id="XMLID_253_">
		<path id="XMLID_360_" class="st3" d="M966,1321.4h-235c-40.1,0-72.7-32.6-72.7-72.7v-157.1c0-4.7,3.8-8.5,8.5-8.5&#10;&#9;&#9;&#9;c4.7,0,8.5,3.8,8.5,8.5v157.1c0,30.7,25,55.7,55.7,55.7h235c23,0,41.7-18.7,41.7-41.7v-90.5c0-32.4,26.4-58.7,58.7-58.7&#10;&#9;&#9;&#9;c23,0,41.7-18.7,41.7-41.7V767.2c0-23.4-19.1-42.5-42.5-42.5c-32.8,0-59.5-26.7-59.5-59.5V536.5c0-4.7,3.8-8.5,8.5-8.5&#10;&#9;&#9;&#9;c4.7,0,8.5,3.8,8.5,8.5v128.7c0,23.4,19.1,42.5,42.5,42.5c32.8,0,59.5,26.7,59.5,59.5v304.4c0,32.4-26.4,58.7-58.7,58.7&#10;&#9;&#9;&#9;c-23,0-41.7,18.7-41.7,41.7v90.5C1024.7,1295,998.4,1321.4,966,1321.4z" style="fill: rgb(108, 16, 138); fill-opacity: 1;"/>
	</g>
	<g id="XMLID_256_">
		<g id="XMLID_260_">
			<path id="XMLID_397_" class="st4" d="M1013.7,187.1c125.7,0,135.7,125.3,98,174.7c-37.7,49.3-43,79.3-43,79.3v17.5&#10;&#9;&#9;&#9;&#9;c0,9.1-7.4,16.5-16.5,16.5h-38.5h-38.5c-9.1,0-16.5-7.4-16.5-16.5v-17.5c0,0-5.4-30-43-79.3C878,312.4,888,187.1,1013.7,187.1z" style="fill: rgb(247, 182, 23); fill-opacity: 0;"/>
		</g>
		
		
		<g id="XMLID_257_">
			<path id="XMLID_232_" class="st2" d="M1025.5,548.1h-21.2c-13.4,0-24.3-10.9-24.3-24.3l0,0h69.8l0,0&#10;&#9;&#9;&#9;&#9;C1049.8,537.2,1038.9,548.1,1025.5,548.1z" style="fill: rgb(242, 99, 101); fill-opacity: 0;"/>
		</g>
	</g>
	<g id="XMLID_202_" transform="matrix(1, 0, 0, 1, 0, -7.84401014186551)">
		<g id="XMLID_252_">
			<path id="XMLID_356_" class="st3" d="M1052.2,483.6h-77c-13.8,0-25-11.2-25-25V442c-1-4.4-8.5-32.1-41.3-75.1&#10;&#9;&#9;&#9;&#9;c-24.4-32-28-86.2-8.3-126.1c19.8-40.1,60-62.2,113-62.2c53.1,0,93.2,22.1,113,62.2c19.7,39.9,16.2,94.1-8.3,126.1&#10;&#9;&#9;&#9;&#9;c-32.7,42.8-40.2,70.6-41.3,75.1v16.6C1077.2,472.4,1066,483.6,1052.2,483.6z M1013.7,195.6c-59.3,0-85.9,28.7-97.8,52.7&#10;&#9;&#9;&#9;&#9;c-18.7,37.9-11.4,84.8,6.6,108.3c38.5,50.4,44.4,81.7,44.6,83c0.1,0.5,0.1,1,0.1,1.5v17.5c0,4.4,3.6,8,8,8h77c4.4,0,8-3.6,8-8&#10;&#9;&#9;&#9;&#9;v-17.5c0-0.5,0-1,0.1-1.5c0.2-1.3,6.2-32.6,44.6-83c17.9-23.5,25.3-70.4,6.6-108.3C1099.6,224.3,1072.9,195.6,1013.7,195.6z" style="fill: rgb(108, 16, 138); fill-opacity: 1;"/>
		</g>
		<g id="XMLID_201_" transform="matrix(1, 0, 0, 1, 0.7844023118908581, 0.7844015620975426)">
			<path id="XMLID_353_" class="st3" d="M1050.5,507.9h-73.6c-9.7,0-17.6-7.9-17.6-17.6v-6.1c0-9.7,7.9-17.6,17.6-17.6h73.6&#10;&#9;&#9;&#9;&#9;c9.7,0,17.6,7.9,17.6,17.6v6.1C1068.1,500,1060.2,507.9,1050.5,507.9z M976.9,483.6c-0.3,0-0.6,0.3-0.6,0.6v6.1&#10;&#9;&#9;&#9;&#9;c0,0.3,0.3,0.6,0.6,0.6h73.6c0.3,0,0.6-0.3,0.6-0.6v-6.1c0-0.3-0.3-0.6-0.6-0.6H976.9z" style="fill: rgb(108, 16, 138); fill-opacity: 1;" transform="matrix(1, 0, 0, 1, 0, -1.5688020283731134)"/>
		</g>
		<g id="XMLID_254_" transform="matrix(1, 0, 0, 1, -74.51809714656349, -39.22005081176758)">
			<path id="XMLID_350_" class="st3" d="M1050.5,532.3h-73.6c-9.7,0-17.6-7.9-17.6-17.6v-6.1c0-9.7,7.9-17.6,17.6-17.6h73.6&#10;&#9;&#9;&#9;&#9;c9.7,0,17.6,7.9,17.6,17.6v6.1C1068.1,524.4,1060.2,532.3,1050.5,532.3z M976.9,507.9c-0.3,0-0.6,0.3-0.6,0.6v6.1&#10;&#9;&#9;&#9;&#9;c0,0.3,0.3,0.6,0.6,0.6h73.6c0.3,0,0.6-0.3,0.6-0.6v-6.1c0-0.3-0.3-0.6-0.6-0.6H976.9z" style="fill: rgb(108, 16, 138); fill-opacity: 1;" transform="matrix(1, 0, 0, 1, 75.3024969676579, 39.22005016658636)"/>
		</g>
		<g id="XMLID_255_" transform="matrix(1, 0, 0, 1, -75.30249793801468, -92.55931891370619)">
			<path id="XMLID_347_" class="st3" d="M 1025.5 556.6 L 1004.3 556.6 C 986.1999999999999 556.6 971.5 541.9 971.5 523.8000000000001 C 971.5 519.1 975.3 515.3000000000001 980 515.3000000000001 L 1049.8 515.3000000000001 C 1054.5 515.3000000000001 1058.3 519.1 1058.3 523.8000000000001 C 1058.3 541.9 1043.6 556.6 1025.5 556.6 Z M 991 532.3 C 993.8 536.6999999999999 998.7 539.5999999999999 1004.4 539.5999999999999 L 1014.8026733398438 539.5999755859375 L 1025.5999755859375 539.5999755859375 C 1031.1999999999998 539.5999999999999 1036.1 536.6999999999999 1039 532.3 L 1016.4749755859375 532.2999877929688 L 991 532.2999877929688 Z" style="fill: rgb(108, 16, 138); fill-opacity: 1;" transform="matrix(1, 0, 0, 1, 73.73369533353562, 88.63731460308009)"/>
		</g>
	</g>
	<g id="XMLID_288_">
		<path id="XMLID_297_" class="st6" d="M933.7,289.4c-4.7,0-8.5-3.8-8.5-8.5c0-31.3,26.4-50.7,27.5-51.6c3.8-2.7,9.1-1.9,11.9,1.9&#10;&#9;&#9;&#9;c2.7,3.8,1.9,9.1-1.9,11.9c-0.3,0.2-20.5,15.4-20.5,37.8C942.2,285.6,938.4,289.4,933.7,289.4z" style="fill: rgb(255, 255, 255); fill-opacity: 1;"/>
	</g>
	<g id="XMLID_289_">
		
	</g>
	<g id="XMLID_290_">
		
	</g>
	<g id="XMLID_291_">
		
	</g>
</g>
</svg>