<svg xmlns="http://www.w3.org/2000/svg" xmlns:xlink="http://www.w3.org/1999/xlink" viewBox="0 0 1033.16 998.16"><defs><style>.cls-1{mask:url(#mask);}.cls-10,.cls-15,.cls-17,.cls-19,.cls-2,.cls-21,.cls-23,.cls-4,.cls-6,.cls-8{mix-blend-mode:multiply;}.cls-2{fill:url(#linear-gradient);}.cls-3{mask:url(#mask-2);}.cls-4{fill:url(#linear-gradient-2);}.cls-5{mask:url(#mask-3);}.cls-6{fill:url(#linear-gradient-3);}.cls-7{mask:url(#mask-4);}.cls-8{fill:url(#linear-gradient-4);}.cls-9{mask:url(#mask-5);}.cls-10{fill:url(#linear-gradient-5);}.cls-11{isolation:isolate;}.cls-12{fill:#d7e6f2;}.cls-13{fill:#f3faff;}.cls-14{mask:url(#mask-6);}.cls-15,.cls-17,.cls-19,.cls-21,.cls-23{opacity:0.3;}.cls-15{fill:url(#linear-gradient-6);}.cls-16{mask:url(#mask-7);}.cls-17{fill:url(#linear-gradient-7);}.cls-18{mask:url(#mask-8);}.cls-19{fill:url(#linear-gradient-8);}.cls-20{mask:url(#mask-9);}.cls-21{fill:url(#linear-gradient-9);}.cls-22{mask:url(#mask-10);}.cls-23{fill:url(#linear-gradient-10);}.cls-24{fill:#f7f7f7;}.cls-25{fill:#606060;}.cls-26{fill:#96b1c5;}.cls-27{fill:#c28580;}.cls-28{fill:#dda36c;}.cls-29{fill:#728d9f;}.cls-30{fill:#cadcd9;}.cls-31{fill:#e9e9e9;}.cls-32{fill:#f2e7d6;}.cls-33{fill:#333;}.cls-34{fill:#6e403a;}.cls-35{fill:#636363;}.cls-36{fill:#fff;}.cls-37{fill:#1d4360;}.cls-38{fill:#494949;}.cls-39{fill:#999;}.cls-40{fill:#3f3e3e;}.cls-41{fill:#f9e9de;}.cls-42{fill:#191919;}.cls-43{fill:#363f4c;}.cls-44{fill:#66544d;}.cls-45{fill:#e2e2e2;}.cls-46{fill:#343435;}.cls-47{fill:#ddd2c5;}.cls-48{fill:#edddb2;}.cls-49{fill:#7c6c61;}.cls-50{fill:#5d738f;}.cls-51{fill:#84898f;}.cls-52{fill:#6d4f3a;}.cls-53{fill:#443b36;}.cls-54{filter:url(#luminosity-noclip-10);}.cls-55{filter:url(#luminosity-noclip-9);}.cls-56{filter:url(#luminosity-noclip-8);}.cls-57{filter:url(#luminosity-noclip-7);}.cls-58{filter:url(#luminosity-noclip-6);}.cls-59{filter:url(#luminosity-noclip-5);}.cls-60{filter:url(#luminosity-noclip-4);}.cls-61{filter:url(#luminosity-noclip-3);}.cls-62{filter:url(#luminosity-noclip-2);}.cls-63{filter:url(#luminosity-noclip);}</style><filter id="luminosity-noclip" x="678.97" y="-8753" width="152.31" height="32766" filterUnits="userSpaceOnUse" color-interpolation-filters="sRGB"><feFlood flood-color="#fff" result="bg"/><feBlend in="SourceGraphic" in2="bg"/></filter><mask id="mask" x="678.97" y="-8753" width="152.31" height="32766" maskUnits="userSpaceOnUse"><g class="cls-63"/></mask><linearGradient id="linear-gradient" x1="678.97" y1="909.11" x2="831.28" y2="909.11" gradientUnits="userSpaceOnUse"><stop offset="0" stop-color="#4d4d4d"/><stop offset="1"/></linearGradient><filter id="luminosity-noclip-2" x="199.37" y="-8753" width="183.09" height="32766" filterUnits="userSpaceOnUse" color-interpolation-filters="sRGB"><feFlood flood-color="#fff" result="bg"/><feBlend in="SourceGraphic" in2="bg"/></filter><mask id="mask-2" x="199.37" y="-8753" width="183.09" height="32766" maskUnits="userSpaceOnUse"><g class="cls-62"/></mask><linearGradient id="linear-gradient-2" x1="199.37" y1="953.89" x2="382.46" y2="953.89" xlink:href="#linear-gradient"/><filter id="luminosity-noclip-3" x="382.04" y="-8753" width="191.3" height="32766" filterUnits="userSpaceOnUse" color-interpolation-filters="sRGB"><feFlood flood-color="#fff" result="bg"/><feBlend in="SourceGraphic" in2="bg"/></filter><mask id="mask-3" x="382.04" y="-8753" width="191.3" height="32766" maskUnits="userSpaceOnUse"><g class="cls-61"/></mask><linearGradient id="linear-gradient-3" x1="382.04" y1="954.97" x2="573.34" y2="954.97" xlink:href="#linear-gradient"/><filter id="luminosity-noclip-4" x="575.89" y="-8753" width="169.78" height="32766" filterUnits="userSpaceOnUse" color-interpolation-filters="sRGB"><feFlood flood-color="#fff" result="bg"/><feBlend in="SourceGraphic" in2="bg"/></filter><mask id="mask-4" x="575.89" y="-8753" width="169.78" height="32766" maskUnits="userSpaceOnUse"><g class="cls-60"/></mask><linearGradient id="linear-gradient-4" x1="581.1" y1="865.73" x2="750.87" y2="865.73" gradientTransform="translate(34.31 56.89) rotate(2.54)" xlink:href="#linear-gradient"/><filter id="luminosity-noclip-5" x="754.32" y="-8753" width="181.53" height="32766" filterUnits="userSpaceOnUse" color-interpolation-filters="sRGB"><feFlood flood-color="#fff" result="bg"/><feBlend in="SourceGraphic" in2="bg"/></filter><mask id="mask-5" x="754.32" y="-8753" width="181.53" height="32766" maskUnits="userSpaceOnUse"><g class="cls-59"/></mask><linearGradient id="linear-gradient-5" x1="754.32" y1="956.61" x2="935.85" y2="956.61" xlink:href="#linear-gradient"/><filter id="luminosity-noclip-6" x="678.97" y="892.54" width="152.31" height="33.14" filterUnits="userSpaceOnUse" color-interpolation-filters="sRGB"><feFlood flood-color="#fff" result="bg"/><feBlend in="SourceGraphic" in2="bg"/></filter><mask id="mask-6" x="631.98" y="833.44" width="152.31" height="33.14" maskUnits="userSpaceOnUse"><g class="cls-58"><g transform="translate(-46.98 -59.1)"><g class="cls-1"><path class="cls-2" d="M831.05,905.22c-1.21-5.54-6.23-9.61-11.64-11.31s-11.21-1.45-16.87-1.17q-55.44,2.76-110.76,7.77c-5.33.49-12,2.22-12.76,7.52-.62,4.61,4,8.13,8.19,10.06,14.83,6.77,31.64,7.35,47.94,7.39C749.34,925.52,836.26,929,831.05,905.22Z"/></g></g></g></mask><linearGradient id="linear-gradient-6" x1="678.97" y1="909.11" x2="831.28" y2="909.11" gradientUnits="userSpaceOnUse"><stop offset="0"/><stop offset="1"/></linearGradient><filter id="luminosity-noclip-7" x="199.37" y="927.45" width="183.09" height="52.89" filterUnits="userSpaceOnUse" color-interpolation-filters="sRGB"><feFlood flood-color="#fff" result="bg"/><feBlend in="SourceGraphic" in2="bg"/></filter><mask id="mask-7" x="152.38" y="868.35" width="183.09" height="52.89" maskUnits="userSpaceOnUse"><g class="cls-57"><g transform="translate(-46.98 -59.1)"><g class="cls-3"><path class="cls-4" d="M374.62,940c-6-4.76-14.06-5.91-21.68-6.88-23.53-3-47.15-6-70.86-5.58s-47.69,4.49-69,15c-4.91,2.42-9.94,5.45-12.35,10.37-4.26,8.68,1.92,19.58,10.58,23.89s18.83,3.84,28.49,3.27l97.57-5.79c10.47-.62,35.07,2.49,41.67-5.86C385.44,960.25,382.19,945.94,374.62,940Z"/></g></g></g></mask><linearGradient id="linear-gradient-7" x1="199.37" y1="953.89" x2="382.46" y2="953.89" xlink:href="#linear-gradient-6"/><filter id="luminosity-noclip-8" x="382.04" y="926.39" width="191.3" height="57.16" filterUnits="userSpaceOnUse" color-interpolation-filters="sRGB"><feFlood flood-color="#fff" result="bg"/><feBlend in="SourceGraphic" in2="bg"/></filter><mask id="mask-8" x="335.06" y="867.29" width="191.3" height="57.16" maskUnits="userSpaceOnUse"><g class="cls-56"><g transform="translate(-46.98 -59.1)"><g class="cls-5"><path class="cls-6" d="M560.92,931.26c-7.62-4.35-16.85-4.5-25.63-4.53l-90.11-.34c-9.8,0-20.3.14-28.35,5.73-2.26,1.58-4.43,4.11-3.77,6.78,1,4.21,8.2,5.44,7.78,9.75-.22,2.22-2.49,3.58-4.57,4.39-9.3,3.63-19.87,3.39-28.85,7.75-1.92.93-3.84,2.16-4.78,4.07-2.6,5.3,3.68,10.61,9.25,12.57,11.15,3.94,23.15,4.67,35,5.18,29.13,1.24,58.27-.4,87.36.59,18.12.62,41.48,2.19,54.13-13.92C577.41,957.76,573.65,938.52,560.92,931.26Z"/></g></g></g></mask><linearGradient id="linear-gradient-8" x1="382.04" y1="954.97" x2="573.34" y2="954.97" xlink:href="#linear-gradient-6"/><filter id="luminosity-noclip-9" x="575.89" y="919.44" width="169.78" height="61.13" filterUnits="userSpaceOnUse" color-interpolation-filters="sRGB"><feFlood flood-color="#fff" result="bg"/><feBlend in="SourceGraphic" in2="bg"/></filter><mask id="mask-9" x="528.9" y="860.34" width="169.78" height="61.13" maskUnits="userSpaceOnUse"><g class="cls-55"><g transform="translate(-46.98 -59.1)"><g class="cls-7"><path class="cls-8" d="M709.85,928.19c-12.42-4.8-25.78-6.6-39.05-7.64a364.31,364.31,0,0,0-48.22-.58c-9.64.53-19.38,1.46-28.51,4.6-2.55.88-5.44,2.47-5.54,5.16-.12,3.34,4.09,5.1,5.35,8.19,1.45,3.53-1.45,7.42-4.74,9.35s-7.2,2.9-10,5.53c-6.06,5.78-3.09,16.79,3.69,21.71s15.7,5.42,24.07,5.65q26.33.74,52.65.15c16.18-.36,32.33-1.17,48.48-2.18,9.3-.58,21.85.58,30.34-4C762,961.4,721.54,932.7,709.85,928.19Z"/></g></g></g></mask><linearGradient id="linear-gradient-9" x1="581.1" y1="865.73" x2="750.87" y2="865.73" gradientTransform="translate(34.31 56.89) rotate(2.54)" xlink:href="#linear-gradient-6"/><filter id="luminosity-noclip-10" x="754.32" y="931.43" width="181.53" height="50.35" filterUnits="userSpaceOnUse" color-interpolation-filters="sRGB"><feFlood flood-color="#fff" result="bg"/><feBlend in="SourceGraphic" in2="bg"/></filter><mask id="mask-10" x="707.34" y="872.33" width="181.53" height="50.35" maskUnits="userSpaceOnUse"><g class="cls-54"><g transform="translate(-46.98 -59.1)"><g class="cls-9"><path class="cls-10" d="M921.69,939.69c-12.4-6.24-27-6.68-40.62-6.94l-61-1.18c-14.92-.29-30.16-.54-44.37,4-2.92.93-6.38,3.15-5.6,6.12.45,1.72,2.25,2.78,2.9,4.45,1.19,3.05-2.07,6.11-5.25,6.92s-6.7.52-9.53,2.18c-5.16,3-4.93,11.17-1,15.66s10.14,6.16,16,7.3c20.23,3.93,40.94,4.11,61.45,2.95,18.59-1,37.08-3.19,55.63-4.67,13.6-1.09,30.21-1.27,40.88-11.31S932.06,944.91,921.69,939.69Z"/></g></g></g></mask><linearGradient id="linear-gradient-10" x1="754.32" y1="956.61" x2="935.85" y2="956.61" xlink:href="#linear-gradient-6"/></defs><title>17567 [Converted]</title><g class="cls-11"><g id="background"><path class="cls-12" d="M988.71,293.69c-48-48.38-117.42-67.38-175.4-103.13-54.69-33.72-99.81-82.83-158.53-108.88-88.24-39.13-190.15-19.65-284.56.5L163.44,126.31c-17.43,3.72-35.27,7.61-50.32,17.16C67,172.73,66.22,238.53,70.73,293Q85.11,466.77,99.52,640.57c2.89,35,6.06,71,21.75,102.38,46.56,91.66,156.59,96.31,245,114.4,93,19,185.48,6.48,279.43-.29,55-4,110.12-7.94,164.42-17.56,28.59-5.06,57.4-11.87,82.53-26.44,25.9-15,46.65-37.58,64.47-61.64,40.22-54.28,67.43-117.62,83.06-183.34C1062.71,473.48,1057.15,362.77,988.71,293.69Z" transform="translate(-46.98 -59.1)"/><path class="cls-13" d="M958.46,799.6l-723.06-6s-119.8,6.5-62.55,66.53c65.54,68.71-91.38,16.05-122.21,65.58-14.41,23.17,14.06,78,79.84,73.92S329.62,977.06,273.2,1027c-24.74,21.9,158.3,25.76,178.87,25.76s651.64,27.54,624-54c0,0,19.47-12.93-26.76-34.75s-38.82-24.33-17.56-35.75-16-28.13-56.66-49.57c-28-14.74,20.68-36.58,20.68-36.58S1076.07,808.74,958.46,799.6Z" transform="translate(-46.98 -59.1)"/></g><g id="shadow"><g class="cls-14"><path class="cls-15" d="M831.05,905.22c-1.21-5.54-6.23-9.61-11.64-11.31s-11.21-1.45-16.87-1.17q-55.44,2.76-110.76,7.77c-5.33.49-12,2.22-12.76,7.52-.62,4.61,4,8.13,8.19,10.06,14.83,6.77,31.64,7.35,47.94,7.39C749.34,925.52,836.26,929,831.05,905.22Z" transform="translate(-46.98 -59.1)"/></g><g class="cls-16"><path class="cls-17" d="M374.62,940c-6-4.76-14.06-5.91-21.68-6.88-23.53-3-47.15-6-70.86-5.58s-47.69,4.49-69,15c-4.91,2.42-9.94,5.45-12.35,10.37-4.26,8.68,1.92,19.58,10.58,23.89s18.83,3.84,28.49,3.27l97.57-5.79c10.47-.62,35.07,2.49,41.67-5.86C385.44,960.25,382.19,945.94,374.62,940Z" transform="translate(-46.98 -59.1)"/></g><g class="cls-18"><path class="cls-19" d="M560.92,931.26c-7.62-4.35-16.85-4.5-25.63-4.53l-90.11-.34c-9.8,0-20.3.14-28.35,5.73-2.26,1.58-4.43,4.11-3.77,6.78,1,4.21,8.2,5.44,7.78,9.75-.22,2.22-2.49,3.58-4.57,4.39-9.3,3.63-19.87,3.39-28.85,7.75-1.92.93-3.84,2.16-4.78,4.07-2.6,5.3,3.68,10.61,9.25,12.57,11.15,3.94,23.15,4.67,35,5.18,29.13,1.24,58.27-.4,87.36.59,18.12.62,41.48,2.19,54.13-13.92C577.41,957.76,573.65,938.52,560.92,931.26Z" transform="translate(-46.98 -59.1)"/></g><g class="cls-20"><path class="cls-21" d="M709.85,928.19c-12.42-4.8-25.78-6.6-39.05-7.64a364.31,364.31,0,0,0-48.22-.58c-9.64.53-19.38,1.46-28.51,4.6-2.55.88-5.44,2.47-5.54,5.16-.12,3.34,4.09,5.1,5.35,8.19,1.45,3.53-1.45,7.42-4.74,9.35s-7.2,2.9-10,5.53c-6.06,5.78-3.09,16.79,3.69,21.71s15.7,5.42,24.07,5.65q26.33.74,52.65.15c16.18-.36,32.33-1.17,48.48-2.18,9.3-.58,21.85.58,30.34-4C762,961.4,721.54,932.7,709.85,928.19Z" transform="translate(-46.98 -59.1)"/></g><g class="cls-22"><path class="cls-23" d="M921.69,939.69c-12.4-6.24-27-6.68-40.62-6.94l-61-1.18c-14.92-.29-30.16-.54-44.37,4-2.92.93-6.38,3.15-5.6,6.12.45,1.72,2.25,2.78,2.9,4.45,1.19,3.05-2.07,6.11-5.25,6.92s-6.7.52-9.53,2.18c-5.16,3-4.93,11.17-1,15.66s10.14,6.16,16,7.3c20.23,3.93,40.94,4.11,61.45,2.95,18.59-1,37.08-3.19,55.63-4.67,13.6-1.09,30.21-1.27,40.88-11.31S932.06,944.91,921.69,939.69Z" transform="translate(-46.98 -59.1)"/></g></g><g id="object"><path class="cls-24" d="M936.44,612c2.93-109.71,1-200.21,1-323.27,0-33.6-1.33-92.93-3.11-126.48-.18-3.31-.55-6.91-2.87-9.28a11.68,11.68,0,0,0-7.34-3.24c-263.92-24.32-424.31,2.4-693.18.13-20.62-.17-47.75-9.09-59.52,7.83C162.81,170,166.87,201,167.09,216c1.16,79.81-.56,159.61.86,239.42.71,39.87.21,80,2.22,119.82,1.47,29.32,7.53,41.72,37.76,41.66,78.6-.16,161.29.2,240-2.69,79-2.9,158.15-3.65,237.22-1.77C707.4,613,936.44,604,936.44,612Z" transform="translate(-46.98 -59.1)"/><path class="cls-25" d="M842.19,475.73c-16.14,0-32.3-.86-48.25-1.71-14.21-.76-28.91-1.54-43.27-1.69-3.06,0-6.14,0-9.22-.05-19.07,0-38.78-.08-56.86-6.61-2.06-.75-4.37-1.71-5.61-3.76a10.69,10.69,0,0,1-1.2-4.49c-6.69-60.45-5.36-122.21-4.06-181.94h0L674.89,221c.07-2.86,0-5.8-.1-8.91-.17-6.22-.35-12.65.7-18.45a19.86,19.86,0,0,1,.64-2.13c1-3.11,2.93-8.92,1.47-11a1.84,1.84,0,0,0-1.57-.74h0a.5.5,0,0,1-.49-.51.51.51,0,0,1,.51-.49h0c74,2,149,4.35,222.86,7.13,3.06.11,6.49.44,8.37,2.95,1.22,1.63,1.4,3.77,1.55,5.48A2469.87,2469.87,0,0,1,916.78,461c0,1.67-.16,3.28-1.15,4.5a7.08,7.08,0,0,1-3.79,2C889.2,473.9,865.72,475.73,842.19,475.73ZM678.34,179.83l.08.1c1.75,2.5-.19,8.38-1.34,11.9a19.39,19.39,0,0,0-.61,2c-1,5.7-.85,12.08-.68,18.25.09,3.12.17,6.07.1,9l-1.17,54.48c-1.3,59.7-2.63,121.43,4,181.81a9.92,9.92,0,0,0,1.06,4.08c1.08,1.77,3.2,2.65,5.1,3.34,17.92,6.47,37.54,6.51,56.52,6.55,3.09,0,6.17,0,9.24.05,14.38.15,29.08.93,43.31,1.69,39.11,2.08,79.56,4.23,117.57-6.45a6.17,6.17,0,0,0,3.28-1.68c.8-1,.89-2.35.93-3.9a2467.57,2467.57,0,0,0-7.95-266.57c-.13-1.59-.3-3.57-1.35-5-1.62-2.15-4.78-2.45-7.61-2.56C825.74,184.15,751.56,181.78,678.34,179.83Z" transform="translate(-46.98 -59.1)"/><path class="cls-26" d="M803.08,352.74a138.25,138.25,0,0,1,12.81,18q27.25-19.3,54.53-38.59a20.42,20.42,0,0,0-6.4-10.94,191.09,191.09,0,0,0,30-2q-6.16,13.34-12.32,26.68a51.19,51.19,0,0,0-9.25-9.41Q842.63,357.93,813.24,380a225.63,225.63,0,0,1-15.5-20.26C775.26,375,746.16,377.38,723,391.52c-.84-1.66-3.43-4.9-2.16-6.76s6.11-2.75,8.12-3.55q8.85-3.49,17.72-7,18-7,36-13.83Q792.86,356.55,803.08,352.74Z" transform="translate(-46.98 -59.1)"/><path class="cls-26" d="M742.27,386.85c.26,3.17.23,6.35.2,9.53q-.16,18.27-.34,36.54l-16.76-.54a.92.92,0,0,1-.59-.15.93.93,0,0,1-.27-.61,196.65,196.65,0,0,1-2.89-25.5c-.13-2.85-1.07-7.26.38-9.9,1.27-2.3,4.79-3.34,7-4.34A114,114,0,0,1,742.27,386.85Z" transform="translate(-46.98 -59.1)"/><path class="cls-26" d="M748.64,388.15a3.06,3.06,0,0,1,.12-1.65,3,3,0,0,1,1.51-1.26l21.32-11c.38,13.1-1.12,26.16-2.62,39.18l-1.83,15.85a1.71,1.71,0,0,1-2,1.84c-3.94.22-8.29,1-12.22.68-3.5-.3-2.87-3.22-2.77-6,.29-8.12.19-16.26-.31-24.37C749.53,397,749.11,392.57,748.64,388.15Z" transform="translate(-46.98 -59.1)"/><path class="cls-26" d="M777.74,407.08c-.37-10.9,1.55-21.8.77-32.67l18.28-9.91c.78,2.58,3.38,4.23,4.43,6.71a12.23,12.23,0,0,1,.67,4.51,494.18,494.18,0,0,1-1.69,52.06,2.5,2.5,0,0,1-.74,1.91,2.43,2.43,0,0,1-1.41.35c-4,.16-8,.34-11.95.46-2.15.07-5.28.41-6.75-1.57-1.65-2.23-.62-7-.77-9.62C778.35,415.23,777.88,411.17,777.74,407.08Z" transform="translate(-46.98 -59.1)"/><path class="cls-26" d="M807.83,412.18a159.32,159.32,0,0,1,.45-28.64,5.19,5.19,0,0,1,3.35,1.82c.41.5.79,1.12,1.42,1.24a2.22,2.22,0,0,0,1.65-.64,55.91,55.91,0,0,0,8-7.48c1.78-2,3.55-4.29,6.1-5.21q-.88,27.19-.47,54.42c0-.23-17.31,1.17-18.8.67-2.47-.82-1.15-4.12-1.12-6.25C808.42,418.79,808.07,415.49,807.83,412.18Z" transform="translate(-46.98 -59.1)"/><path class="cls-26" d="M840.39,409.11q-.43-18.56-.86-37.1a7.21,7.21,0,0,1,.54-3.6,7.05,7.05,0,0,1,1.68-1.9l20.52-18.32c1.86,21.77.57,43.68-.71,65.5q-.36,6-.71,12.09-5.07.2-10.14.46c-2,.11-7.8,1.49-9.43.45s-.7-6.17-.72-8C840.54,415.51,840.46,412.31,840.39,409.11Z" transform="translate(-46.98 -59.1)"/><path class="cls-25" d="M717.13,220H717a.54.54,0,0,1-.31-.24,11.17,11.17,0,0,1-1.36-6.22,17,17,0,0,1-10.64,5.2.5.5,0,0,1-.54-.43,11.92,11.92,0,0,1,0-2.46A15.79,15.79,0,0,1,701,218a.5.5,0,1,1-.45-.89,14.89,14.89,0,0,0,3.81-2.85,12.6,12.6,0,0,1,3.88-6.75.5.5,0,0,1,.6,0,.48.48,0,0,1,.22.55,16.13,16.13,0,0,1-3.78,6.73,11.39,11.39,0,0,0-.17,3,16,16,0,0,0,10.62-6.14.5.5,0,0,1,.61-.15.49.49,0,0,1,.27.57,10.14,10.14,0,0,0,.73,6.83,42.37,42.37,0,0,0,10-9,.53.53,0,0,1,.54-.16.5.5,0,0,1,.35.44c.2,2.6,1.14,5.39,3.19,5.42a4.53,4.53,0,0,0,2.79-1.43,48.11,48.11,0,0,0,6.54-6.92.5.5,0,0,1,.46-.2.51.51,0,0,1,.4.31,6.73,6.73,0,0,1,.07,3.8,13.42,13.42,0,0,0-.2,1.48,3.5,3.5,0,0,0,.94,2.69,1.21,1.21,0,0,0,1.09.34,2.51,2.51,0,0,0,1.16-.69,8.87,8.87,0,0,0,1.89-2.49,5,5,0,0,1-.4-1.88,3.65,3.65,0,0,1,1.65-3.32.5.5,0,0,1,.49,0,.49.49,0,0,1,.27.42,10,10,0,0,1-.89,4.8,3.3,3.3,0,0,0,1.22,1.24,5.34,5.34,0,0,0,5.52-.63,4.25,4.25,0,0,1-.53-2.41c.16-2,1.44-3.68,2.47-5a.51.51,0,0,1,.4-.19h0a.53.53,0,0,1,.4.19c1.65,2.17.77,5.42-1,7.31-.11.11-.22.22-.34.32h0a2,2,0,0,0,1.53.66,4,4,0,0,0,1.93-.87,25.43,25.43,0,0,0,5.88-5.74.5.5,0,0,1,.59-.16.5.5,0,0,1,.31.54,5.93,5.93,0,0,0,.56,3.56l9-5.73a6.37,6.37,0,0,1,2.91-1.21c2.51-.17,3.86,2,5.15,4.15a18.57,18.57,0,0,0,1.69,2.48c2.14,2.45,5.86,2.77,8.59,2,3.17-.92,5.84-3.13,8-5.17a.49.49,0,0,1,.7,0,.5.5,0,0,1,0,.7,1.59,1.59,0,0,0-.17,1.93,3.11,3.11,0,0,0,3,1.7c2.2-.38,3.66-2.47,5-4.57a.48.48,0,0,1,.63-.19.5.5,0,0,1,.27.59,4.44,4.44,0,0,0,.72,3.74,4.94,4.94,0,0,0,3.58,2.18,5.79,5.79,0,0,0,5.75-4.52.79.79,0,0,1,.22-.81.52.52,0,0,1,.58-.1.51.51,0,0,1,.28.51s0,0,0,0a1.05,1.05,0,0,0,.7-.12l6.46-5a.49.49,0,0,1,.52-.06.54.54,0,0,1,.29.44c0,2,.17,3.91,1.34,5.16a2.77,2.77,0,0,0,2.68.66,1.52,1.52,0,0,0,1.13-1.12.5.5,0,1,1,1,.18,2.45,2.45,0,0,1-1.83,1.9,3.78,3.78,0,0,1-3.68-.93,7.35,7.35,0,0,1-1.59-4.84l-5.7,4.38a2,2,0,0,1-1.5.31,6.81,6.81,0,0,1-6.69,4.89,6.08,6.08,0,0,1-5.34-5.18c-1.18,1.64-2.63,3.09-4.6,3.43a4.12,4.12,0,0,1-4.1-2.23,3.37,3.37,0,0,1-.35-1.12,19.19,19.19,0,0,1-7,4.14c-3,.87-7.18.49-9.61-2.29a18.93,18.93,0,0,1-1.8-2.62c-1.19-2-2.28-3.83-4.22-3.68a5.51,5.51,0,0,0-2.44,1.07l-9.4,6a.5.5,0,0,1-.38.07.48.48,0,0,1-.31-.23,6.89,6.89,0,0,1-1-3.1,26.16,26.16,0,0,1-5.16,4.75,4.84,4.84,0,0,1-2.44,1,2.94,2.94,0,0,1-2.31-.95l-.07-.08a6.27,6.27,0,0,1-6.58.69,4.08,4.08,0,0,1-1.27-1.11,9.89,9.89,0,0,1-1.81,2.22,3.51,3.51,0,0,1-1.66.94,2.23,2.23,0,0,1-1.93-.59,4.51,4.51,0,0,1-1.27-3.51c0-.52.13-1.05.22-1.57a9,9,0,0,0,.2-2.32,48.21,48.21,0,0,1-6,6.26,5.46,5.46,0,0,1-3.42,1.67h0c-2.77,0-3.72-3.18-4-5.17a43.1,43.1,0,0,1-10,8.59A.5.5,0,0,1,717.13,220Zm39.63-13.24a8,8,0,0,0-1.84,3.92,3.46,3.46,0,0,0,.33,1.69l.19-.19C756.8,210.8,757.56,208.5,756.76,206.79Zm-49.59,3.41a11.2,11.2,0,0,0-1.06,1.88A13.93,13.93,0,0,0,707.17,210.2Zm40.44-1.35a3,3,0,0,0-.41,1.68c0,.13,0,.25,0,.38A9,9,0,0,0,747.61,208.85Z" transform="translate(-46.98 -59.1)"/><path class="cls-25" d="M878.73,210.85a3.71,3.71,0,0,1-1.49-.31c-1.72-.77-2.32-2.65-2.52-4.15l-2.65,2.31a2.51,2.51,0,0,1-1.22.7,2,2,0,0,1-2.17-1.64,3.35,3.35,0,0,1,0-1.3,29.85,29.85,0,0,1-8.35,3,4.55,4.55,0,0,1-3.63-.39c-1.61-1.14-1.34-3.17-.77-4.77q-3.49,2.44-7,4.85a3.94,3.94,0,0,1-2.24.91,2.31,2.31,0,0,1-1.67-.72c-1.18-1.22-1.22-3.54-1.2-4.22a.5.5,0,1,1,1,0,5.33,5.33,0,0,0,.92,3.49,1.27,1.27,0,0,0,1,.42h0a3.15,3.15,0,0,0,1.66-.74q4.26-2.91,8.47-5.88a.51.51,0,0,1,.63,0,.5.5,0,0,1,.1.61c-.5.91-2,4-.29,5.18a3.79,3.79,0,0,0,2.85.22,28.88,28.88,0,0,0,9.06-3.49.5.5,0,0,1,.56,0,.51.51,0,0,1,.18.54,4,4,0,0,0-.26,1.94c.11.49.57,1,1,.88a1.77,1.77,0,0,0,.75-.47l3.39-3a.5.5,0,0,1,.83.36c0,1.28.36,3.54,2,4.28a3.86,3.86,0,0,0,3.51-.58,15.77,15.77,0,0,0,1.76-1.37,18.17,18.17,0,0,1,1.51-1.21,10.49,10.49,0,0,1,8.68-1.53.51.51,0,0,1,.35.62.5.5,0,0,1-.61.35,9.44,9.44,0,0,0-7.84,1.38,16.86,16.86,0,0,0-1.44,1.15,17.91,17.91,0,0,1-1.87,1.45A5.62,5.62,0,0,1,878.73,210.85Z" transform="translate(-46.98 -59.1)"/><path class="cls-25" d="M892,234.7a.5.5,0,0,1-.43-.25c-1.18-2-2.29-4.17-3.3-6.32-1.2.17-2.13,1.17-3.1,2.23a8.08,8.08,0,0,1-3.3,2.54c-2.11.68-4.17-.48-5.22-1.23-.65-.47-1.25-1-1.83-1.52a18.08,18.08,0,0,0-2.1-1.69,9.24,9.24,0,0,0-7.15-1.25,20.69,20.69,0,0,0-2.65.9c-2,.78-4.09,1.59-6.19.9a9.53,9.53,0,0,1-2.5-1.44,9.28,9.28,0,0,0-1.91-1.19,4.73,4.73,0,0,0-4.62.61.5.5,0,0,1-.51.06.48.48,0,0,1-.3-.42,4.57,4.57,0,0,0-.15-.9,12.7,12.7,0,0,1-4.45,3.11.5.5,0,0,1-.66-.27.51.51,0,0,1,.27-.65,11.85,11.85,0,0,0,4.63-3.48.5.5,0,0,1,.45-.18.52.52,0,0,1,.4.29,6.14,6.14,0,0,1,.39,1.19,5.71,5.71,0,0,1,4.94-.28,10.49,10.49,0,0,1,2.11,1.3,8.58,8.58,0,0,0,2.22,1.3c1.77.58,3.59-.13,5.51-.88a21.65,21.65,0,0,1,2.78-.94,10.28,10.28,0,0,1,7.94,1.38,20.47,20.47,0,0,1,2.21,1.78c.57.5,1.15,1,1.76,1.46a5,5,0,0,0,4.33,1.09,7.29,7.29,0,0,0,2.86-2.27c1.16-1.25,2.35-2.55,4.13-2.57a.51.51,0,0,1,.46.29c1,2.22,2.19,4.43,3.41,6.55a.49.49,0,0,1-.18.68A.45.45,0,0,1,892,234.7Z" transform="translate(-46.98 -59.1)"/><path class="cls-25" d="M752.92,237.83h-.45a12.24,12.24,0,0,1-10.27-7.6c-1.34,1.91-2.78,3.57-4.89,4.17a4.73,4.73,0,0,1-4.41-1.21l0,0a6.31,6.31,0,0,1-.29.66,6.91,6.91,0,0,1-4.08,3.31c-2.92.84-6.06,0-8.59-.67a.5.5,0,0,1,.26-1c2.4.64,5.4,1.43,8.05.67a5.9,5.9,0,0,0,3.47-2.81,4.1,4.1,0,0,0,.43-1.28,2.89,2.89,0,0,1-.14-1.9.51.51,0,0,1,.47-.37.49.49,0,0,1,.49.34,4.35,4.35,0,0,1,.21,1.75,2.57,2.57,0,0,0,.45.57,3.71,3.71,0,0,0,3.43,1c2.07-.59,3.49-2.49,4.88-4.56a.48.48,0,0,1,.48-.22.5.5,0,0,1,.41.34,11.27,11.27,0,0,0,9.71,7.83,9.4,9.4,0,0,0,7.77-3.75,5.07,5.07,0,0,1-.09-.54,3.28,3.28,0,0,1,1.91-3.57.48.48,0,0,1,.48.06.51.51,0,0,1,.2.46,8.51,8.51,0,0,1-1.42,3.77,3,3,0,0,0,2.14,2.13,3.68,3.68,0,0,0,3.06-.91,5.23,5.23,0,0,0,1.86-3.94.5.5,0,0,1,.91-.3c2.08,2.94,6.73,2.57,10.08,1.35.68-.24,1.36-.51,2-.78,3-1.2,6.17-2.45,9.39-1.72a19.69,19.69,0,0,1,2.3.72c1.89.68,3.68,1.32,5.08.34a5.52,5.52,0,0,0,.79-.7,3.36,3.36,0,0,1,2.2-1.24h0c1.47,0,2,1.35,2.56,2.54a4.73,4.73,0,0,0,1.35,2.1c1.09.7,2.66-.17,3.65-1.29.21-.22.41-.46.61-.7a6.49,6.49,0,0,1,3.33-2.59c1.52-.36,3.07.28,4.57.89,2,.82,3.24,1.24,4.19.29a.48.48,0,0,1,.7,0,.5.5,0,0,1,0,.71c-1.48,1.48-3.41.69-5.27-.07-1.35-.56-2.76-1.13-4-.85a5.81,5.81,0,0,0-2.8,2.26c-.2.25-.41.49-.62.73-1.31,1.47-3.35,2.49-4.94,1.45a5.38,5.38,0,0,1-1.73-2.53c-.51-1.2-.87-1.94-1.64-1.94h0c-.54,0-1,.45-1.51,1a6.44,6.44,0,0,1-.92.8c-1.82,1.27-3.94.51-6-.22a20.25,20.25,0,0,0-2.19-.68c-2.91-.66-5.91.52-8.8,1.67-.69.27-1.38.55-2.07.8-3.47,1.25-7.85,1.61-10.45-.81a6.26,6.26,0,0,1-2.1,3.51,4.62,4.62,0,0,1-3.88,1.14,3.76,3.76,0,0,1-2.66-2.19A10.43,10.43,0,0,1,752.92,237.83Zm8.58-7.1a2.51,2.51,0,0,0-.24.66Q761.4,231.06,761.5,230.73Z" transform="translate(-46.98 -59.1)"/><path class="cls-25" d="M706.9,266.86c-2.41,0-4.48-1.79-6.17-5.31a5.08,5.08,0,0,0,1.26,2.91.5.5,0,0,1-.75.67,6.12,6.12,0,0,1-1.29-5.71.49.49,0,0,1,.46-.36.47.47,0,0,1,.48.32c1.71,4.44,3.84,6.63,6.26,6.47,1.59-.1,2.86-1.19,4.2-2.34a14.41,14.41,0,0,1,2.88-2.09c3.44-1.71,7.1-.29,10.65,1.08,2.41.93,4.91,1.9,7.35,1.9h0a20.58,20.58,0,0,0,4.54-.74c2.44-.58,5-1.18,7.38-.26a13.38,13.38,0,0,1,1.88,1,10.65,10.65,0,0,0,1.9,1c2.37.81,5-.21,7.46-1.21l.85-.34a39,39,0,0,1,23.16-1.52.5.5,0,1,1-.24,1,38,38,0,0,0-22.56,1.49l-.84.33c-2.55,1-5.43,2.16-8.16,1.22a11.26,11.26,0,0,1-2.08-1.05,11.92,11.92,0,0,0-1.73-.9c-2.13-.82-4.39-.28-6.79.3a21.38,21.38,0,0,1-4.77.76h0c-2.64,0-5.22-1-7.73-2-3.49-1.35-6.79-2.63-9.84-1.11a13.6,13.6,0,0,0-2.67,1.95c-1.41,1.21-2.86,2.46-4.79,2.58Z" transform="translate(-46.98 -59.1)"/><path class="cls-25" d="M798.28,265.93a3,3,0,0,1-.42,0,5.29,5.29,0,0,1-4.47-6.34.49.49,0,0,1,.61-.36.51.51,0,0,1,.36.61,4.06,4.06,0,0,0,.7,3.32,3.83,3.83,0,0,0,6.06.57,4.39,4.39,0,0,0,1.2-2,2.18,2.18,0,0,1,.17-1.4.48.48,0,0,1,.54-.28.52.52,0,0,1,.41.46,4.54,4.54,0,0,1-.1,1.22,1.76,1.76,0,0,0,.23.43,2.65,2.65,0,0,0,2.21,1.12c1.54-.11,2.85-1.24,4.11-2.34,1.54-1.34,3.15-2.51,5-2.35s3.1,1.41,4.35,2.63c.45.44.91.89,1.38,1.27a8.71,8.71,0,0,0,10.18.32l.45-.32c1.56-1.14,3.51-2.55,5.18-1.27a3.93,3.93,0,0,1,.79.9,3,3,0,0,0,.67.74c.85.53,2-.21,3.09-.86,5.12-3.19,11.26-2.69,17.2-2.2,5.14.43,10.46.87,15.07-1.07.53-.23,1-.48,1.55-.73s1.17-.57,1.79-.82a28.05,28.05,0,0,1,3.49-1.08l9.09-2.4a.5.5,0,1,1,.25,1l-9.08,2.4a28.14,28.14,0,0,0-3.38,1.05c-.58.24-1.15.51-1.72.79s-1.06.52-1.6.75c-4.84,2-10.28,1.58-15.54,1.15-6-.5-11.75-1-16.55,2-1.21.75-2.82,1.75-4.2.88a3.84,3.84,0,0,1-.94-1,3.14,3.14,0,0,0-.59-.69c-1-.76-2.34.1-4,1.29l-.45.32a9.72,9.72,0,0,1-11.39-.36c-.5-.4-1-.87-1.45-1.33-1.17-1.14-2.28-2.23-3.72-2.34s-2.94.91-4.24,2-2.89,2.52-4.77,2.65a3.69,3.69,0,0,1-2.94-1.33,5.67,5.67,0,0,1-1.09,1.47A5.16,5.16,0,0,1,798.28,265.93Z" transform="translate(-46.98 -59.1)"/><path class="cls-25" d="M879.92,281.23a.51.51,0,0,1-.39-.19,46.73,46.73,0,0,1-3.3-4.62c-2.57,2-5.53,3.86-8.71,3.24a11.51,11.51,0,0,1-3.2-1.3,21,21,0,0,0-1.92-.91c-2.78-1-5.73-.54-8.85,0a34.2,34.2,0,0,1-5.44.62c-1.1,0-2.32-.1-3.48-.21-3.27-.29-6.35-.57-8.52,1.39l-.3.28a2.66,2.66,0,0,1-3.91.43l-7.51-4.23a24,24,0,0,1-16.64,3.94.48.48,0,0,1-.42-.56.49.49,0,0,1,.56-.43,23,23,0,0,0,16.19-3.95.48.48,0,0,1,.53,0l7.78,4.38a1.73,1.73,0,0,0,2.72-.28l.33-.3c2.49-2.25,5.94-1.94,9.28-1.64,1.11.1,2.27.2,3.34.2h.05a32.75,32.75,0,0,0,5.27-.61c3.12-.53,6.34-1.09,9.37.06a17.17,17.17,0,0,1,2,1,10.79,10.79,0,0,0,2.93,1.2c2.94.57,5.85-1.45,8.34-3.39a.53.53,0,0,1,.4-.1.54.54,0,0,1,.34.23,46.74,46.74,0,0,0,3.52,5,.5.5,0,0,1-.39.82Z" transform="translate(-46.98 -59.1)"/><path class="cls-25" d="M792.41,284.6h-.12a.5.5,0,0,1-.37-.6,1.46,1.46,0,0,0-.54-1.53,4.39,4.39,0,0,0-4.12-.54,19.49,19.49,0,0,0-2,1c-1.59.88-3.23,1.78-5.09,1.49a8.88,8.88,0,0,1-3.5-1.68c-1.3-.88-2.53-1.7-3.85-1.4a5.32,5.32,0,0,0-2,1.17,4.54,4.54,0,0,1-6.21.39c-.36-.19-.72-.38-1.09-.54-2.41-1.05-5.2-.71-7.9-.39-.57.07-1.14.14-1.7.19-5.18.51-10.48-.1-15.6-.69-6.43-.74-13.09-1.51-19.41,0a.49.49,0,0,1-.6-.36.5.5,0,0,1,.37-.61c6.49-1.58,13.23-.8,19.76,0,5.07.58,10.31,1.19,15.38.69l1.68-.19c2.83-.34,5.76-.7,8.42.46.39.17.77.37,1.15.57a3.59,3.59,0,0,0,5.13-.29,6.12,6.12,0,0,1,2.38-1.35c1.76-.4,3.22.59,4.64,1.54a8.2,8.2,0,0,0,3.09,1.53c1.52.23,2.95-.55,4.46-1.39a21.39,21.39,0,0,1,2.09-1,5.42,5.42,0,0,1,5.15.7,2.45,2.45,0,0,1,.86,2.52A.49.49,0,0,1,792.41,284.6Z" transform="translate(-46.98 -59.1)"/><path class="cls-25" d="M302.86,246.58a6.16,6.16,0,0,1-3.83-1.23.51.51,0,0,1-.09-.71.5.5,0,0,1,.7-.09c3,2.32,7.5.21,9.9-1.26a50.81,50.81,0,0,0,7.13-5.23,8.62,8.62,0,0,1-1.63-2.94c-.77-2.45-.38-5.09,0-7.38a93.37,93.37,0,0,1,11.44-30.48c1.46-2.47,4.12-5.18,6.77-5.66a4.14,4.14,0,0,1,3.45.84.51.51,0,0,1,.18.37c1,16.84-6.34,34-18.83,45.32a11,11,0,0,0,6.73,3c3.33.27,6.92-.65,11.29-2.9a38.08,38.08,0,0,0,8.28-5.81,13.43,13.43,0,0,1,.06-3.31,34.92,34.92,0,0,1,8.91-19.19.53.53,0,0,1,.51-.14.48.48,0,0,1,.35.39c1.71,8.61-2.55,16.71-8.76,22.61a5.31,5.31,0,0,0,.56,1.48c1.26,2.15,4.12,2.73,6.29,2.19a12.28,12.28,0,0,0,6-4.22c.47-.54.92-1.09,1.34-1.67a33.61,33.61,0,0,1,5.62-14.93.5.5,0,0,1,.58-.18.49.49,0,0,1,.33.51,29.61,29.61,0,0,1-5.57,15,31.55,31.55,0,0,0,0,6.8c8.8-1.24,13.45-11.12,16.52-19.66a.48.48,0,0,1,.58-.31.5.5,0,0,1,.38.55,63.3,63.3,0,0,0-.26,13.69,19.46,19.46,0,0,0,6.24-8.67.5.5,0,0,1,.56-.32.48.48,0,0,1,.41.5,12.83,12.83,0,0,0,1.39,6l9.8-5.06a.5.5,0,0,1,.64.17A8,8,0,0,0,407,226.94a.52.52,0,0,1,.69.19.5.5,0,0,1-.2.68,9,9,0,0,1-11.16-2.31l-9.86,5.08a.49.49,0,0,1-.66-.2,13.7,13.7,0,0,1-1.61-4.76,20.46,20.46,0,0,1-6.48,7.69.46.46,0,0,1-.49.05.49.49,0,0,1-.29-.4,63.43,63.43,0,0,1-.19-11.11c-5.85,14.16-12.16,16.46-16.52,16.9a.5.5,0,0,1-.54-.44,32.06,32.06,0,0,1-.14-6l-.41.48a13.23,13.23,0,0,1-6.55,4.54c-2.54.63-5.89-.08-7.4-2.66a5.86,5.86,0,0,1-.53-1.21,39,39,0,0,1-8.06,5.57c-4.54,2.34-8.29,3.29-11.83,3a12,12,0,0,1-7.39-3.29,52.38,52.38,0,0,1-7.29,5.36A14.92,14.92,0,0,1,302.86,246.58Zm31.27-54.06a3.85,3.85,0,0,0-.66.06c-2.34.43-4.74,2.92-6.09,5.19a92.16,92.16,0,0,0-11.31,30.16,14.46,14.46,0,0,0-.08,6.89,7.7,7.7,0,0,0,1.42,2.58c12.23-11.08,19.44-27.83,18.53-44.3A3,3,0,0,0,334.13,192.52Zm19.28,18.8a33.91,33.91,0,0,0-8,17.87,14.45,14.45,0,0,0-.13,2.3C350.77,226.09,354.5,218.93,353.41,211.32ZM365,218a32.7,32.7,0,0,0-4,10.62A28.73,28.73,0,0,0,365,218Z" transform="translate(-46.98 -59.1)"/><path class="cls-25" d="M550.38,233.29a4.6,4.6,0,0,1-2.55-.64,4.14,4.14,0,0,1-1.72-3.15,9,9,0,0,1-7.34,1.06A7.61,7.61,0,0,1,533.9,225a6.69,6.69,0,0,1,0-3.36,48.25,48.25,0,0,1-16,8.13.5.5,0,0,1-.64-.54l1.48-11.28a49.51,49.51,0,0,1-22.08,9,.49.49,0,0,1-.45-.16.54.54,0,0,1-.11-.47l3.1-10.81a32.6,32.6,0,0,1-20.13,12.42.5.5,0,0,1-.44-.14.51.51,0,0,1-.13-.44,114.68,114.68,0,0,1,3.06-12.48,50.4,50.4,0,0,1-16.55,15.5c-2,1.14-4.29,2.23-6.65,1.69a5.61,5.61,0,0,1-3.56-2.72,8,8,0,0,1-.81-1.94,20.37,20.37,0,0,1-8.44,4.43c-2.51.62-4.5.18-5.46-1.2a3.81,3.81,0,0,1-.62-1.81,20.17,20.17,0,0,1-9,2.28.49.49,0,0,1-.5-.48,32.73,32.73,0,0,1,1.2-10.45l-5,5.1a.5.5,0,0,1-.72-.7L432,218a.52.52,0,0,1,.63-.08.5.5,0,0,1,.2.59A31.64,31.64,0,0,0,431,230.09a19.11,19.11,0,0,0,8.47-2.45,14.4,14.4,0,0,1,10.23-12.95.51.51,0,0,1,.62.6,20.92,20.92,0,0,1-9.85,13,3.22,3.22,0,0,0,.48,1.78c1,1.45,3.41,1.05,4.4.8a19.49,19.49,0,0,0,8.45-4.59A8.31,8.31,0,0,1,454,223c1-3.6,3.91-6.36,6.24-8.59a.52.52,0,0,1,.58-.08.49.49,0,0,1,.26.52,20.85,20.85,0,0,1-6.22,11.81,7.11,7.11,0,0,0,.83,2.2,4.62,4.62,0,0,0,2.92,2.25c2,.47,4.13-.53,5.93-1.57A49.53,49.53,0,0,0,483,210.72a.5.5,0,0,1,.91.4,113.55,113.55,0,0,0-4.23,15.69,31.6,31.6,0,0,0,20.52-14.44.48.48,0,0,1,.62-.2.5.5,0,0,1,.28.6l-3.75,13.07a48.53,48.53,0,0,0,21.81-9.43.48.48,0,0,1,.55,0,.49.49,0,0,1,.25.49l-1.54,11.69a47.06,47.06,0,0,0,17-9.48.5.5,0,0,1,.67.74,5,5,0,0,0-1.23,4.92,6.64,6.64,0,0,0,4.2,4.87,8.21,8.21,0,0,0,7-1.24,10.91,10.91,0,0,1,.14-1.45,24,24,0,0,1,4.66-10.84.5.5,0,0,1,.89.21,13.25,13.25,0,0,1-1.3,8.7,11.78,11.78,0,0,1-3.38,3.88,3.48,3.48,0,0,0,1.31,2.94,4.64,4.64,0,0,0,2.91.43A24.33,24.33,0,0,0,565.34,226a5.69,5.69,0,0,1,.77-4.83,4.5,4.5,0,0,1,5-2.2.5.5,0,0,1,.31.29.48.48,0,0,1,0,.42,24.38,24.38,0,0,1-4.89,6.56,2.67,2.67,0,0,0,.35.5,4.56,4.56,0,0,0,4.43,1.27,5.49,5.49,0,0,0,4.22-3.43.5.5,0,0,1,.63-.32.49.49,0,0,1,.32.63,6.52,6.52,0,0,1-5,4.11,5.57,5.57,0,0,1-5.39-1.61,5.07,5.07,0,0,1-.35-.46,25.25,25.25,0,0,1-14.41,6.31C551.06,233.27,550.72,233.29,550.38,233.29Zm.56-15.61a22.92,22.92,0,0,0-3.75,9.4c0,.15-.05.31-.07.48a10.69,10.69,0,0,0,2.45-3A12.36,12.36,0,0,0,550.94,217.68Zm-101.81-1.75A13.45,13.45,0,0,0,440.54,227,20.13,20.13,0,0,0,449.13,215.93Zm10.7.27c-2,1.94-4.06,4.25-4.84,7a6.87,6.87,0,0,0-.24,2.13A20.17,20.17,0,0,0,459.83,216.2ZM570,219.8a3.84,3.84,0,0,0-3.06,1.92,5,5,0,0,0-.77,3.5,23.34,23.34,0,0,0,4.07-5.41Z" transform="translate(-46.98 -59.1)"/><path class="cls-25" d="M477.86,317.24a.5.5,0,0,1-.44-.27.49.49,0,0,1,.22-.67,7,7,0,0,0,1.87-1.43,7,7,0,0,1-.4-2.37,15.74,15.74,0,0,1,1.58-7.1.49.49,0,0,1,.44-.28.48.48,0,0,1,.45.25,8.48,8.48,0,0,1,.66,6.62,9,9,0,0,1-1.55,3,2.23,2.23,0,0,0,.38.48c1.5,1.48,4.22.32,5-.07a19.28,19.28,0,0,0,8.09-7.69,9.05,9.05,0,0,1,2.47-7.06.5.5,0,0,1,.57-.1.5.5,0,0,1,.28.52,19.53,19.53,0,0,1-2.28,6.88,7.54,7.54,0,0,0,.59,2.2,10.45,10.45,0,0,0,5.05-8.48.5.5,0,0,1,.49-.48h0a.5.5,0,0,1,.5.46,11.19,11.19,0,0,0,1,4.45,3.4,3.4,0,0,0,3.38,1.92,5.36,5.36,0,0,0,2.05-1.18l7.17-5.67a.5.5,0,0,1,.8.48c-.18.92-.43,3.19,1,4.52a2.59,2.59,0,0,0,2.36.5,1.6,1.6,0,0,0,1.17-1.08.5.5,0,0,1,1,.26,2.6,2.6,0,0,1-1.86,1.78,3.57,3.57,0,0,1-3.32-.73,5.25,5.25,0,0,1-1.43-4.2l-6.22,4.92a6.21,6.21,0,0,1-2.46,1.38,4.36,4.36,0,0,1-4.46-2.42,7.11,7.11,0,0,1-.67-1.74,11.49,11.49,0,0,1-5.45,6.45.52.52,0,0,1-.68-.21,8.67,8.67,0,0,1-.71-1.83,20,20,0,0,1-7.91,7c-2.53,1.23-4.83,1.19-6.16-.11a3,3,0,0,1-.37-.43,7.85,7.85,0,0,1-1.91,1.39A.46.46,0,0,1,477.86,317.24Zm3.3-10.43a14.72,14.72,0,0,0-1.05,5.68,7.37,7.37,0,0,0,.15,1.42,7.84,7.84,0,0,0,1-2.21A7.62,7.62,0,0,0,481.16,306.81Zm14.89-3.58a8.77,8.77,0,0,0-.74,2.2A17.23,17.23,0,0,0,496.05,303.23Z" transform="translate(-46.98 -59.1)"/><path class="cls-25" d="M543.46,311.24a3.63,3.63,0,0,1-2-.64A5,5,0,0,1,540,309a15.4,15.4,0,0,1-7.51,1.69h0a.51.51,0,0,1-.5-.51,11.53,11.53,0,0,1,4.55-8.86c1-.73,2.34-1.08,3.13-.22a2.52,2.52,0,0,1,.48,1.8v0a24.82,24.82,0,0,1,1.74-2.94.53.53,0,0,1,.4-.22.5.5,0,0,1,.41.2c2,2.59.68,6.49-1.69,8.36l-.17.13a4.09,4.09,0,0,0,1.2,1.28,2.38,2.38,0,0,0,2.17.33,5.17,5.17,0,0,0,2-1.69l8-9.45a.5.5,0,0,1,.5-.17.53.53,0,0,1,.37.38l2.1,9.21a28.48,28.48,0,0,0,9.74-9.38.5.5,0,0,1,.55-.21.49.49,0,0,1,.37.47l.13,6A31.9,31.9,0,0,0,578,297a.49.49,0,0,1,.52-.16.48.48,0,0,1,.36.42l.39,3.19a8.54,8.54,0,0,0,4.62-5.22.53.53,0,0,1,.51-.36.5.5,0,0,1,.46.4c.35,1.68,2.53,2.54,4.39,2.4a17,17,0,0,0,2.75-.51,17.06,17.06,0,0,1,3.37-.55,8.47,8.47,0,0,1,7.06,3.74,14.94,14.94,0,0,1,6-4.27.5.5,0,0,1,.68.41,13.36,13.36,0,0,0,1.37,5.24c.83,1.38,2.54,2.56,4.19,2.15a6.32,6.32,0,0,0,2.67-1.85c.3-.29.6-.58.91-.85,1.4-1.2,3.55-1.94,5-.68a.49.49,0,0,1,0,.7.51.51,0,0,1-.71.05c-.92-.82-2.53-.27-3.65.69-.29.25-.58.53-.86.81a7.16,7.16,0,0,1-3.14,2.1c-2.21.55-4.29-1-5.27-2.61a12.43,12.43,0,0,1-1.43-5,13.85,13.85,0,0,0-5.4,4.25.48.48,0,0,1-.43.2.52.52,0,0,1-.4-.27,7.4,7.4,0,0,0-6.54-3.84,15.37,15.37,0,0,0-3.15.53,19.91,19.91,0,0,1-2.91.53,5.61,5.61,0,0,1-4.93-2,9.6,9.6,0,0,1-5.38,4.94.52.52,0,0,1-.67-.41l-.32-2.69a32.83,32.83,0,0,1-10.44,8,.51.51,0,0,1-.48,0,.52.52,0,0,1-.24-.41l-.11-5.21a29.17,29.17,0,0,1-9.79,8.72.51.51,0,0,1-.45,0,.52.52,0,0,1-.28-.35l-2-8.88-7.3,8.68a6,6,0,0,1-2.41,2A3.08,3.08,0,0,1,543.46,311.24Zm-5-9.61a2.55,2.55,0,0,0-1.32.54,10.54,10.54,0,0,0-4.13,7.54,13.69,13.69,0,0,0,6.56-1.57c0-.1-.07-.21-.11-.31a.52.52,0,0,1-.37-.49l.06-4.42a1.62,1.62,0,0,0-.22-1.1A.58.58,0,0,0,538.45,301.63Zm3.83-.39c-1.19,1.85-2.09,3.57-2,5.44a3.76,3.76,0,0,0,.14.87C542.21,306.1,543.28,303.32,542.28,301.24Z" transform="translate(-46.98 -59.1)"/><path class="cls-25" d="M484.56,353.62a2.31,2.31,0,0,1-1.67-.64,3.22,3.22,0,0,1-.8-1.57,8.18,8.18,0,0,1,4.46-9.17.5.5,0,0,1,.68.3,8.24,8.24,0,0,1-1.73,8,.5.5,0,1,1-.74-.68,7.28,7.28,0,0,0,1.67-6.41,7.29,7.29,0,0,0-3.37,7.75,2.21,2.21,0,0,0,.53,1.09c.74.74,2.16.23,3.23-.48a23.23,23.23,0,0,0,3.49-2.85,3.19,3.19,0,0,1-.39-.5,4.18,4.18,0,0,1-.5-2.57,10.23,10.23,0,0,1,4.77-7.95.5.5,0,0,1,.54,0c2,1.34,1.52,4.32.26,6.54a23.93,23.93,0,0,1-3.13,4.29,5.44,5.44,0,0,0,3.24-.1,15.08,15.08,0,0,0,7.77-5.7,12.8,12.8,0,0,1,2.5-5.66.48.48,0,0,1,.6-.15.5.5,0,0,1,.28.55,15.25,15.25,0,0,1-2.44,5.64,12,12,0,0,0-.06,3.28,2.15,2.15,0,0,0,.46,1.29,1,1,0,0,0,.75.3,4.39,4.39,0,0,0,2.54-1.58l5.44-6.16a.51.51,0,0,1,.66-.08.49.49,0,0,1,.16.64,2.47,2.47,0,0,0,3.06,3.46,2.48,2.48,0,0,0,1.46-1.24A.5.5,0,0,1,519,343a.49.49,0,0,1,.23.66,3.47,3.47,0,0,1-6.46-.42,4,4,0,0,1-.18-.83l-4.29,4.86A5.28,5.28,0,0,1,505,349.2a1.91,1.91,0,0,1-1.48-.59,3.07,3.07,0,0,1-.74-1.88,12.42,12.42,0,0,1-.09-1.93,16,16,0,0,1-7.27,4.81,6,6,0,0,1-4.27-.08,24.66,24.66,0,0,1-3.76,3.08A5.27,5.27,0,0,1,484.56,353.62ZM494.42,339a9.18,9.18,0,0,0-4,7,3.27,3.27,0,0,0,.35,2,2.49,2.49,0,0,0,.23.31,22.78,22.78,0,0,0,3.12-4.25C495.09,342.25,495.56,340,494.42,339Z" transform="translate(-46.98 -59.1)"/><path class="cls-25" d="M537,347.38a.54.54,0,0,1-.21-.05.55.55,0,0,1-.26-.28,19.85,19.85,0,0,1-1.17-6.87,10.46,10.46,0,0,1-7.07,3.44.5.5,0,1,1-.06-1,9.44,9.44,0,0,0,7.29-4.29.51.51,0,0,1,.59-.2.48.48,0,0,1,.33.52,18.68,18.68,0,0,0,.87,7.57A40.71,40.71,0,0,0,551.35,337a.51.51,0,0,1,.59-.09.5.5,0,0,1,.25.54,27.91,27.91,0,0,0-.35,7.9,25,25,0,0,0,11.38-8.56.5.5,0,0,1,.9.27l.3,6.58A33.39,33.39,0,0,0,575.91,336a.49.49,0,0,1,.65-.05.51.51,0,0,1,.15.64,2,2,0,0,0,.18,2.23,5.56,5.56,0,0,0,4.82,2.07,20.71,20.71,0,0,0,3.23-.76c1.93-.56,3.93-1.14,6-.66a12.09,12.09,0,0,1,1.81.63,6.11,6.11,0,0,0,2.77.66,6,6,0,0,0,2.22-.82l.68-.35c4.62-2.23,10.25-1.14,14.37-.35a.5.5,0,0,1,.39.59.5.5,0,0,1-.58.39c-5.16-1-9.75-1.65-13.75.27l-.65.33a7,7,0,0,1-2.59.94,6.93,6.93,0,0,1-3.23-.74,11.44,11.44,0,0,0-1.67-.58c-1.77-.42-3.56.1-5.46.65a21.29,21.29,0,0,1-3.38.79,6.56,6.56,0,0,1-5.77-2.5,3.34,3.34,0,0,1-.59-1.56,34.58,34.58,0,0,1-11.34,7,.54.54,0,0,1-.46-.05.53.53,0,0,1-.22-.4l-.26-5.92a26.07,26.07,0,0,1-11.62,8,.48.48,0,0,1-.42,0,.46.46,0,0,1-.23-.36,28.55,28.55,0,0,1,.05-7.33,41.92,41.92,0,0,1-13.81,8.55A.39.39,0,0,1,537,347.38Z" transform="translate(-46.98 -59.1)"/><path class="cls-25" d="M484.06,379.37a.49.49,0,0,1-.44-.27,7.19,7.19,0,0,1,.65-7.65.48.48,0,0,1,.57-.16l6.2,2.41A30.91,30.91,0,0,1,512.2,376l2.58-5.56a.5.5,0,0,1,.83-.11c3,3.5,6.29,6.94,10.52,7.14a6.14,6.14,0,0,0,5.08-2.79,4.9,4.9,0,0,1-1.25-3.36,3.3,3.3,0,0,1,1.28-2.6.51.51,0,0,1,.64,0,4.42,4.42,0,0,1,.88,5.19c-.08.18-.17.36-.26.54a9.32,9.32,0,0,0,5.34,1.33,41.73,41.73,0,0,0,11.82-1.45,16.66,16.66,0,0,0,2.16-.73,4.9,4.9,0,0,1-.79-.72,4.64,4.64,0,0,1-.6-4.87,2.73,2.73,0,0,1,2.64-1.69,2.89,2.89,0,0,1,2.35,1.6,4.22,4.22,0,0,1,0,4,5.48,5.48,0,0,1-1.45,1.61,5.17,5.17,0,0,0,1.31.17h0a4.72,4.72,0,0,0,3.49-1.43,4.43,4.43,0,0,0,1.07-2.24,7.19,7.19,0,0,1-1.89-5.17.53.53,0,0,1,.3-.43.52.52,0,0,1,.51.06,5.75,5.75,0,0,1,2.14,4.07,7.1,7.1,0,0,1,0,1.13l.13.13a5.93,5.93,0,0,0,9.45-1.13,6.92,6.92,0,0,0,1.06-2.74,3.76,3.76,0,0,1-.18-2.81.49.49,0,0,1,.47-.35h0a.51.51,0,0,1,.47.36,6.8,6.8,0,0,1,.26,2.62,3.47,3.47,0,0,0,.38.59,5.33,5.33,0,0,0,4.39,1.91c2.81-.27,5.15-2.29,7.5-4.51a.5.5,0,0,1,.38-.14.52.52,0,0,1,.36.19c2.5,3.18,6.92,4.79,11.56,4.2s8.53-3.25,10.15-6.95a.53.53,0,0,1,.41-.3.51.51,0,0,1,.46.21,11.8,11.8,0,0,0,9.53,4.77h0a.5.5,0,0,1,.5.5.49.49,0,0,1-.49.5,12.8,12.8,0,0,1-9.85-4.54,14.58,14.58,0,0,1-22.71,2.65c-2.36,2.2-4.74,4.13-7.7,4.42a6.28,6.28,0,0,1-5.14-2.14,8.22,8.22,0,0,1-1,2.11,7.28,7.28,0,0,1-5.16,3.38,7.18,7.18,0,0,1-5.48-1.78,5.29,5.29,0,0,1-1.18,2.11,5.53,5.53,0,0,1-4.25,1.75,5.94,5.94,0,0,1-2.39-.49,14.48,14.48,0,0,1-3,1.11,42.59,42.59,0,0,1-12.11,1.48,10.3,10.3,0,0,1-5.85-1.48,7.21,7.21,0,0,1-5.61,3.15h-.26c-4.39-.21-7.72-3.45-10.73-6.9l-2.48,5.32a.48.48,0,0,1-.29.27.53.53,0,0,1-.39,0,29.82,29.82,0,0,0-21.06-2.43.65.65,0,0,1-.31,0l-6-2.33a6.14,6.14,0,0,0-.86,2l.21,0a.5.5,0,0,1,.48.52l-.11,4a.51.51,0,0,1-.39.48Zm47.45-9.54a2.49,2.49,0,0,0-.55,1.54,3.86,3.86,0,0,0,.78,2.4l.09-.21A3.52,3.52,0,0,0,531.51,369.83Zm21.4-2.47a1.77,1.77,0,0,0-1.57,1.12,3.65,3.65,0,0,0,.43,3.77,4.18,4.18,0,0,0,1.07.85,4.75,4.75,0,0,0,1.7-1.66,3.24,3.24,0,0,0,0-3,1.91,1.91,0,0,0-1.53-1.07Zm6.13-1.15a6.11,6.11,0,0,0,.85,2.21A4.92,4.92,0,0,0,559,366.21Z" transform="translate(-46.98 -59.1)"/><path class="cls-25" d="M557.12,418.3a3.44,3.44,0,0,1-.84-.1.5.5,0,0,1-.38-.58c.44-2.24-1.7-4.42-4-5.05a17.2,17.2,0,0,0-5.71-.24c-.63.05-1.27.09-1.91.11a58.87,58.87,0,0,1-10.95-1c-6.56-1-12.76-2-18.26,1-.53.28-1.07.6-1.62.92-2.49,1.46-5.32,3.12-8,1.76a9.3,9.3,0,0,1-2.8-2.65c-1.07-1.33-1.95-2.47-3.39-2.44s-2.28,1.35-3.25,2.85a9,9,0,0,1-2.68,3.09,4,4,0,0,1-4.29,0,9.18,9.18,0,0,1-3.68-4.62l0,.48a.48.48,0,0,1-.53.47.51.51,0,0,1-.47-.53l.27-4.22a.5.5,0,0,1,.5-.47h0a.5.5,0,0,1,.48.5c0,2.93,1.76,6.3,3.93,7.52a3.06,3.06,0,0,0,3.28,0,8.53,8.53,0,0,0,2.36-2.78c1-1.59,2.07-3.24,4.06-3.31s3.07,1.4,4.2,2.81a8.47,8.47,0,0,0,2.47,2.39c2.18,1.11,4.64-.34,7-1.74.55-.32,1.11-.65,1.65-.94,5.79-3.08,12.45-2.05,18.89-1.06a58.63,58.63,0,0,0,10.76,1c.62,0,1.25-.06,1.88-.1a17.81,17.81,0,0,1,6,.27c2.52.7,4.93,3,4.75,5.68,1.61.1,3-1.31,4.42-2.68.41-.4.81-.8,1.22-1.16a5.45,5.45,0,0,1,5.62-.81,2.19,2.19,0,0,1,1.14,1.4l12.37-7.76a.5.5,0,0,1,.49,0,.48.48,0,0,1,.27.4,12.6,12.6,0,0,0,2.77,6.8,9.94,9.94,0,0,1,16,.92c1.84-2.72,5.76-3.28,9-3.75a54.9,54.9,0,0,0,21.68-8.05.5.5,0,0,1,.54.84,55.87,55.87,0,0,1-22.08,8.2c-3.3.48-7.41,1.07-8.7,4.07a.46.46,0,0,1-.47.3.51.51,0,0,1-.46-.32c-1-2.7-3.75-4.53-7.16-4.79s-6.4,1.15-7.8,3.66a.48.48,0,0,1-.38.25.51.51,0,0,1-.43-.16,13.42,13.42,0,0,1-3.37-7.08l-12.42,7.79a.5.5,0,0,1-.76-.5,1.18,1.18,0,0,0-.66-1.32,4.49,4.49,0,0,0-4.49.68c-.39.34-.78.73-1.17,1.12C560.65,416.73,559.06,418.3,557.12,418.3Z" transform="translate(-46.98 -59.1)"/><path class="cls-27" d="M337.75,475.58a99.21,99.21,0,0,1-20.36-2c-.38-.08-38.38-8.71-36.64-23.18.58-4.78,8.09-10.67,14.12-15.41,1.91-1.5,3.56-2.79,4.6-3.76q10.06-9.39,20.17-18.73c32.52-30,58-52.42,82.66-72.65a1,1,0,0,1,1.05-.17c19.42,7.41,32.5,29.88,31.09,53.41C433,417.85,418,438,405.76,450.45c-7.89,8.05-15.05,13.41-22.55,16.87-7.07,3.27-14.69,4.87-20.54,5.9A143.38,143.38,0,0,1,337.75,475.58Z" transform="translate(-46.98 -59.1)"/><path class="cls-28" d="M269.31,446.44c-2.49,0-5.29-1.52-9-5.38a51.56,51.56,0,0,1-11.95-21.76h0c-3.54-12.54-3.34-25.65-3.16-38.34,0-1.82.17-3.72,1.46-5.1a7.08,7.08,0,0,1,4.31-1.81c18.13-2.8,36.43-.13,54.14,2.45l39.18,5.72a1,1,0,0,1,.81.61,1.06,1.06,0,0,1-.07,1c-3.74,5.81-9.36,10-14.79,14.08l-.47.36c-16.52,12.38-32.67,25.66-48,39.47-1.08,1-2.06,1.9-3,2.77C275.28,443.86,272.56,446.44,269.31,446.44Z" transform="translate(-46.98 -59.1)"/><path class="cls-29" d="M350.63,376.46a8.57,8.57,0,0,1-1-.07c-9.13-1.21-9.59-25.27-9.27-49.82,0-4.19.1-7.49,0-9.45a16.34,16.34,0,0,1,.71-7.12c1.28-3.16,4.53-5.59,8.49-6.34a25.36,25.36,0,0,1,10.33.68,172.32,172.32,0,0,1,19.53,6.11c9.51,3.4,20,7.81,23.68,17.27a7.48,7.48,0,0,1,.63,3.72c-.27,2.13-1.78,3.69-3.37,5.1-.74,3.21-8.24,9.31-21.46,19.12-2.61,1.94-4.68,3.47-5.55,4.23-1.11.95-2.48,2.35-4.07,4C364,369.21,356.87,376.45,350.63,376.46Z" transform="translate(-46.98 -59.1)"/><path class="cls-30" d="M341,372.2a1,1,0,0,1-.74-.3c-2.07-2-4.09-4-6.11-6-3.89-3.91-7.92-8-12.21-11.66a217.07,217.07,0,0,1-23-23.27,5.41,5.41,0,0,1-1.24-2.06,5.16,5.16,0,0,1,.76-3.74,30.31,30.31,0,0,1,27.92-15.49,5.36,5.36,0,0,1,3.87,1.52,5.72,5.72,0,0,1,1.1,3.22c1.63,14.95,4.86,29.69,8,43.95.92,4.18,1.84,8.38,2.72,12.59a1.05,1.05,0,0,1-.53,1.15A1,1,0,0,1,341,372.2Z" transform="translate(-46.98 -59.1)"/><path class="cls-31" d="M336.4,377.42c-8.85,0-18.11-3.58-27.12-7.05-8.24-3.19-16.76-6.48-24.66-6.85-2.19-.1-4.47-.06-6.68,0-5.81.11-11.82.23-17.24-2.25a4.25,4.25,0,0,1-2.24-1.88,4.37,4.37,0,0,1,.1-3.42,49.43,49.43,0,0,1,16.42-23,11.68,11.68,0,0,1,3.85-2.17,10.47,10.47,0,0,1,6.08.36c8.35,2.54,14.49,9,20.42,15.32,1,1.07,2,2.13,3,3.17,9.48,9.75,20.26,16.56,31.68,23.78l2.44,1.55A1.07,1.07,0,0,1,343,376a1.08,1.08,0,0,1-.84.85A29.46,29.46,0,0,1,336.4,377.42Z" transform="translate(-46.98 -59.1)"/><path class="cls-25" d="M354.42,498.51a3.4,3.4,0,0,1-1.2-.2c-1.87-.67-2.5-2.91-2.29-4.7a8.17,8.17,0,0,1,7.37-6.94.51.51,0,0,1,.52.38,8.8,8.8,0,0,1-5.64,10.13,1.93,1.93,0,0,0,.38.19,3.74,3.74,0,0,0,2,0,16,16,0,0,0,9.13-6.25,7.28,7.28,0,0,1,2.8-4.48.51.51,0,0,1,.61,0,.5.5,0,0,1,.13.6,26.19,26.19,0,0,1-2.61,4.29,6.17,6.17,0,0,0,.45,3.6,13.34,13.34,0,0,0,6.41-7.42.51.51,0,0,1,.43-.34,1.15,1.15,0,0,1,.88.28,2.87,2.87,0,0,1,.52,2.08c0,.3,0,.6,0,.86a1.34,1.34,0,0,0,.79,1,3.89,3.89,0,0,0,3.33-.21c.46-.25.93-.57,1.39-.88,1.25-.85,2.55-1.74,4.12-1.67a7,7,0,0,1,3.31,1.29,11.41,11.41,0,0,0,1.72.91,2.9,2.9,0,0,0,2.76-.5.91.91,0,0,0,.3-1,.51.51,0,0,1,.32-.63.5.5,0,0,1,.63.33,1.88,1.88,0,0,1-.56,2.05,3.88,3.88,0,0,1-3.81.7,12.45,12.45,0,0,1-1.88-1,6.13,6.13,0,0,0-2.82-1.14,6.2,6.2,0,0,0-3.53,1.5c-.48.32-1,.65-1.47.93a4.9,4.9,0,0,1-4.26.22,2.3,2.3,0,0,1-1.33-1.81,9.71,9.71,0,0,1-.05-1,5.17,5.17,0,0,0-.09-1.14,14.38,14.38,0,0,1-7.17,7.65.5.5,0,0,1-.64-.21,7,7,0,0,1-.87-3.19,16.45,16.45,0,0,1-8.77,5.48A6.26,6.26,0,0,1,354.42,498.51Zm3.52-10.8a7.14,7.14,0,0,0-6,6,4.34,4.34,0,0,0,.48,2.64,7.44,7.44,0,0,0,4.48-3.45A7.55,7.55,0,0,0,357.94,487.71Z" transform="translate(-46.98 -59.1)"/><path class="cls-25" d="M212.86,395a.43.43,0,0,1-.25-.07.48.48,0,0,1-.25-.4,18.25,18.25,0,0,1,1.41-8.32.51.51,0,0,1,.57-.29.5.5,0,0,1,.39.5l-.06,2.67a.47.47,0,0,1-.51.48.46.46,0,0,1-.38-.19,17.36,17.36,0,0,0-.46,4.31,10.93,10.93,0,0,0,5.29-7.66c0-.18,0-.36.07-.54a.5.5,0,0,1,.56-.42.5.5,0,0,1,.43.55c0,.18,0,.36-.07.54a10.32,10.32,0,0,0,.32,3.87,9.21,9.21,0,0,1,4.36.6,16.29,16.29,0,0,0,2,.54,4.41,4.41,0,0,0,3.7-1.08,1.56,1.56,0,0,0,.43-1.52.5.5,0,0,1,.35-.61.5.5,0,0,1,.61.36,2.56,2.56,0,0,1-.65,2.45,5.35,5.35,0,0,1-4.62,1.38,19,19,0,0,1-2.13-.56,7.41,7.41,0,0,0-4.27-.48.5.5,0,0,1-.62-.33,11.4,11.4,0,0,1-.4-1.63,11.89,11.89,0,0,1-5.63,5.8A.5.5,0,0,1,212.86,395Z" transform="translate(-46.98 -59.1)"/><path class="cls-25" d="M244.64,337.92a.52.52,0,0,1-.32-.11,3.62,3.62,0,0,1-1.43-3.55,2.37,2.37,0,0,1,1.76-1.6,1.79,1.79,0,0,1,1.8.56.5.5,0,0,1-.07.7.49.49,0,0,1-.7-.07.83.83,0,0,0-.81-.21,1.34,1.34,0,0,0-1,.88,2.35,2.35,0,0,0,.66,2.08c.72-1.26,2.19-3.39,4.37-3.17a5.37,5.37,0,0,1,2.81,1.55,11.55,11.55,0,0,0,.94.76,2.65,2.65,0,0,0,2.2.38.83.83,0,0,0,.56-.59.51.51,0,0,1,.61-.37.51.51,0,0,1,.36.61,1.83,1.83,0,0,1-1.18,1.28,3.59,3.59,0,0,1-3.13-.49,12.93,12.93,0,0,1-1-.82,4.52,4.52,0,0,0-2.26-1.31c-1.29-.14-2.49.92-3.7,3.22a.49.49,0,0,1-.35.26Z" transform="translate(-46.98 -59.1)"/><path class="cls-25" d="M310.89,300.3a4.46,4.46,0,0,1-3.72-2.28,3.55,3.55,0,0,1-.49-1.81,1.61,1.61,0,0,1,.57-1.63.5.5,0,0,1,.67,0,.48.48,0,0,1,.09.66c-.06.08-.1.17-.15.25h0a.5.5,0,0,1,.61.35.79.79,0,0,1-.53,1l-.22.05a2.51,2.51,0,0,0,.28.69,3.44,3.44,0,0,0,3,1.78c1.94-.12,3.81-1.71,5-4.25a.5.5,0,1,1,.9.42c-1.33,2.88-3.51,4.68-5.83,4.83Z" transform="translate(-46.98 -59.1)"/><path class="cls-25" d="M393.21,298.72c-1.88,0-3.33-1.89-4.2-4a13,13,0,0,1-5.13,3.51.5.5,0,0,1-.43-.05.48.48,0,0,1-.24-.36,60.85,60.85,0,0,1-.53-9.64,14.71,14.71,0,0,1-7.93,3.5.49.49,0,0,1-.41-.14.49.49,0,0,1-.15-.4,13.82,13.82,0,0,1,3.77-8.26.5.5,0,0,1,.63-.07.51.51,0,0,1,.19.61L376.37,289a.5.5,0,0,1-.66.26.58.58,0,0,1-.15-.11,12,12,0,0,0-.3,1.45,14,14,0,0,0,7.6-4,.49.49,0,0,1,.56-.11.49.49,0,0,1,.3.48,60.16,60.16,0,0,0,.4,10,11.75,11.75,0,0,0,4.66-3.62.5.5,0,0,1,.48-.19.47.47,0,0,1,.39.34c.74,2.24,2.27,4.66,4.15,4.09a4.22,4.22,0,0,0,1.72-1.34c.22-.23.43-.46.66-.67,1-1,2.68-1.48,3.7-.51a.5.5,0,1,1-.69.73c-.55-.52-1.63-.14-2.33.51-.21.2-.41.41-.61.63a5,5,0,0,1-2.16,1.6A2.78,2.78,0,0,1,393.21,298.72Z" transform="translate(-46.98 -59.1)"/><path class="cls-32" d="M772.25,780.07c-1.18-33,1.29-66.67,1.07-99.88a98.27,98.27,0,0,0-3.66-34.06,5.84,5.84,0,0,0-.8-1.87c-1.23-1.6-3.31-.75-4.93.1-15.53,8.13-33.88,6.22-48-5.27-2.79,5.41-3.6,12.06-4.29,18.48-1.11,10.37-2.33,20.73-2.63,31.15,0,0,0,0,0,.06h0c-.06,2.24-.09,4.48-.06,6.72.19,13,2.17,25.79,3.71,38.6a230.59,230.59,0,0,1,2,25.22c.07,6.93-.69,13.26.53,20,3,16.7,3,34.89,4.28,51.95,1.36,18.27,2.7,36.55,3.81,54.84,0,.73.09,1.46.13,2.19.73.25,11.8,3.49,11.8-.16q1.33-53.26,2.66-106.55c.38-14.94-.47-65.43,2.51-79.67l3.68.47c6.75,47,14.75,129.32,21.5,176.32.6,4.14,1.32,8.6,3.47,11.27s6.15,1.92,6.78-2.2C773.75,851.9,773.52,816,772.25,780.07Z" transform="translate(-46.98 -59.1)"/><path class="cls-33" d="M702.89,605.39c-5.59,21.31-12,44.6-17,59.43-11.28,33.39-13.52,48.62-13.52,48.62,1.72,1.27,17.18,1.58,19.35,1.68,6.57.31,13.22.27,19.79.09,22.57-.58,75.52,6.33,98.9,1.31-6.23-12.56-10.9-25.86-16-38.94-6.82-17.36-.46-38.28-6.14-56.06a136,136,0,0,0-5.58-13.81l-12.17-26.39-52.7-.87-11.53,11.82Z" transform="translate(-46.98 -59.1)"/><path class="cls-24" d="M766.32,625.34a301.37,301.37,0,0,1,46-5.69l5,45.09a2.27,2.27,0,0,1-2.14,2.92,125.58,125.58,0,0,1-15.77,3.1l-44.67,6.81a2,2,0,0,1-1.34-.11,2,2,0,0,1-.62-.82c-3.77-7.76-3.73-16.73-5-25.27-.48-3.29-1.17-6.54-1.92-9.77-.67-2.87-2.14-6.23-2.07-9.18.13-5.24,7.6-4.51,11.09-5C758.74,627,762.53,626.11,766.32,625.34Z" transform="translate(-46.98 -59.1)"/><path class="cls-34" d="M786.46,534c-5.14-25.54-3.61-51.88-3.23-77.92.1-7.05,0-14.52-3.7-20.52-1-1.55-2.28-3.05-4.07-3.4a9.21,9.21,0,0,0-3.71.38c-16.23,3.68-32.92-4.33-49.54-3.45a12.82,12.82,0,0,0-6.34,1.63,13.26,13.26,0,0,0-3.21,3.26c-9.15,12-14.6,26.31-19.06,40.69C685.45,501,680.24,528.13,675,555.18l-2.68,5c12.82-4.61,26.91-3.28,40.48-2.08q30.38,2.67,60.86,4a19.12,19.12,0,0,0,5.07-.22c5.24-1.17,8.64-6.56,9.37-11.88S787.52,539.3,786.46,534Z" transform="translate(-46.98 -59.1)"/><path class="cls-32" d="M732.92,461.31a31.1,31.1,0,0,0,10,3.83c3.18.4,6.32-.84,9.29-2.05,6.1-2.51,12.59-5.31,16.17-10.86,2.1-3.24,3-7.1,3.75-10.88q2.9-14.3,4.4-28.83c.51-5,.85-10.24-1.42-14.69-3.81-7.49-13.24-9.76-21.53-11.21s-16.86-2.8-24.58.27c-8.09,3.22-7,9.41-8.41,16.83-1.79,9.28-3.3,18.6-4.41,28-.63,5.32-1.1,11,1.14,15.84C719.44,452.07,726.27,457.64,732.92,461.31Z" transform="translate(-46.98 -59.1)"/><path class="cls-24" d="M709.92,534.06c3.9,17.07,2.72,5.85,5.78,23.11,0,0-15.36,30.65-19.36,46.46,6.44.66,25.68-.68,31.32,0,16,1.91,44.91-3.06,60.68.19-3.93-9.68-19.63-29.93-18.34-38.5,2.79-18.67,2.73-28.59,8.19-46.67a19.35,19.35,0,0,1,4.39-7.8c-1.16-4.83-2.31-9.09-3.45-12.66l-7.32-18.76s-8.33-14.68-39.27-10.75c-22.1,2.8-20.29,33.48-20.29,33.48h.14c-.24,3.15-1.67,13.73-3.51,27.64C709.24,531.21,709.59,532.63,709.92,534.06Z" transform="translate(-46.98 -59.1)"/><path class="cls-35" d="M739.14,497.45c-2.44-4.81-2.36-8.48-3.66-13.84a115,115,0,0,0-4.48-14.5l0,0c0-.29-.38-.46-.56-.15a24.06,24.06,0,0,1-6.22,7.12.69.69,0,0,0,.12,1.12c1.36.55,4.26,1.37,5.18,2.87,1.28,2.08-1.39,4.56-2.54,5.74a.75.75,0,0,0,0,.89,73.64,73.64,0,0,0,12.36,13.81c.41.36.79-.22.67-.7A10.48,10.48,0,0,0,739.14,497.45Z" transform="translate(-46.98 -59.1)"/><path class="cls-35" d="M754.68,475.58A28.83,28.83,0,0,1,749,480a1.07,1.07,0,0,0-.26,1.43,18.5,18.5,0,0,0,3.7,3.52c-3.53,5.74-7.13,11.3-11.44,15.78,1.26-9.38,2.73-18.72,4.81-27.78.62-2.67.9-5.36,3.15-4.67,1.69.51,3.57,2.71,5.12,3.89a14.52,14.52,0,0,1,2.28,1.74C756.29,474.23,754.89,475.38,754.68,475.58Z" transform="translate(-46.98 -59.1)"/><path class="cls-33" d="M790.15,542.49c-.78-11.7-1.7-23.38-5.11-34.66-3.23-10.71-8.16-20.77-13.09-30.78.07-.39-2.51-1.13-3-1.26-8-2-10.85,5.76-10.63,13.1.39,12.85,5.69,25.06,10.16,36.76,5.34,14,8,29.6,10.54,44.28,2.62,15.06,6.56,30.15,7.74,45.39a.9.9,0,0,0,.81.72c1.36.11,3.88.38,5.25.49a.92.92,0,0,0,1-.84C792.78,591.28,791.78,566.87,790.15,542.49Z" transform="translate(-46.98 -59.1)"/><path class="cls-36" d="M740.37,500.64a.86.86,0,0,1-.17,0Z" transform="translate(-46.98 -59.1)"/><path class="cls-36" d="M740.74,500.51l-.1.05Z" transform="translate(-46.98 -59.1)"/><path class="cls-37" d="M740.58,500.59l.06,0a1.38,1.38,0,0,1-.27.08A1.6,1.6,0,0,0,740.58,500.59Z" transform="translate(-46.98 -59.1)"/><path class="cls-32" d="M730.41,468.93s2.57,9.66,4.89,18.2c1.79,6.6,3.43,12.52,3.61,12.78a1.7,1.7,0,0,0,1.29.76.86.86,0,0,0,.17,0,1.38,1.38,0,0,0,.27-.08l.1-.05a3.92,3.92,0,0,0,1.43-2.28c.34-1,1.05-3.69,1.88-7,2.18-8.62,5.27-21.63,5.27-21.63S748.36,465.09,730.41,468.93Z" transform="translate(-46.98 -59.1)"/><path class="cls-34" d="M741.9,415.62c2.46.12,5,.23,7.26-.84s3.88-3.72,3-6c-1.91,3.11,2.29,6.33,5.72,7.59l13.43,4.94c10.3,50,4,101.76-2.34,152.42l22.87.71a3.15,3.15,0,0,0,2.1-.44,3.09,3.09,0,0,0,.82-2.28c3.69-48,1.39-96.29-2.8-144.26-.47-5.38-1-10.8-2.61-15.94-1.79-5.65-4.88-10.78-8.07-15.76-3.47-5.43-7.18-10.86-12.26-14.82-8.67-6.74-20.47-8.4-31.33-6.74-5.94.9-11.85,2.78-16.64,6.41-6.49,4.91-10.32,12.54-13.23,20.14-4.27,11.14-7,22.79-9.82,34.39Q683,497.79,668.09,560.45q9.52,3.27,19.21,6.08c2,.57,4.37,1,5.85-.39a6.06,6.06,0,0,0,1.34-3.83A806.63,806.63,0,0,1,712.8,456.4c2.45-10.12,5.12-20.27,9.32-29.83C727.23,414.93,729.61,415,741.9,415.62Z" transform="translate(-46.98 -59.1)"/><path class="cls-33" d="M708.76,480.85c-4.93,5.08-8.16,11.71-11.56,17.8-3.83,6.85-7.59,18.28-10.17,25.69-1.11,3.16-2.29,8.87,2,10.47s7.31-4.4,9.09-6.95c9.31-13.36,16.11-25.18,24.15-39.32a27.26,27.26,0,0,0,1.38-2.54c.49-2.64,1.17-7-.66-9.35C720.48,473.44,711.33,478.2,708.76,480.85Z" transform="translate(-46.98 -59.1)"/><path class="cls-33" d="M670.19,462.93c-3.52.42-4.82,1.09-5.17,3.78a16.7,16.7,0,0,0,1.28,6.59c4.87,18,9.1,32.05,15.47,49.94,1.65,4.63,2.93,9.86,7.18,10.76,3.25.69,6.9-.8,7.34-4.88.55-5.12-1.82-14.63-4-19.61-4-8.93-8.34-22.53-12.35-31.47-1.92-4.26-3.75-8.6-5.76-12.82C673.12,463.09,672.43,462.67,670.19,462.93Z" transform="translate(-46.98 -59.1)"/><path class="cls-35" d="M742.23,552.49c-.81-16.84-4.28-33.57-3.13-50.48,0-.28-.42-.28-.44,0-1.31,16.94,2,33.61,2.75,50.48a97.72,97.72,0,0,1-2,25.93c-1.75,7.84-4.08,15.55-4.81,23.59-.06.66,1,.67,1,0,.59-8.71,3.39-17,5.1-25.48A97.81,97.81,0,0,0,742.23,552.49Z" transform="translate(-46.98 -59.1)"/><path class="cls-35" d="M744.69,583.41a1.13,1.13,0,0,0-1.26,1.68.49.49,0,0,0,.42.24,1.43,1.43,0,0,0,1.46-1.42A.54.54,0,0,0,744.69,583.41Z" transform="translate(-46.98 -59.1)"/><path class="cls-35" d="M747.86,560.77a.52.52,0,0,0-.79,0c-.6.12-1.25,1.06-.57,1.57C747.44,563,748.63,561.62,747.86,560.77Z" transform="translate(-46.98 -59.1)"/><path class="cls-35" d="M746.13,535.3a.55.55,0,0,0-.27.1.25.25,0,0,0-.31-.06c-.92.43-.35,1.83.59,1.76a1.14,1.14,0,0,0,1-.88C747.31,535.6,746.67,535.25,746.13,535.3Z" transform="translate(-46.98 -59.1)"/><path class="cls-35" d="M744.47,512.38c-.4-.3-.83.14-.81.54a.86.86,0,0,0,.28,1.4.8.8,0,0,0,1-.61A1.18,1.18,0,0,0,744.47,512.38Z" transform="translate(-46.98 -59.1)"/><path class="cls-38" d="M734,875.77a1.82,1.82,0,0,1,2.35,2.22q.21,14.6.06,29.2a2,2,0,0,1-.23,1.15A1.93,1.93,0,0,1,735,909a13.51,13.51,0,0,1-4.09.61l-1.86-5.22a3.54,3.54,0,0,0-.7-1.33,2.72,2.72,0,0,0-1.78-.71,5.87,5.87,0,0,0-5.8,3.68c-.66,1.74-.53,3.91-1.93,5.15a5.75,5.75,0,0,1-3.68,1l-16.84.72a3,3,0,0,1-2.33-.54,3.12,3.12,0,0,1-.61-1.08l-1.57-4c-.55-1.38-1.1-2.9-.65-4.32a4.79,4.79,0,0,1,1.58-2.14c4.31-3.6,10.83-2.4,16-4.49a15,15,0,0,0,7.79-7.69,19,19,0,0,0,1.58-6.42c.11-1.51-.2-3.42,1-4.63C723.43,875.21,730.84,876,734,875.77Z" transform="translate(-46.98 -59.1)"/><path class="cls-38" d="M786.22,909.56a8.34,8.34,0,0,0-1.31-2,31.34,31.34,0,0,1-6.83-16.17c-.2-2.12-.12-4.25-.36-6.36a33.21,33.21,0,0,0-1-4.92.88.88,0,0,0-1.14-.81l-4.94.39c-1.3.11-3.88-.2-5,.45-1.92,1.1-.15,6.25.07,8.08.87,7,1.33,14.12.17,21.1a17.46,17.46,0,0,0-.43,4.48,4.71,4.71,0,0,0,2.17,3.75,6.56,6.56,0,0,0,2.85.59c4.44.25,9.22.27,12.92-2.21C785.47,914.5,787.12,911.9,786.22,909.56Z" transform="translate(-46.98 -59.1)"/><path class="cls-32" d="M793,615.66a10.45,10.45,0,0,0-1.15-4.07c-.79-1.19-2.49-1.93-3.67-1.14-1.9,1.28-.53,3.72-.8,5.5-.24,1.54-3.33,4.27-2,5.71.76.86,2.16,0,3.31.12,0,2-.05,3.89-.07,5.84a9,9,0,0,0,.58,4.06,3.08,3.08,0,0,0,3.35,1.83,3.69,3.69,0,0,0,2.21-2.65C796.31,625.93,793.9,620.75,793,615.66Z" transform="translate(-46.98 -59.1)"/><path class="cls-39" d="M621,367.59c-.29.6,4.7,8.06,5.28,9.06q2.78,4.77,5.56,9.55l11,18.86q9.75,16.85,19.48,33.7l9.78,17,4.82,8.38c1,1.71,2.85,6.48,4.63,7.14,2.75,1,.33-2.37-.38-3.6l-5-8.63-9.67-16.77-19.61-34c-4.74-8.23-9.49-16.46-14.46-24.55q-4.77-7.77-9.82-15.35C622.2,367.7,621.31,367,621,367.59Z" transform="translate(-46.98 -59.1)"/><path class="cls-40" d="M954,140.77c-147.45-3.39-415.47.76-562.71-.69-79.26-.78-158.54,1.44-237.82,2.17,1.78,5.14-6.15,10.27-4.37,15.41,227.68-.22,578.86-.06,806.25-1.92C958.21,151.15,957.58,146,954,140.77Z" transform="translate(-46.98 -59.1)"/><path class="cls-41" d="M830.66,914.61c-.47-11.24-.93-22.49-1.74-33.72-.24-3.31.39-8.86-2.28-11.42-2.36-2.26-7.95-2.39-10.77-1.32a4.5,4.5,0,0,0-2.8,2.75c-.46,1.53.17,3.15.7,4.65,1.77,5.05,2.42,10.4,3.6,15.61.81,3.53,1.86,7,2.9,10.46q2.38,7.85,4.75,15.69a3.53,3.53,0,0,0,.64,1.37c1,1.11,2.72.72,4.1.24a1.17,1.17,0,0,0,1-1.42Z" transform="translate(-46.98 -59.1)"/><path class="cls-42" d="M338.4,931.38a3.65,3.65,0,0,0-1.58-2.21,4.29,4.29,0,0,0-1.92-.3l-12.71,0a9.63,9.63,0,0,1-2.08-.16c-1.62-.38-2.9-1.57-4.24-2.56a27.17,27.17,0,0,0-13.6-4.77,58.38,58.38,0,0,0-8.57-.09c-1.71.09-4.13-.2-5.31,1.31-1,1.31-1.11,3.92-1.35,5.47a44.87,44.87,0,0,0-.47,7.94c.05,1.76.32,3.73,1.73,4.79a6.39,6.39,0,0,0,3,1c14.14,2,28.65,3.91,42.59.81a6.65,6.65,0,0,0,3.9-1.9,5.55,5.55,0,0,0,1-2.29A12.91,12.91,0,0,0,338.4,931.38Z" transform="translate(-46.98 -59.1)"/><path class="cls-43" d="M252,822.42a3.33,3.33,0,0,0-2.22.86,3.45,3.45,0,0,0-.5,2.46q.66,12.46,1.31,25c.55,10.5,1.1,21,2.44,31.45,1.72,13.39,4.72,26.58,7.91,39.7a4.69,4.69,0,0,0,.94,2.16,4.19,4.19,0,0,0,2.11,1,24.11,24.11,0,0,0,15.49-1.27q1.47-46.37,2.93-92.75l1.29-5.77A77.43,77.43,0,0,0,252,822.42Z" transform="translate(-46.98 -59.1)"/><path class="cls-43" d="M289.9,922.79a2.88,2.88,0,0,0,.28,1.51,2.85,2.85,0,0,0,1.88,1,69.85,69.85,0,0,0,16.55,1.93,3.42,3.42,0,0,0,1.79-.34c.89-.54,1.11-1.72,1.24-2.76,3.53-28.49,7.61-56.92,13.1-85.09.74-3.82,1.36-8.24-1.18-11.18-2.31-2.66-6.26-3-9.78-3.06l-14.73-.44c-7.62-.23-11,2.81-10.73,10.5.14,4.68.95,9.26,1.26,13.92,1.05,15.4.24,31.11.27,46.55Q289.88,909.07,289.9,922.79Z" transform="translate(-46.98 -59.1)"/><path class="cls-44" d="M308.49,561.39c0-16-14-29-31.21-29s-31.22,13-31.22,29a27,27,0,0,0,1.16,7.71c0,.63,0,1.28,0,1.95a82.39,82.39,0,0,0,1.3,17.31c2.2,11.1,7.94,21.42,18.81,27.74a24.2,24.2,0,0,0,12.11,3.67c5.82,0,11.16-3,15.2-6.75,13.35-12.26,14.5-30.7,13.56-48.1A27.41,27.41,0,0,0,308.49,561.39Z" transform="translate(-46.98 -59.1)"/><path class="cls-43" d="M347.23,793.1c-.1-24.33,6.92-38.23,6.82-62.56-.08-20.51-3-62-6.35-82.26-1.85-11.14-13.39-5.71-19-15.65-.8-1.42-.93-2.37-8.33-4.53-1.61-.46-5.43-2.43-7.4-2.13-9.66,1.48-19.5-1.83-29.16-.35-10.22,1.56-27.37-3.12-35.34,3.2-10.77,8.55-35.39,19.65-37.1,32.93-2.31,17.92,10.63,46.09,9.67,64.12-.85,15.83,4.13,30.89,3.8,46.73-.16,8.26-3.49,37,4.7,42.5,4.8,3.23,17.63,4.55,30.84,4.95l1.43,0h.38c5.38.12,10.75.11,15.62,0,7.19-.14,13.28-.45,16.58-.73,15.4-1.27,30.62-4.11,45.71-7.25,2.68-.55,5.64-1.3,7.11-3.52C348.28,807,347.24,795,347.23,793.1Z" transform="translate(-46.98 -59.1)"/><path class="cls-45" d="M224.46,716.76c1.36-12.21,1.63-18.65,7.81-29.27,7.4-12.7,7.78-19.17,21.83-23.47s43.12-1,57.8-1.74c3.19-.16,6.52-.28,9.42,1.06,3.47,1.6,5.7,5,7.53,8.37,11.32,20.73,14,15.9,16.53,39.38q5.88,55.17,11.77,110.34c.31,2.91.55,10.11-1.09,12.53s-4.79,3.39-7.67,4.12c-34.17,8.65-69.7,7.95-104.88,5.73-10.34-.65-26.89-3.21-31.95-14-4.23-9,1.18-24.8,2.24-34.29C217.35,763.6,220.9,748.69,224.46,716.76Z" transform="translate(-46.98 -59.1)"/><path class="cls-40" d="M228.12,889c1.51-16.73,3-33.47,5.75-50,2.1-.69,4.38,1,5.15,3s.44,4.36.06,6.53c-1.21,6.88-2.78,13.71-3.31,20.68-.47,6.32-.07,12.67-.37,19-.38,8.18-1.93,16.25-3.28,24.33-1.66,10-3,20-4.05,30s-.76,20.23-2.08,30.1c-7,2.53-4.59-9.14-4.31-12.22l2.19-24.23Q226,912.62,228.12,889Z" transform="translate(-46.98 -59.1)"/><path class="cls-40" d="M333.51,847.56c-.35-2.62-.7-5.44,0-7.78s2.89-3.71,4.28-1.93c5.91,39.36,11.81,78.73,16.84,118.26.65,5.19,1.36,9.3,1,14.43-.18,2.43-3.2,1.16-4.06-.79-1.62-3.67-2.42-12.21-2.91-16.46-1.33-11.77-2.84-24.27-4.26-36C341.54,893.76,336.71,871,333.51,847.56Z" transform="translate(-46.98 -59.1)"/><path class="cls-33" d="M303.77,538.41c-2.84-2.95-6.77-4.54-10.58-6-8.62-3.41-18-6.87-26.94-4.44a18.32,18.32,0,0,1-4.23.94c-1.23,0-2.47-.3-3.69-.15a9.61,9.61,0,0,0-3.65,1.53l-6.6,3.93c-3.45,2.06-7,4.15-9.68,7.1s-4.63,6.92-4.17,10.91c.23,2.06,1.07,4,1.24,6.08.29,3.32-1.15,6.52-1.67,9.8-1.05,6.57,1.58,13.15,4.68,19s6.77,11.62,8.1,18.13a3.7,3.7,0,0,0,1.18,2.5,4.05,4.05,0,0,0,1.76.48c5.59.81,9.53,5.67,14.14,8.91a27.07,27.07,0,0,0,18.09,4.76,4.17,4.17,0,0,0,2.22-.7,4.92,4.92,0,0,0,1.31-2.23,26.62,26.62,0,0,1,6-9.22c1.69-1.7,3.65-3.22,4.83-5.32,2.15-3.82,1.2-8.57,1.78-12.92.26-1.9.81-3.81.53-5.71-.36-2.38-2-4.37-2.74-6.67s0-5.51,2.34-5.92c.86-.15,1.81.11,2.6-.29,1.11-.56,1.25-2,1.55-3.26.74-3,3.21-5.26,5.18-7.68C312.26,555.87,308.87,543.73,303.77,538.41Z" transform="translate(-46.98 -59.1)"/><path class="cls-44" d="M243.12,505c2.63-1.23,6-2.39,6.43-5.26.38-2.6-2.07-4.79-2.38-7.4-.25-2.13.94-4.13,1.81-6.09a21.78,21.78,0,0,0,1.86-8.14,4.53,4.53,0,0,0-.44-2.5,4.83,4.83,0,0,0-1.94-1.63c-3.54-2-7.79-3.73-11.62-2.32-2.93,1.09-5,3.78-6.5,6.5-4.92,8.59-6.92,18.56-7.71,28.43-.16,1.94-4.76,9.24-3.74,11.95,1.27,3.4,8.1,5.42,11.12,4.32,2.37-.87,4.58-11.37,6.33-13A25.67,25.67,0,0,1,243.12,505Z" transform="translate(-46.98 -59.1)"/><path class="cls-43" d="M229.37,607.93c-5.29-15.08-6.29-30.73-5.51-46.24.78-15.67,3.44-31.55,12.16-46.06-5.15-2.16-12.29-4.22-16.66-1.37a9,9,0,0,0-2.93,3.59c-24.84,45.65-20.23,96.59-3.76,144,.73,2.12,1.71,4.45,4.44,5.57a15.16,15.16,0,0,0,5.15.82c15,.48,47.58-8.51,34.94-21.52C244.94,634.07,234.67,623,229.37,607.93Z" transform="translate(-46.98 -59.1)"/><path class="cls-43" d="M264.41,630.27c-3.09-6-10.5-7.94-16.69-10.65a47.91,47.91,0,0,1-13.49-8.88c-2.75-2.57-5.76-6.83-10.12-4.73-8.49,4.11.52,21.75,4,26.58,2.68,3.74,6,7.15,10.27,8.94,6.31,2.67,13.58,1.39,20.06-.83,2.8-1,5.88-2.44,6.73-5.28A7,7,0,0,0,264.41,630.27Z" transform="translate(-46.98 -59.1)"/><path class="cls-24" d="M222.78,513.33a4.13,4.13,0,0,1,1.45-2.92,5.58,5.58,0,0,1,3.52-1.54,4.24,4.24,0,0,1,3.46,1.52,4.3,4.3,0,0,1-.21,5.24,3.4,3.4,0,0,1-1,.81,6.7,6.7,0,0,1-2.74.41,4.53,4.53,0,0,1-1.6-.13A3.81,3.81,0,0,1,222.78,513.33Z" transform="translate(-46.98 -59.1)"/><path class="cls-46" d="M223.52,512.85a3.42,3.42,0,0,1,1.79-2.62,4.45,4.45,0,0,1,3.21-.34,3.27,3.27,0,0,1,1.85,5.53,2.53,2.53,0,0,1-.91.78,3.53,3.53,0,0,1-1.48.21C225.89,516.41,223.28,515.4,223.52,512.85Z" transform="translate(-46.98 -59.1)"/><path class="cls-24" d="M234,516.35a.33.33,0,0,0,.22,0,.31.31,0,0,0,.11-.18c.31-.87.61-1.75.92-2.63a.5.5,0,0,0,0-.46A.75.75,0,0,0,235,513a10.39,10.39,0,0,0-2.83-.85s-.09,0-.12,0a.23.23,0,0,0-.08.11q-.3.79-.57,1.59c-.11.31-.6,1.23-.47,1.53s1.1.47,1.41.57C232.9,516.07,233.43,516.22,234,516.35Z" transform="translate(-46.98 -59.1)"/><path class="cls-24" d="M223.14,514c-1-.29-2.44-.58-3.39-.87a.51.51,0,0,1-.22-.11.5.5,0,0,1,0-.46,20.51,20.51,0,0,1,.9-2.41.5.5,0,0,1,.11-.17.47.47,0,0,1,.2-.06,3.88,3.88,0,0,1,1.72.19c.33.1,1.34.36,1.41.73S222.88,513.93,223.14,514Z" transform="translate(-46.98 -59.1)"/><path class="cls-36" d="M226.44,516l-.17-.11c.23-.37.45-.76.65-1.15,0,0,0,0,0-.06a0,0,0,0,0,.06,0l0-.2a.14.14,0,0,1,.14.06.27.27,0,0,1,0,.26Q226.8,515.47,226.44,516Z" transform="translate(-46.98 -59.1)"/><path class="cls-36" d="M230.88,514.2a6.57,6.57,0,0,1-1.24-.29l.06-.19a6.33,6.33,0,0,0,1.2.28Z" transform="translate(-46.98 -59.1)"/><path class="cls-36" d="M228.14,511l-.2,0a4.86,4.86,0,0,0,.14-.85l0,0a.12.12,0,0,1,0-.17.13.13,0,0,1,.17,0l0,0V510A5.4,5.4,0,0,1,228.14,511Zm0-1,0,.05s.07,0,.08,0a.06.06,0,0,0,0-.09Z" transform="translate(-46.98 -59.1)"/><path class="cls-36" d="M225.06,512.67l-.77-.31a.42.42,0,0,1-.25-.24.17.17,0,0,1,0-.17l.16.12a.25.25,0,0,0,.13.1l.77.32Z" transform="translate(-46.98 -59.1)"/><path class="cls-42" d="M244.18,924.73a8.4,8.4,0,0,0-1.25,9.68c1.36,2.28,3.84,3.63,6.19,4.87l8,4.19c2.86,1.5,5.8,3,9,3.52,3.74.58,7.55-.32,11.11-1.62,2.21-.81,4.56-2,5.41-4.18a9.1,9.1,0,0,0,.4-3.29q0-7.08,0-14.17a2.9,2.9,0,0,0-.36-1.72,2.77,2.77,0,0,0-1.44-.84c-5.63-1.77-11.69-1-17.54-.26-4,.52-5.81,2.53-10,1.74C249.9,921.94,247.29,921.35,244.18,924.73Z" transform="translate(-46.98 -59.1)"/><path class="cls-47" d="M470.24,875.82c2.32,15.36.68,32.79,1.08,48.32l-7.3.57c-1.56-8.39-3.46-16.71-5.35-25q-3.84-16.79-7.66-33.58c-1.49-6.53-3-13.09-5.62-19.24a18.33,18.33,0,0,1-1.61-4.78,5.07,5.07,0,0,1,1.53-4.59,7.21,7.21,0,0,1,2.31-1.09l4.86-1.64c9-3,15.2,3.05,15.27,10.48A215.32,215.32,0,0,0,470.24,875.82Z" transform="translate(-46.98 -59.1)"/><path class="cls-47" d="M497.56,832.31c-.73-2.47-3.48-3.66-6-4.3a44.18,44.18,0,0,0-11.72-1.44c-2.43,0-5,.29-7,1.63s-3.3,4-2.33,6.27l-.07,3.94c-.76,9.82,1,19.63,2.17,29.41a348.18,348.18,0,0,1,2.16,54.6,2.55,2.55,0,0,0,.3,1.62,2.58,2.58,0,0,0,1.84.81c2.46.37,5.46.51,6.88-1.52a6.37,6.37,0,0,0,.82-2c4.3-15.69,3.11-32.32,5.21-48.45,1.61-12.4,5.16-24.47,7.56-36.74A8.07,8.07,0,0,0,497.56,832.31Z" transform="translate(-46.98 -59.1)"/><path class="cls-47" d="M402.91,517.75c.81-1.21,1.84-2.27,2.55-3.54a14.16,14.16,0,0,0,1.44-5.89,1.76,1.76,0,0,0-.14-1.07c-.25-.44-.81-.6-1.2-.92-1.1-.91-.59-2.64-.22-4a12.11,12.11,0,0,0-.11-6.46,7.21,7.21,0,0,0-2-3.33c-2-1.83-5.27-1.71-7.7-.44a7,7,0,0,0-2.12,1.61,8.34,8.34,0,0,0-1.33,2.41c-1.6,4.18-1.62,8.77-1.62,13.24,0,6.2,0,12.45,1.09,18.56a2,2,0,0,0,.32.89,1.84,1.84,0,0,0,1.34.57c2.11.24,6.1-.1,6.85-2.5C401.1,523.71,401,520.64,402.91,517.75Z" transform="translate(-46.98 -59.1)"/><path class="cls-47" d="M502.21,588.92a51.73,51.73,0,0,0-4.49-9.7c-6.49-10.62-24-23.55-36.32-14.19-2.86,2.18-4.91,5.23-6.79,8.3a59.4,59.4,0,0,0-5.08,9.83,36.25,36.25,0,0,0-1.62,20.93c1.53,6.35,5.39,12.34,9,17.69,4.77,7.1,10.78,14.21,19.1,16.23,11.06,2.68,22.75-5.23,27.16-15.73S506.05,599.64,502.21,588.92Z" transform="translate(-46.98 -59.1)"/><path class="cls-48" d="M529.45,656.94c-2.69-2.22-6.47-2.37-10-2.55a135.25,135.25,0,0,1-29.62-4.87c-6.2-1.74-12.4-5.2-18.79-6-6.68-.89-14.25.78-20.6,2.79a63.42,63.42,0,0,0-33.58,25,35.58,35.58,0,0,0-5.43,12c-1.23,5.66-.45,11.53.31,17.27,3.71,28.13,7,56.75,17.79,83,4.62,11.19,11.63,22.75,23.17,26.43,4.87,1.55,10.09,1.53,15.19,1.26A175.32,175.32,0,0,0,498.34,807c3.45-.79,7-1.77,9.63-4.16s3.88-5.83,4.9-9.19c4.76-15.88,5.3-32.65,7.33-49.1,3.06-24.72,9.55-48.92,12.42-73.66C533.19,665.92,533.28,660.1,529.45,656.94Z" transform="translate(-46.98 -59.1)"/><path class="cls-45" d="M407.46,716.76c1.36-12.21,1.63-18.65,7.81-29.27,7.4-12.7,7.78-19.17,21.83-23.47s43.12-1,57.8-1.74c3.19-.16,6.52-.28,9.42,1.06,3.47,1.6,5.7,5,7.53,8.37,11.32,20.73,14,15.9,16.53,39.38q5.88,55.17,11.77,110.34c.31,2.91.55,10.11-1.09,12.53s-4.79,3.39-7.67,4.12c-34.17,8.65-69.7,7.95-104.88,5.73-10.34-.65-26.89-3.21-31.95-14-4.23-9,1.18-24.8,2.24-34.29C400.35,763.6,403.9,748.69,407.46,716.76Z" transform="translate(-46.98 -59.1)"/><path class="cls-40" d="M411.12,889c1.51-16.73,3-33.47,5.75-50,2.1-.69,4.38,1,5.15,3s.44,4.36.06,6.53c-1.21,6.88-2.78,13.71-3.31,20.68-.47,6.32-.07,12.67-.37,19-.38,8.18-1.93,16.25-3.28,24.33-1.66,10-3,20-4.05,30s-.76,20.23-2.08,30.1c-7,2.53-4.59-9.14-4.31-12.22l2.19-24.23Q409,912.62,411.12,889Z" transform="translate(-46.98 -59.1)"/><path class="cls-40" d="M516.51,847.56c-.35-2.62-.7-5.44,0-7.78s2.89-3.71,4.28-1.93c5.91,39.36,11.81,78.73,16.84,118.26.65,5.19,1.36,9.3,1,14.43-.18,2.43-3.2,1.16-4.06-.79-1.62-3.67-2.42-12.21-2.91-16.46-1.33-11.77-2.84-24.27-4.26-36C524.54,893.76,519.71,871,516.51,847.56Z" transform="translate(-46.98 -59.1)"/><path class="cls-48" d="M419.62,612.67c5.5,14.69,12.59,29.08,14.35,44.66.39,3.53,0,7.92-3.18,9.41-3,1.38-6.37-.74-8.71-3a38.29,38.29,0,0,1-6.9-9.2,77.32,77.32,0,0,1-5-12.79c-10.84-33.45-21.79-67.48-22.59-102.63-.1-4.2.08-8.78,2.78-12,2.36-2.8,6.33-4.06,9.89-4.24,5.71-.28,4.95,1.16,4.9,6.45a242.62,242.62,0,0,0,1.38,28.52A228.56,228.56,0,0,0,419.62,612.67Z" transform="translate(-46.98 -59.1)"/><path class="cls-49" d="M522.49,654.33c-2.36-2.83-5.4-5.33-6.43-8.87-.81-2.79-.23-5.77-.32-8.68s-1.24-6.19-4-7.17-5.11.62-7.43,2.53c-1.27-.58-2.66-1-3.94-1.55-7-2.86-11.65-9.76-13.62-17s-1.6-15-1-22.45a80.23,80.23,0,0,1,2.27-14.64c6.42-4.91,10.35-13.22,4.32-20.36-6.8-8-19.62-11.15-29.5-8.35-11.59,3.3-35.12,16.53-35.73,28.56-.45,8.85,1.29,18.2-2.21,26.35-3.12,7.27,5.61,9.1-.83,13.71a9.7,9.7,0,0,0-3.36,3.47c-.92,1.93-.68,4.43-2.2,5.93a6.45,6.45,0,0,1-2.72,1.38c-5.35,1.69-11.94,4.36-12.14,10-.07,2.1.81,4.44-.42,6.14a20.73,20.73,0,0,1-2.47,2.08c-2,1.93-1.54,5.22-.46,7.76s2.69,5,2.7,7.73c0,2-.83,3.88-.95,5.85a8.38,8.38,0,0,0,5.61,8.24c3.24,1.05,7.74.53,9.1,3.65.41,1,.39,2.12,1,3a3.83,3.83,0,0,0,2.39,1.39c6.72,1.6,14.87-4.11,20.13.38,3.6,3.07,3.18,9.22,6.85,12.2,4.27,3.48,11.44.6,15.69,4.1,1.24,1,2.08,2.5,3.45,3.35,3.37,2.09,7.77-.76,9.86-4.14s3.24-7.49,6.34-10c5.6-4.46,13.7-1.15,20.85-.91a23.21,23.21,0,0,0,13.75-4,9.59,9.59,0,0,0,3.38-3.55c1.87-3.89-.68-9,1.57-12.65.74-1.21,1.94-2.11,2.67-3.33C526.63,661.27,524.85,657.16,522.49,654.33Z" transform="translate(-46.98 -59.1)"/><path class="cls-42" d="M473.53,917.92c-.13-2.48-1.41-5.07-3.72-6a8.82,8.82,0,0,0-4.73-.12c-6.81,1.2-7,3.69-6.78,9.9.12,3.2.28,6.5,1.71,9.36a15,15,0,0,0,4.28,5,3.92,3.92,0,0,1,1.13,1.13,3.5,3.5,0,0,1,.29,1.7,63.34,63.34,0,0,1-.85,10.2,2.74,2.74,0,0,0,3.2-1.39,8.42,8.42,0,0,0,.83-3.69,98.37,98.37,0,0,1,3.34-18.81A22.57,22.57,0,0,0,473.53,917.92Z" transform="translate(-46.98 -59.1)"/><path class="cls-42" d="M505.21,938.93a33.53,33.53,0,0,0-5.4-1,14.38,14.38,0,0,1-11.22-11.6c-.38-2.43-.11-4.93-.29-7.39s-.89-5.05-2.79-6.63a8,8,0,0,0-6.82-1.31c-3.43.75-6.05,1.68-6,5s2,7.21,2.54,10.51a70.67,70.67,0,0,1,.22,21.19,2.09,2.09,0,0,0,.2,1.6,1.87,1.87,0,0,0,1.18.53,8.65,8.65,0,0,0,4-.32L480.12,938c-.08-1.29.2-3,1.48-3.14,1.08-.09,1.76,1.13,2,2.19.8,3.78-.24,8.4,2.61,11,2.1,1.93,5.34,1.72,8.18,1.38,3.79-.44,7.68-.92,11-2.76,1.49-.81,3-2.1,3.05-3.8S506.93,939.56,505.21,938.93Z" transform="translate(-46.98 -59.1)"/><path class="cls-41" d="M910.2,533.35a34.87,34.87,0,0,0-.74-8.66,14.61,14.61,0,0,0-3-6,6.3,6.3,0,0,0-2.62-1.92,3.2,3.2,0,0,0-3.09.49,4.15,4.15,0,0,0-1.14,2.93,11.48,11.48,0,0,0,1.45,6.31,5.2,5.2,0,0,1,.91,2.11c.07.77-.47,1.66-1.25,1.63-.19,0-.42-.07-.57.06a.51.51,0,0,0-.11.44c.18,2.47,2,4.44,3.2,6.62.69,1.29.81,4.15,2,5,1,.69,4.09,0,4.79-.92a1.78,1.78,0,0,0,.23-1.07C910.21,538,910.21,535.68,910.2,533.35Z" transform="translate(-46.98 -59.1)"/><path class="cls-41" d="M838.76,913.22c0,1.82.15,4,1.71,4.92a3.64,3.64,0,0,0,4.39-1,10.59,10.59,0,0,0,1.94-4.44c3.62-13.73,7.17-27.58,8.23-41.74a9,9,0,0,0-.71-5.28,7.05,7.05,0,0,0-4.5-2.95,10.18,10.18,0,0,0-7,.54c-6.55,3.32-3.75,16.38-3.8,22.3Q838.87,899.38,838.76,913.22Z" transform="translate(-46.98 -59.1)"/><path class="cls-50" d="M906.9,873c-.79-3.16-2.56-6-4.21-8.78a146.48,146.48,0,0,1-14.44-33.54c-1-3.38-1.16-9.63-3.91-12.15-4.1-3.77-12.17-.78-17-.69s-9.18-1.32-13.7-2.44c-17.16-4.26-35.63-4.47-52.23,1.6a20.91,20.91,0,0,0-7.32,4c-3.69,3.46-4.84,8.75-6.5,13.53-3,8.68-8.09,16.46-11.85,24.83s-6.14,18-3.32,26.71a9.78,9.78,0,0,0,2.45,4.3,10.55,10.55,0,0,0,3.49,1.93,32.45,32.45,0,0,0,18.48,1.14c3.23-.75,6.34-2,9.6-2.6s6.84-.46,9.61,1.38a7.93,7.93,0,0,0,2.51,1.42,5.54,5.54,0,0,0,2.92-.47c5.46-1.9,11.35-3.49,17-2.08,5,1.25,9.56,4.82,14.69,4.35s9.06-4.86,14-6.41c8.87-2.8,18.27,4.14,27.45,2.63C902.87,890.29,908.92,881.08,906.9,873Z" transform="translate(-46.98 -59.1)"/><path class="cls-51" d="M903.06,607.58c.87-8,1.61-16,2.35-24a67.25,67.25,0,0,0,.33-13.67c-.4-3.58-1.37-7.08-1.74-10.66-.73-7,.74-14.46-2.46-20.7l7.93-.43a2,2,0,0,1,2.51,1.74c4.89,14.42,5.9,29.83,6.83,45,.69,11.31,1.36,22.63,1,34A185.48,185.48,0,0,1,906.84,681c-1.33,3.36-2.82,6.77-5.34,9.36-6.2,6.38-17.78,5.54-23.85-1-9.17-9.83-4.47-22.94,3.2-31.76,6.75-7.74,12.57-15.29,16.67-24.85C901,624.77,902.13,616.17,903.06,607.58Z" transform="translate(-46.98 -59.1)"/><path class="cls-50" d="M874,647.27c2.85-1.94,5-4.71,7.52-7.08s5.63-4.44,9.08-4.4c4.66.05,8.46,4,10.38,8.2s2.53,9,4.15,13.34c1.21,3.25,3,6.34,3.46,9.77s-.37,6.73.41,10c.93,3.85,4,6.88,5.24,10.63,1.42,4.13.58,8.65-.27,12.94-.55,2.78-1.11,5.57-1.66,8.36a3.45,3.45,0,0,1-.78,1.87,2.87,2.87,0,0,1-2.31.57c-2.6-.27-4.86-1.86-6.86-3.53a106.16,106.16,0,0,1-11.09-11.35c-6-6.79-12.08-13.68-16.15-21.77-1.69-3.36-3-6.9-5.11-10-2.22-3.34-7.1-7.82-6.1-12.33C864.78,648.35,871,649.3,874,647.27Z" transform="translate(-46.98 -59.1)"/><path class="cls-41" d="M806.34,599.33c1.51,9.66,3.6,19.95,10.6,26.77a23.71,23.71,0,0,0,36.83-4.68,39,39,0,0,0,3.81-9.34,110.57,110.57,0,0,0,4.48-32.79c-.06-3.88-.44-8.07-3-11s-6.85-3.91-10.77-4.64c-8-1.49-16.24-3-24.34-1.87-6.8,1-16,4.69-19.31,11.28C801.19,580,805.17,591.83,806.34,599.33Z" transform="translate(-46.98 -59.1)"/><path class="cls-50" d="M918.41,714.53c-2.1-2.95-4.94-5.29-7.34-8a69.39,69.39,0,0,1-7-10L888.46,671c-5-8.19-10.29-16.65-18.3-22-8.74-5.8-19.65-7.12-30.13-7.46a95.9,95.9,0,0,0-19.53,1,64.25,64.25,0,0,0-45.35,33.1c-5.29,10.16-7.7,21.53-10.06,32.74-.91,4.33-4.4,11.59-.29,14.94,3.93,3.2,9.89,3.09,14.66,2.74q9.1-.66,18.14-2c9.83-1.41,20.14-3.33,29.48.07,4.19,1.52,7.95,4,12.12,5.61,16.15,6,34.12-3.4,51.23-1.27,6,.75,11.81,2.92,17.85,3,5,0,10.7-2,12.34-6.79C921.81,721.33,920.51,717.48,918.41,714.53Z" transform="translate(-46.98 -59.1)"/><path class="cls-45" d="M773.46,716.76c1.36-12.21,1.63-18.65,7.81-29.27,7.4-12.7,7.78-19.17,21.83-23.47s43.12-1,57.8-1.74c3.18-.16,6.52-.28,9.42,1.06,3.47,1.6,5.7,5,7.53,8.37,11.32,20.73,14,15.9,16.53,39.38q5.88,55.17,11.77,110.34c.31,2.91.55,10.11-1.09,12.53s-4.79,3.39-7.67,4.12c-34.17,8.65-69.7,7.95-104.88,5.73-10.34-.65-26.89-3.21-32-14-4.23-9,1.18-24.8,2.24-34.29C766.35,763.6,769.9,748.69,773.46,716.76Z" transform="translate(-46.98 -59.1)"/><path class="cls-40" d="M777.12,889c1.51-16.73,3-33.47,5.75-50,2.1-.69,4.38,1,5.15,3s.44,4.36.06,6.53c-1.21,6.88-2.78,13.71-3.31,20.68-.47,6.32-.07,12.67-.37,19-.38,8.18-1.93,16.25-3.28,24.33-1.66,10-3,20-4,30s-.76,20.23-2.08,30.1c-7,2.53-4.59-9.14-4.31-12.22l2.19-24.23Q775,912.62,777.12,889Z" transform="translate(-46.98 -59.1)"/><path class="cls-40" d="M882.51,847.56c-.35-2.62-.7-5.44,0-7.78s2.89-3.71,4.28-1.93c5.91,39.36,11.81,78.73,16.84,118.26.65,5.19,1.36,9.3,1,14.43-.18,2.43-3.2,1.16-4.06-.79-1.62-3.67-2.42-12.21-2.91-16.46-1.33-11.77-2.84-24.27-4.26-36C890.54,893.76,885.71,871,882.51,847.56Z" transform="translate(-46.98 -59.1)"/><path class="cls-48" d="M866.92,567.18A19.44,19.44,0,0,0,860.3,559,38.12,38.12,0,0,0,809,563.15a25.74,25.74,0,0,0-4.91,7.24L803.85,589a10.2,10.2,0,0,0,2.38,5.38c1.51,1.75,3.76,3.28,3.79,5.6,0,1.74-1.27,3.17-2,4.76a13.85,13.85,0,0,0-1,4.91c-.32,5-.14,10.32,2.72,14.4a18.65,18.65,0,0,0,6.6,5.44c5.91,3.18,12.6,4.6,19.24,5.57a19.9,19.9,0,0,0,5,.27,21.18,21.18,0,0,0,6.5-2.2,29.34,29.34,0,0,0,7.84-4.7,22.87,22.87,0,0,0,4.56-6.49c7-13.62,7.7-29.43,8.32-44.7C868,573.83,868.09,570.35,866.92,567.18Z" transform="translate(-46.98 -59.1)"/><path class="cls-48" d="M817.26,566.16c-.38-1.69-.66-4.79-2-6-3-2.73-8.88,3-10.7,5.11-5.92,6.86-8.33,16.22-8.26,25.28a1.5,1.5,0,0,0,.23,1,1.55,1.55,0,0,0,1,.39q7.77.74,15.57.9a2.53,2.53,0,0,0,2-.52,2.5,2.5,0,0,0,.51-1.28c.5-2.59,1-5.18,1.51-7.77a50.23,50.23,0,0,0,1.17-8.6A35.65,35.65,0,0,0,817.26,566.16Z" transform="translate(-46.98 -59.1)"/><path class="cls-48" d="M888,607.27q-4.41-10.38-8.84-20.77c-2.16-5.07-4.36-10.22-7.83-14.52s-8.43-7.69-13.94-8c-7.53-.45-14.11,4.68-19.89,9.53-10.31,8.64-21,17.84-25.86,30.4l-2.75,4.6c.3,5.59-5.22,9.47-8.33,14.12-2.89,4.31-3.77,9.61-4.58,14.73a13.28,13.28,0,0,0,0,6.11,12.09,12.09,0,0,0,3.46,4.76c4.16,4,9.48,7.57,15.2,6.92,3.67-.43,6.93-2.57,10.51-3.5a16.66,16.66,0,0,1,13.77,2.62c1.69,1.24,3.14,2.8,5,3.79,5.23,2.84,11.84.29,16.41-3.51a33.7,33.7,0,0,0,7.91-9.55,24.82,24.82,0,0,1,3.2-5.13c2.36-2.55,5.9-3.53,9.1-4.89,4.19-1.78,8.21-4.61,10-8.79C893.16,620.17,890.59,613.3,888,607.27Z" transform="translate(-46.98 -59.1)"/><path class="cls-52" d="M847.91,904.6a4.6,4.6,0,0,1,2.08.8c1.27,1,1.27,2.91,1.19,4.54a137.58,137.58,0,0,0,1.47,27.5c.43,2.73.73,6-1.43,7.76a4,4,0,0,1-6.21-2.56c-.11-.93.13-1.87.06-2.8a2.19,2.19,0,0,0-1.5-2.13c-.21,2.1-.31,4.22-.31,6.33a8.34,8.34,0,0,1-11.68-4,15.79,15.79,0,0,1-.52-6.57,4,4,0,0,1,.79-2.63c.73-.76,1.91-.83,2.87-1.28,2.48-1.19,2.8-4.52,2.79-7.27a53.37,53.37,0,0,0-.67-9.79c-.54-2.76-1.65-5.8,1-7.32S845.15,904.08,847.91,904.6Z" transform="translate(-46.98 -59.1)"/><path class="cls-52" d="M833.19,906.89a2.68,2.68,0,0,0-3.62-2.54l-5.89.33a1.53,1.53,0,0,0-1.7,1.64c-1.05,5.26-2.57,10.65-6.12,14.67a13.82,13.82,0,0,1-11.75,4.77c-2.39-.28-3.24-.26-4.74,1.93a10.56,10.56,0,0,0-1.74,6,23.56,23.56,0,0,0,2.51,9.34,5.11,5.11,0,0,0,1.37,2.06,5.25,5.25,0,0,0,3.51.66l13.37-.64a2.28,2.28,0,0,0,1.65-.54,2.71,2.71,0,0,0,.42-1.67,3.59,3.59,0,0,1,1.19-2.59,1.89,1.89,0,0,1,2.61.23,4.52,4.52,0,0,1,.46,1.87,4.07,4.07,0,0,0,7.2,1.77,8.25,8.25,0,0,0,1.26-4.46C834.11,928.77,835,917.71,833.19,906.89Z" transform="translate(-46.98 -59.1)"/><path class="cls-42" d="M688.64,832.79c-1.39-2.14-4.19-2.81-6.73-3.15a64.73,64.73,0,0,0-17.64.05c-2.61.37-6,1-7.65,3.39-1.27,1.9-.44,3.57-.34,5.72.31,6.85-.3,13.88-.4,20.74-.21,13.63-.29,27.26,0,40.88q.24,11.46.87,22.9a5,5,0,0,0,.89,3.12c1.05,1.22,2.92,1.16,4.53,1.25,3.29.2,7,1.38,9.6-.65a9.4,9.4,0,0,0,2.5-3.88,138.42,138.42,0,0,0,7.07-18.85c1.85-6.9,2.61-14,3.37-21.16l4.71-44C689.65,837,689.84,834.62,688.64,832.79Z" transform="translate(-46.98 -59.1)"/><path class="cls-42" d="M655.36,821.46c-4.38-3.38-8.78-6.56-14-8.57-4.84-1.87-10.44.65-15,2.61-3.09,1.33-6.18,3-8,5.88-1.54,2.43-2,5.4-2.26,8.27-3.16,29.79,5.2,60.08,1.08,89.75-.35,2.54-.7,5.37.8,7.44,1.13,1.57,3.06,2.32,4.91,2.88,5.94,1.83,8.18.67,14.4.49a3.14,3.14,0,0,0,1.88-.48,2.94,2.94,0,0,0,.88-1.72,31.41,31.41,0,0,0,.56-7.19c0-11.84,0-21.68.07-33.52,0-12.13.16-24.75,5.53-35.62,2.77-5.61,6.81-10.47,10.88-15.21,1.87-2.19,3.88-4.69,3.7-7.56C660.61,825.74,657.88,823.4,655.36,821.46Z" transform="translate(-46.98 -59.1)"/><path class="cls-42" d="M718.28,763.91c-.64-8.35-1.7-16.7-2.78-25-2-15.73,7.43-33,3.2-48.48-2.29-8.37-1.92-23.83-6.54-31.66-3.92-6.64-24.65-7.19-33.4-11-7-3.07-17.5-2.2-26.19-.42-13.24.77-44.59,5.07-51.85,13.2-11.25,12.58-9,32.61-14.5,46.92-6.11,15.75.5,31.61-3,47.81A178.08,178.08,0,0,0,579.61,780c-.55,8.08,1.86,14.45,12.9,17.54,9.82,2.74,21.06,2.32,31.4,2.53,11.34.23,22.68.4,34,.25s22.65-.59,33.89-1.58c10.66-.94,20.27-3,24.12-11.18C719.35,780.23,718.86,771.49,718.28,763.91Z" transform="translate(-46.98 -59.1)"/><path class="cls-41" d="M624.1,610.83c1.51,9.66,3.6,19.95,10.6,26.77a23.71,23.71,0,0,0,36.83-4.68,39.43,39.43,0,0,0,3.81-9.34,110.56,110.56,0,0,0,4.47-32.79c0-3.88-.43-8.07-3-11s-6.86-3.91-10.78-4.64c-8-1.49-16.24-3-24.33-1.87-6.8,1-16,4.69-19.32,11.28C618.94,591.45,622.93,603.33,624.1,610.83Z" transform="translate(-46.98 -59.1)"/><path class="cls-53" d="M614.8,599.46c.33,4.6.8,9.34,3,13.36,1.65,3.07,5.08,9.57,7.56,11.95,6,5.75,11.17,7.53,18.59,11,4.07,1.9,8.56,3.11,12,6.09,0-1.73,2.82-2.36,3.52-.78.53-1.43,2.11-2,3.48-2.54,8.42-3.28,14.82-10.88,18.49-19.44s4.87-18,5.28-27.4c.2-4.37.21-8.91-1.48-12.91a19.9,19.9,0,0,0-10.22-10c-4.36-2-9.13-2.83-13.87-3.41a88.84,88.84,0,0,0-22.57-.38c-6.13.8-17.13,2.75-21.24,8.19C612.65,579.34,614.28,592.31,614.8,599.46Z" transform="translate(-46.98 -59.1)"/><path class="cls-53" d="M686.19,567.76c-.55-1.16-3.92-8.39-4.94-9.16-5.27-4-9.26-5.46-15.85-5.67-12.89-.4-26.57,8-39.06,4.74a17.68,17.68,0,0,1-6.42-2.76,7.8,7.8,0,0,1-3.31-5.93c-1.93,4.06-3.87,8.27-4,12.76-.22,6.54,3.51,12.76,8.64,16.82s11.51,6.22,17.9,7.62a91.86,91.86,0,0,0,25.4,1.93l10.86,1.11a12.24,12.24,0,0,0,7.53-5.87,30.58,30.58,0,0,0,3.3-9.2C686.71,572,687.13,569.72,686.19,567.76Z" transform="translate(-46.98 -59.1)"/><path class="cls-45" d="M590.46,716.09c1.36-12.21,1.63-18.65,7.81-29.27,7.4-12.69,7.78-19.17,21.83-23.46s43.12-1.05,57.8-1.75c3.18-.15,6.52-.28,9.42,1.06,3.47,1.6,5.7,5,7.53,8.37,11.32,20.73,14,15.9,16.53,39.39q5.88,55.16,11.77,110.33c.31,2.92.55,10.11-1.09,12.54s-4.79,3.39-7.67,4.11c-34.17,8.65-69.7,8-104.88,5.74-10.34-.65-26.89-3.22-32-14-4.23-9,1.18-24.81,2.24-34.29C583.35,762.93,586.9,748,590.46,716.09Z" transform="translate(-46.98 -59.1)"/><path class="cls-40" d="M594.12,889c1.51-16.73,3-33.47,5.75-50,2.1-.69,4.38,1,5.15,3s.44,4.36.06,6.53c-1.21,6.88-2.78,13.71-3.31,20.68-.47,6.32-.07,12.67-.37,19-.38,8.18-1.93,16.25-3.28,24.33-1.66,10-3,20-4,30s-.76,20.23-2.08,30.1c-7,2.53-4.59-9.14-4.31-12.22l2.19-24.23Q592,912.62,594.12,889Z" transform="translate(-46.98 -59.1)"/><path class="cls-40" d="M699.51,847.56c-.35-2.62-.7-5.44,0-7.78s2.89-3.71,4.28-1.93c5.91,39.36,11.81,78.73,16.84,118.26.65,5.19,1.36,9.3,1,14.43-.18,2.43-3.2,1.16-4.06-.79-1.62-3.67-2.42-12.21-2.91-16.46-1.33-11.77-2.84-24.27-4.26-36C707.54,893.76,702.71,871,699.51,847.56Z" transform="translate(-46.98 -59.1)"/><path class="cls-42" d="M656.71,924.22a1.2,1.2,0,0,0-.58.35,1.39,1.39,0,0,0-.22.73,48.16,48.16,0,0,0,1.27,16.53,3.78,3.78,0,0,0,.36,1,2.72,2.72,0,0,0,.66.73,10,10,0,0,0,5,1.7,29.29,29.29,0,0,0,6.86.48,10.08,10.08,0,0,0,6.29-2.67,30,30,0,0,0,2.88-3.88c2.68-3.67,6.61-6.08,9.52-9.54a7.46,7.46,0,0,0,1.45-2.34,9.76,9.76,0,0,0,.35-2.91,9.08,9.08,0,0,0-.86-4.92,5.34,5.34,0,0,0-3.61-2.27,15.19,15.19,0,0,0-4.31,0,14,14,0,0,0-5.79,1.48c-1,.58-1.83,1.4-2.79,2-2.39,1.54-5.35,1.85-8.08,2A27.37,27.37,0,0,0,656.71,924.22Z" transform="translate(-46.98 -59.1)"/><path class="cls-42" d="M642.37,924.73a6.67,6.67,0,0,0-2.84-4.13,8.39,8.39,0,0,0-3.69-.71c-1.64-.06-3.29-.2-4.93-.16a11.84,11.84,0,0,1-2.85.07c-2.43-.57-4.12-3.78-5.4-5.7a7.78,7.78,0,0,0-11.57.1,10.3,10.3,0,0,0-2.29,7.1,19.62,19.62,0,0,0,2.8,9.14,52.92,52.92,0,0,0,5.74,7.76c1.79,2.12,3.71,4.29,6.29,5.31a14.1,14.1,0,0,0,4.42.81,37.66,37.66,0,0,0,8.93-.56,4.82,4.82,0,0,0,1.74-.57,4.9,4.9,0,0,0,1.67-2.33C642.61,935.79,643.94,930,642.37,924.73Z" transform="translate(-46.98 -59.1)"/><path class="cls-32" d="M672.77,463c.93-.74,1.86-1.75,1.73-2.93s-1.19-2-1.33-3.1a4.34,4.34,0,0,1,.46-2.07c.72-1.87,1.12-4.13,0-5.78s-3.31-2-5.27-2.15a10.24,10.24,0,0,0-2.71.14,7.4,7.4,0,0,0-5.29,5,10,10,0,0,0,.78,7.42,15.22,15.22,0,0,0,5.15,5.55C668.43,466.52,671.05,464.34,672.77,463Z" transform="translate(-46.98 -59.1)"/></g></g></svg>